<svg xmlns="http://www.w3.org/2000/svg" xmlns:xlink="http://www.w3.org/1999/xlink" width="113" height="113" viewBox="0 0 113 113">
  <defs>
    <filter id="Path_982547" x="0" y="0" width="113" height="113" filterUnits="userSpaceOnUse">
      <feOffset dy="3" input="SourceAlpha"/>
      <feGaussianBlur stdDeviation="3" result="blur"/>
      <feFlood flood-opacity="0.161"/>
      <feComposite operator="in" in2="blur"/>
      <feComposite in="SourceGraphic"/>
    </filter>
  </defs>
  <g id="Group_1202753" data-name="Group 1202753" transform="translate(-586.125 -2800)">
    <g id="Group_1202375" data-name="Group 1202375">
      <g id="Group_1202219" data-name="Group 1202219" transform="translate(595.125 2806)">
        <g id="Group_1178824" data-name="Group 1178824">
          <g id="Group_1177679" data-name="Group 1177679">
            <g id="Group_1172010" data-name="Group 1172010">
              <g id="Group_1171046" data-name="Group 1171046">
                <g id="Group_1148525" data-name="Group 1148525">
                  <g transform="matrix(1, 0, 0, 1, -9, -6)" filter="url(#Path_982547)">
                    <g id="Path_982547-2" data-name="Path 982547" transform="translate(9 6)" fill="#fbedfe">
                      <path d="M 47.5 93.5 C 41.28937149047852 93.5 35.26533508300781 92.28397369384766 29.59518623352051 89.88570404052734 C 24.11771965026855 87.56893157958984 19.19813346862793 84.25196075439453 14.97309303283691 80.02691650390625 C 10.74804019927979 75.80186462402344 7.431066513061523 70.88229370117188 5.114293098449707 65.40481567382812 C 2.716026782989502 59.73468017578125 1.5 53.71062850952148 1.5 47.5 C 1.5 41.28937149047852 2.716026782989502 35.26533508300781 5.114293098449707 29.59518623352051 C 7.431066513061523 24.11771965026855 10.74804019927979 19.19813346862793 14.97309303283691 14.97309303283691 C 19.19813346862793 10.74804019927979 24.11771965026855 7.431066513061523 29.59518623352051 5.114293098449707 C 35.26533508300781 2.716026782989502 41.28937149047852 1.5 47.5 1.5 C 53.71062850952148 1.5 59.73468017578125 2.716026782989502 65.40481567382812 5.114293098449707 C 70.88229370117188 7.431066513061523 75.80186462402344 10.74804019927979 80.02691650390625 14.97309303283691 C 84.25196075439453 19.19813346862793 87.56893157958984 24.11771965026855 89.88570404052734 29.59518623352051 C 92.28397369384766 35.26533508300781 93.5 41.28937149047852 93.5 47.5 C 93.5 53.71062850952148 92.28397369384766 59.73468017578125 89.88570404052734 65.40481567382812 C 87.56893157958984 70.88229370117188 84.25196075439453 75.80186462402344 80.02691650390625 80.02691650390625 C 75.80186462402344 84.25196075439453 70.88229370117188 87.56893157958984 65.40481567382812 89.88570404052734 C 59.73468017578125 92.28397369384766 53.71062850952148 93.5 47.5 93.5 Z" stroke="none"/>
                      <path d="M 47.5 3 C 41.49121475219727 3 35.66376876831055 4.176155090332031 30.17950439453125 6.495796203613281 C 24.88084411621094 8.736953735351562 20.12152099609375 11.94598388671875 16.03375244140625 16.03375244140625 C 11.94598388671875 20.12152099609375 8.736953735351562 24.88084411621094 6.495796203613281 30.17950439453125 C 4.176155090332031 35.66376876831055 3 41.49121475219727 3 47.5 C 3 53.50878524780273 4.176155090332031 59.33623123168945 6.495796203613281 64.82049560546875 C 8.736953735351562 70.11915588378906 11.94598388671875 74.87847900390625 16.03375244140625 78.96624755859375 C 20.12152099609375 83.05401611328125 24.88084411621094 86.26304626464844 30.17950439453125 88.50419616699219 C 35.66376876831055 90.82384490966797 41.49121475219727 92 47.5 92 C 53.50878524780273 92 59.33623123168945 90.82384490966797 64.82049560546875 88.50419616699219 C 70.11915588378906 86.26304626464844 74.87847900390625 83.05401611328125 78.96624755859375 78.96624755859375 C 83.05401611328125 74.87847900390625 86.26304626464844 70.11915588378906 88.50419616699219 64.82049560546875 C 90.82384490966797 59.33623123168945 92 53.50878524780273 92 47.5 C 92 41.49121475219727 90.82384490966797 35.66376876831055 88.50419616699219 30.17950439453125 C 86.26304626464844 24.88084411621094 83.05401611328125 20.12152099609375 78.96624755859375 16.03375244140625 C 74.87847900390625 11.94598388671875 70.11915588378906 8.736953735351562 64.82049560546875 6.495796203613281 C 59.33623123168945 4.176155090332031 53.50878524780273 3 47.5 3 M 47.5 0 C 73.7335205078125 0 95 21.2664794921875 95 47.5 C 95 73.7335205078125 73.7335205078125 95 47.5 95 C 21.2664794921875 95 0 73.7335205078125 0 47.5 C 0 21.2664794921875 21.2664794921875 0 47.5 0 Z" stroke="none" fill="#7b3289"/>
                    </g>
                  </g>
                </g>
              </g>
            </g>
          </g>
        </g>
      </g>
      <g id="calculator_11277985" transform="translate(612.589 2823.142)">
        <g id="Group_1202360" data-name="Group 1202360" transform="translate(7.836 2.554)">
          <path id="Path_1042321" data-name="Path 1042321" d="M74.5,19.341q24.806,39.077,40.251,19.4V18.86l-8.315-8.312H77.741A3.248,3.248,0,0,0,74.5,13.791Z" transform="translate(-73.556 -9.606)" fill="#e6e6e6" fill-rule="evenodd"/>
          <path id="Path_1042322" data-name="Path 1042322" d="M96.295,39.218c-.212,0-.425-.005-.638-.016-4.259-.213-8.88-2.583-13.733-7.044-4.748-4.364-9.887-10.879-15.273-19.364a.942.942,0,0,1-.147-.5V6.738a4.189,4.189,0,0,1,4.184-4.184H99.38a.942.942,0,0,1,.666.276l8.315,8.312a.942.942,0,0,1,.276.666V31.684a.943.943,0,0,1-.2.582C104.813,36.882,100.731,39.218,96.295,39.218Zm-27.908-27.2C78.837,28.422,88.043,36.936,95.75,37.321c4.016.2,7.617-1.751,11-5.965V12.2L98.99,4.437h-28.3a2.3,2.3,0,0,0-2.3,2.3Z" transform="translate(-66.503 -2.554)" fill="#006"/>
        </g>
        <g id="Group_1202361" data-name="Group 1202361" transform="translate(39.772 3.082)">
          <path id="Path_1042323" data-name="Path 1042323" d="M346.082,16.7h-4.318a4.189,4.189,0,0,1-4.184-4.184V7.974a.942.942,0,1,1,1.884,0v4.542a2.3,2.3,0,0,0,2.3,2.3h4.318a.942.942,0,0,1,0,1.883Z" transform="translate(-337.58 -7.032)" fill="#006"/>
        </g>
        <g id="Group_1202362" data-name="Group 1202362" transform="translate(0.002 11.347)">
          <path id="Path_1042324" data-name="Path 1042324" d="M37.574,125.765q6.312-4.478,4.919-19.239V89.612a4.442,4.442,0,0,0-4.428-4.428H12.424A4.442,4.442,0,0,0,8,89.612V121.34a4.44,4.44,0,0,0,4.428,4.425H37.574Z" transform="translate(-7.054 -84.242)" fill="#69f" fill-rule="evenodd"/>
          <path id="Path_1042325" data-name="Path 1042325" d="M30.521,119.655H5.372A5.374,5.374,0,0,1,0,114.288V82.56a5.376,5.376,0,0,1,5.37-5.37h25.64a5.376,5.376,0,0,1,5.37,5.37V99.43a37.455,37.455,0,0,1-.563,12.468,12.792,12.792,0,0,1-4.753,7.583.943.943,0,0,1-.545.174ZM5.372,79.073A3.49,3.49,0,0,0,1.886,82.56v31.728a3.489,3.489,0,0,0,3.486,3.483h24.84c3.719-2.843,5.162-8.966,4.291-18.209,0-.029,0-.059,0-.088V82.56a3.49,3.49,0,0,0-3.486-3.486Z" transform="translate(-0.002 -77.19)" fill="#006"/>
        </g>
        <g id="Group_1202363" data-name="Group 1202363" transform="translate(14.732 27.533)">
          <path id="Path_1042326" data-name="Path 1042326" d="M135.551,222.579a2.52,2.52,0,1,1-2.518,2.518A2.518,2.518,0,0,1,135.551,222.579Z" transform="translate(-132.091 -221.637)" fill="#fff" fill-rule="evenodd"/>
          <path id="Path_1042327" data-name="Path 1042327" d="M128.5,221.508a3.461,3.461,0,1,1,3.46-3.463A3.465,3.465,0,0,1,128.5,221.508Zm0-5.039a1.578,1.578,0,1,0,1.576,1.576A1.578,1.578,0,0,0,128.5,216.469Z" transform="translate(-125.039 -214.585)" fill="#006"/>
        </g>
        <g id="Group_1202364" data-name="Group 1202364" transform="translate(24.367 27.533)">
          <path id="Path_1042328" data-name="Path 1042328" d="M217.33,222.579a2.52,2.52,0,1,1-2.518,2.518A2.52,2.52,0,0,1,217.33,222.579Z" transform="translate(-213.87 -221.637)" fill="#fff" fill-rule="evenodd"/>
          <path id="Path_1042329" data-name="Path 1042329" d="M210.278,221.508a3.461,3.461,0,1,1,3.463-3.463A3.465,3.465,0,0,1,210.278,221.508Zm0-5.039a1.578,1.578,0,1,0,1.579,1.576A1.578,1.578,0,0,0,210.278,216.469Z" transform="translate(-206.818 -214.585)" fill="#006"/>
        </g>
        <g id="Group_1202365" data-name="Group 1202365" transform="translate(5.098 35.321)">
          <path id="Path_1042330" data-name="Path 1042330" d="M53.771,288.683a2.52,2.52,0,1,1-2.518,2.521A2.52,2.52,0,0,1,53.771,288.683Z" transform="translate(-50.311 -287.741)" fill="#fff" fill-rule="evenodd"/>
          <path id="Path_1042331" data-name="Path 1042331" d="M46.719,287.612a3.461,3.461,0,1,1,3.46-3.46A3.464,3.464,0,0,1,46.719,287.612Zm0-5.039a1.578,1.578,0,1,0,1.576,1.58A1.58,1.58,0,0,0,46.719,282.573Z" transform="translate(-43.259 -280.689)" fill="#006"/>
        </g>
        <g id="Group_1202366" data-name="Group 1202366" transform="translate(14.732 35.321)">
          <path id="Path_1042332" data-name="Path 1042332" d="M135.551,288.683a2.52,2.52,0,1,1-2.518,2.521A2.518,2.518,0,0,1,135.551,288.683Z" transform="translate(-132.091 -287.741)" fill="#fff" fill-rule="evenodd"/>
          <path id="Path_1042333" data-name="Path 1042333" d="M128.5,287.612a3.461,3.461,0,1,1,3.46-3.46A3.464,3.464,0,0,1,128.5,287.612Zm0-5.039a1.578,1.578,0,1,0,1.576,1.58A1.58,1.58,0,0,0,128.5,282.573Z" transform="translate(-125.039 -280.689)" fill="#006"/>
        </g>
        <g id="Group_1202367" data-name="Group 1202367" transform="translate(5.098 43.108)">
          <path id="Path_1042334" data-name="Path 1042334" d="M53.771,354.787a2.52,2.52,0,1,1-2.518,2.521A2.52,2.52,0,0,1,53.771,354.787Z" transform="translate(-50.311 -353.845)" fill="#fff" fill-rule="evenodd"/>
          <path id="Path_1042335" data-name="Path 1042335" d="M46.719,353.716a3.461,3.461,0,1,1,3.46-3.46A3.464,3.464,0,0,1,46.719,353.716Zm0-5.039a1.578,1.578,0,1,0,1.576,1.58A1.58,1.58,0,0,0,46.719,348.677Z" transform="translate(-43.259 -346.793)" fill="#006"/>
        </g>
        <g id="Group_1202368" data-name="Group 1202368" transform="translate(14.732 43.108)">
          <path id="Path_1042336" data-name="Path 1042336" d="M135.551,354.787a2.52,2.52,0,1,1-2.518,2.521A2.518,2.518,0,0,1,135.551,354.787Z" transform="translate(-132.091 -353.845)" fill="#fff" fill-rule="evenodd"/>
          <path id="Path_1042337" data-name="Path 1042337" d="M128.5,353.716a3.461,3.461,0,1,1,3.46-3.46A3.464,3.464,0,0,1,128.5,353.716Zm0-5.039a1.578,1.578,0,1,0,1.576,1.58A1.58,1.58,0,0,0,128.5,348.677Z" transform="translate(-125.039 -346.793)" fill="#006"/>
        </g>
        <g id="Group_1202369" data-name="Group 1202369" transform="translate(24.367 36.533)">
          <path id="Path_1042338" data-name="Path 1042338" d="M218.663,310.206q2.124-1.593,1.176-8.973a2.52,2.52,0,0,0-5.026.257v6.579a2.519,2.519,0,0,0,3.85,2.137Z" transform="translate(-213.871 -298.03)" fill="#fff" fill-rule="evenodd"/>
          <path id="Path_1042339" data-name="Path 1042339" d="M210.278,304.477a3.464,3.464,0,0,1-3.46-3.46v-6.579a3.461,3.461,0,0,1,6.9-.366c.691,5.4.2,8.526-1.546,9.835-.021.016-.043.031-.065.045A3.448,3.448,0,0,1,210.278,304.477Zm0-11.615a1.578,1.578,0,0,0-1.576,1.576v6.579a1.577,1.577,0,0,0,2.374,1.36c.628-.5,1.526-2.223.776-8.076,0-.008,0-.016,0-.024A1.574,1.574,0,0,0,210.278,292.862Z" transform="translate(-206.818 -290.979)" fill="#006"/>
        </g>
        <g id="Group_1202370" data-name="Group 1202370" transform="translate(5.098 27.533)">
          <path id="Path_1042340" data-name="Path 1042340" d="M53.771,222.579a2.52,2.52,0,1,1-2.518,2.518A2.52,2.52,0,0,1,53.771,222.579Z" transform="translate(-50.311 -221.637)" fill="#fff" fill-rule="evenodd"/>
          <path id="Path_1042341" data-name="Path 1042341" d="M46.719,221.508a3.461,3.461,0,1,1,3.46-3.463A3.465,3.465,0,0,1,46.719,221.508Zm0-5.039a1.578,1.578,0,1,0,1.576,1.576A1.578,1.578,0,0,0,46.719,216.469Z" transform="translate(-43.259 -214.585)" fill="#006"/>
        </g>
        <g id="Group_1202371" data-name="Group 1202371" transform="translate(4.153 15.454)">
          <path id="Path_1042342" data-name="Path 1042342" d="M45.108,120.05H67.549a1.883,1.883,0,0,1,1.877,1.877v4.358a1.883,1.883,0,0,1-1.877,1.877H45.108a1.883,1.883,0,0,1-1.877-1.877v-4.358a1.883,1.883,0,0,1,1.877-1.877Z" transform="translate(-42.289 -119.108)" fill="#fff" fill-rule="evenodd"/>
          <path id="Path_1042343" data-name="Path 1042343" d="M60.5,122.05H38.056a2.822,2.822,0,0,1-2.819-2.819v-4.358a2.822,2.822,0,0,1,2.819-2.819H60.5a2.822,2.822,0,0,1,2.819,2.819v4.358A2.822,2.822,0,0,1,60.5,122.05Zm-22.441-8.112a.936.936,0,0,0-.935.935v4.358a.936.936,0,0,0,.935.935H60.5a.936.936,0,0,0,.935-.935v-4.358a.936.936,0,0,0-.935-.935Z" transform="translate(-35.237 -112.055)" fill="#006"/>
        </g>
        <g id="Group_1202372" data-name="Group 1202372" transform="translate(27.997 29.948)">
          <path id="Path_1042344" data-name="Path 1042344" d="M260.847,273.512a15.22,15.22,0,1,0-15.221-15.221A15.25,15.25,0,0,0,260.847,273.512Z" transform="translate(-244.684 -242.131)" fill="#ffd76c" fill-rule="evenodd"/>
          <path id="Path_1042345" data-name="Path 1042345" d="M253.8,267.4a16.161,16.161,0,1,1,16.16-16.163A16.181,16.181,0,0,1,253.8,267.4Zm0-30.439a14.278,14.278,0,1,0,14.276,14.276A14.294,14.294,0,0,0,253.8,236.963Z" transform="translate(-237.632 -235.08)" fill="#006"/>
        </g>
        <g id="Group_1202373" data-name="Group 1202373" transform="translate(31.573 33.524)">
          <path id="Path_1042346" data-name="Path 1042346" d="M287.629,296.719a11.643,11.643,0,1,0-11.645-11.645A11.667,11.667,0,0,0,287.629,296.719Z" transform="translate(-275.042 -272.491)" fill="#ffc338" fill-rule="evenodd"/>
          <path id="Path_1042347" data-name="Path 1042347" d="M280.577,290.609a12.585,12.585,0,1,1,12.583-12.586A12.6,12.6,0,0,1,280.577,290.609Zm0-23.286a10.7,10.7,0,1,0,10.7,10.7A10.713,10.713,0,0,0,280.577,267.322Z" transform="translate(-267.99 -265.439)" fill="#006"/>
        </g>
        <g id="Group_1202374" data-name="Group 1202374" transform="translate(38.346 41.275)">
          <path id="Path_1042348" data-name="Path 1042348" d="M329.923,340.9h-.013a.942.942,0,0,1-.738-.373l-3.5-4.625a.942.942,0,1,1,1.5-1.137l2.774,3.662,5.482-6.838a.942.942,0,1,1,1.469,1.178l-6.238,7.781A.941.941,0,0,1,329.923,340.9Z" transform="translate(-325.478 -331.231)" fill="#fff"/>
        </g>
      </g>
    </g>
  </g>
</svg>
