<svg xmlns="http://www.w3.org/2000/svg" xmlns:xlink="http://www.w3.org/1999/xlink" width="113" height="113" viewBox="0 0 113 113">
  <defs>
    <filter id="Path_982547" x="0" y="0" width="113" height="113" filterUnits="userSpaceOnUse">
      <feOffset dy="3" input="SourceAlpha"/>
      <feGaussianBlur stdDeviation="3" result="blur"/>
      <feFlood flood-opacity="0.161"/>
      <feComposite operator="in" in2="blur"/>
      <feComposite in="SourceGraphic"/>
    </filter>
  </defs>
  <g id="Group_1202755" data-name="Group 1202755" transform="translate(-1215.51 -2800)">
    <g id="Group_1202378" data-name="Group 1202378">
      <g id="Group_1202221" data-name="Group 1202221" transform="translate(1224.51 2806)">
        <g id="Group_1178824" data-name="Group 1178824">
          <g id="Group_1177679" data-name="Group 1177679">
            <g id="Group_1172010" data-name="Group 1172010">
              <g id="Group_1171046" data-name="Group 1171046">
                <g id="Group_1148525" data-name="Group 1148525">
                  <g transform="matrix(1, 0, 0, 1, -9, -6)" filter="url(#Path_982547)">
                    <g id="Path_982547-2" data-name="Path 982547" transform="translate(9 6)" fill="#fbedfe">
                      <path d="M 47.5 93.5 C 41.28937149047852 93.5 35.26533508300781 92.28397369384766 29.59518623352051 89.88570404052734 C 24.11771965026855 87.56893157958984 19.19813346862793 84.25196075439453 14.97309303283691 80.02691650390625 C 10.74804019927979 75.80186462402344 7.431066513061523 70.88229370117188 5.114293098449707 65.40481567382812 C 2.716026782989502 59.73468017578125 1.5 53.71062850952148 1.5 47.5 C 1.5 41.28937149047852 2.716026782989502 35.26533508300781 5.114293098449707 29.59518623352051 C 7.431066513061523 24.11771965026855 10.74804019927979 19.19813346862793 14.97309303283691 14.97309303283691 C 19.19813346862793 10.74804019927979 24.11771965026855 7.431066513061523 29.59518623352051 5.114293098449707 C 35.26533508300781 2.716026782989502 41.28937149047852 1.5 47.5 1.5 C 53.71062850952148 1.5 59.73468017578125 2.716026782989502 65.40481567382812 5.114293098449707 C 70.88229370117188 7.431066513061523 75.80186462402344 10.74804019927979 80.02691650390625 14.97309303283691 C 84.25196075439453 19.19813346862793 87.56893157958984 24.11771965026855 89.88570404052734 29.59518623352051 C 92.28397369384766 35.26533508300781 93.5 41.28937149047852 93.5 47.5 C 93.5 53.71062850952148 92.28397369384766 59.73468017578125 89.88570404052734 65.40481567382812 C 87.56893157958984 70.88229370117188 84.25196075439453 75.80186462402344 80.02691650390625 80.02691650390625 C 75.80186462402344 84.25196075439453 70.88229370117188 87.56893157958984 65.40481567382812 89.88570404052734 C 59.73468017578125 92.28397369384766 53.71062850952148 93.5 47.5 93.5 Z" stroke="none"/>
                      <path d="M 47.5 3 C 41.49121475219727 3 35.66376876831055 4.176155090332031 30.17950439453125 6.495796203613281 C 24.88084411621094 8.736953735351562 20.12152099609375 11.94598388671875 16.03375244140625 16.03375244140625 C 11.94598388671875 20.12152099609375 8.736953735351562 24.88084411621094 6.495796203613281 30.17950439453125 C 4.176155090332031 35.66376876831055 3 41.49121475219727 3 47.5 C 3 53.50878524780273 4.176155090332031 59.33623123168945 6.495796203613281 64.82049560546875 C 8.736953735351562 70.11915588378906 11.94598388671875 74.87847900390625 16.03375244140625 78.96624755859375 C 20.12152099609375 83.05401611328125 24.88084411621094 86.26304626464844 30.17950439453125 88.50419616699219 C 35.66376876831055 90.82384490966797 41.49121475219727 92 47.5 92 C 53.50878524780273 92 59.33623123168945 90.82384490966797 64.82049560546875 88.50419616699219 C 70.11915588378906 86.26304626464844 74.87847900390625 83.05401611328125 78.96624755859375 78.96624755859375 C 83.05401611328125 74.87847900390625 86.26304626464844 70.11915588378906 88.50419616699219 64.82049560546875 C 90.82384490966797 59.33623123168945 92 53.50878524780273 92 47.5 C 92 41.49121475219727 90.82384490966797 35.66376876831055 88.50419616699219 30.17950439453125 C 86.26304626464844 24.88084411621094 83.05401611328125 20.12152099609375 78.96624755859375 16.03375244140625 C 74.87847900390625 11.94598388671875 70.11915588378906 8.736953735351562 64.82049560546875 6.495796203613281 C 59.33623123168945 4.176155090332031 53.50878524780273 3 47.5 3 M 47.5 0 C 73.7335205078125 0 95 21.2664794921875 95 47.5 C 95 73.7335205078125 73.7335205078125 95 47.5 95 C 21.2664794921875 95 0 73.7335205078125 0 47.5 C 0 21.2664794921875 21.2664794921875 0 47.5 0 Z" stroke="none" fill="#7b3289"/>
                    </g>
                  </g>
                </g>
              </g>
            </g>
          </g>
        </g>
      </g>
      <g id="predictive-chart_6078880_1_" data-name="predictive-chart_6078880 (1)" transform="translate(1243.51 2824)">
        <path id="Path_1042349" data-name="Path 1042349" d="M51.342,44.016H3.827A1.827,1.827,0,0,1,2,42.189V3.827A1.827,1.827,0,0,1,3.827,2H49.5a1.827,1.827,0,0,1,1.827,1.827v40.2Z" transform="translate(-0.087 -0.087)" fill="#e2e7f6"/>
        <path id="Path_1042350" data-name="Path 1042350" d="M48.661,41.276V2H3.945A1.909,1.909,0,0,0,2,3.871V41.276Z" transform="translate(-0.087 -0.087)" fill="#f7fafd"/>
        <path id="Path_1042351" data-name="Path 1042351" d="M49.5,2H3.827A1.827,1.827,0,0,0,2,3.827v5.48H51.323V3.827A1.827,1.827,0,0,0,49.5,2Z" transform="translate(-0.087 -0.087)" fill="#3b5892"/>
        <path id="Path_1042352" data-name="Path 1042352" d="M8.2,17.492l6.934,5.944V32.57A9.134,9.134,0,0,1,8.2,17.492Z" transform="translate(-0.433 -1.428)" fill="#b52f28"/>
        <path id="Path_1042353" data-name="Path 1042353" d="M8.408,17.19l6.934,5.944h9.134A9.134,9.134,0,0,0,8.408,17.19Z" transform="translate(-0.642 -1.126)" fill="#f4a93c"/>
        <path id="Path_1042354" data-name="Path 1042354" d="M48.66,7.791V2H3.926A2.148,2.148,0,0,0,2,4.316V7.787Z" transform="translate(-0.086 -0.087)" fill="#4c6cb5"/>
        <path id="Path_1042355" data-name="Path 1042355" d="M54,26h7.307V58.882H54Z" transform="translate(-4.59 -2.165)" fill="#3b5892"/>
        <path id="Path_1042356" data-name="Path 1042356" d="M54,26h4.567V57.055H54Z" transform="translate(-4.59 -2.165)" fill="#4c6cb5"/>
        <path id="Path_1042357" data-name="Path 1042357" d="M42,32h7.307V59.4H42Z" transform="translate(-3.551 -2.685)" fill="#f4a93c"/>
        <path id="Path_1042358" data-name="Path 1042358" d="M42,32h5.48V57.575H42Z" transform="translate(-3.551 -2.685)" fill="#f6b940"/>
        <path id="Path_1042359" data-name="Path 1042359" d="M30,38h7.307V59.921H30Z" transform="translate(-2.512 -3.204)" fill="#b52f28"/>
        <path id="Path_1042360" data-name="Path 1042360" d="M30,38h5.48V58.095H30Z" transform="translate(-2.512 -3.204)" fill="#d23f34"/>
        <path id="Path_1042361" data-name="Path 1042361" d="M18,44h7.307V60.441H18Z" transform="translate(-1.472 -3.724)" fill="#4d8c28"/>
        <path id="Path_1042362" data-name="Path 1042362" d="M18,44h5.48V58.614H18Z" transform="translate(-1.472 -3.724)" fill="#559b2d"/>
        <path id="Path_1042363" data-name="Path 1042363" d="M5,5h5.48V6.827H5Z" transform="translate(-0.346 -0.346)" fill="#f7fafd"/>
        <path id="Path_1042364" data-name="Path 1042364" d="M13,5h1.827V6.827H13Z" transform="translate(-1.039 -0.346)" fill="#f7fafd"/>
        <path id="Path_1042365" data-name="Path 1042365" d="M36,14H48.788v3.654H36Z" transform="translate(-3.031 -1.126)" fill="#787faa"/>
        <path id="Path_1042366" data-name="Path 1042366" d="M36,14H47.874v2.74H36Z" transform="translate(-3.031 -1.126)" fill="#858bb5"/>
        <path id="Path_1042367" data-name="Path 1042367" d="M20,28v9.134A9.134,9.134,0,0,0,29.134,28Z" transform="translate(-1.646 -2.338)" fill="#3b5892"/>
        <path id="Path_1042368" data-name="Path 1042368" d="M27.124,28H20v7.124A9.142,9.142,0,0,0,27.124,28Z" transform="translate(-1.646 -2.338)" fill="#4c6cb5"/>
        <g id="Group_1202377" data-name="Group 1202377" transform="translate(32.969 19.268)">
          <path id="Path_1042369" data-name="Path 1042369" d="M36,21h9.134v1.827H36Z" transform="translate(-36 -21)" fill="#9da1bf"/>
          <path id="Path_1042370" data-name="Path 1042370" d="M48,21h1.827v1.827H48Z" transform="translate(-37.039 -21)" fill="#9da1bf"/>
          <path id="Path_1042371" data-name="Path 1042371" d="M36,25h9.134v1.827H36Z" transform="translate(-36 -21.346)" fill="#9da1bf"/>
          <path id="Path_1042372" data-name="Path 1042372" d="M48,25h1.827v1.827H48Z" transform="translate(-37.039 -21.346)" fill="#9da1bf"/>
        </g>
        <path id="Path_1042373" data-name="Path 1042373" d="M21.7,16.581a9.124,9.124,0,0,0-13.29.608l5.077,4.35H21.7Z" transform="translate(-0.641 -1.126)" fill="#f6b940"/>
        <path id="Path_1042374" data-name="Path 1042374" d="M8.2,17.492A9.134,9.134,0,0,0,9.386,30.53h3.921V21.871Z" transform="translate(-0.433 -1.428)" fill="#d23f34"/>
        <path id="Path_1042375" data-name="Path 1042375" d="M56.717,22.921H52.15V3.74A2.74,2.74,0,0,0,49.41,1H3.74A2.74,2.74,0,0,0,1,3.74V42.1a2.74,2.74,0,0,0,2.74,2.74H15.614V56.717a.913.913,0,0,0,.913.913h7.307a.913.913,0,0,0,.913-.913V44.843h1.827V56.717a.913.913,0,0,0,.913.913H34.8a.913.913,0,0,0,.913-.913V44.843h1.827V56.717a.913.913,0,0,0,.913.913h7.307a.913.913,0,0,0,.913-.913V44.843H48.5V56.717a.913.913,0,0,0,.913.913h7.307a.913.913,0,0,0,.913-.913V23.835A.913.913,0,0,0,56.717,22.921ZM3.74,2.827H49.41a.913.913,0,0,1,.913.913V8.307H2.827V3.74A.913.913,0,0,1,3.74,2.827ZM22.921,55.8h-5.48V41.189h5.48Zm10.961,0H28.4V35.709h5.48Zm10.961,0h-5.48V30.229h5.48ZM48.5,23.835V43.016H46.67v-13.7a.913.913,0,0,0-.913-.913H38.449a.913.913,0,0,0-.913.913v13.7H35.709V34.8a.913.913,0,0,0-.913-.913H27.488a.913.913,0,0,0-.913.913v8.221H24.748v-2.74a.913.913,0,0,0-.913-.913H16.528a.913.913,0,0,0-.913.913v2.74H3.74a.913.913,0,0,1-.913-.913V10.134h47.5V22.921H49.41A.913.913,0,0,0,48.5,23.835ZM55.8,55.8h-5.48V24.748H55.8Z" transform="translate(0)"/>
        <path id="Path_1042376" data-name="Path 1042376" d="M5,5h5.48V6.827H5Z" transform="translate(-0.346 -0.346)"/>
        <path id="Path_1042377" data-name="Path 1042377" d="M13,5h1.827V6.827H13Z" transform="translate(-1.039 -0.346)"/>
        <path id="Path_1042378" data-name="Path 1042378" d="M48.7,13H35.913a.913.913,0,0,0-.913.913v3.654a.913.913,0,0,0,.913.913H48.7a.913.913,0,0,0,.913-.913V13.913A.913.913,0,0,0,48.7,13Zm-.913,3.654H36.827V14.827H47.788Z" transform="translate(-2.945 -1.039)"/>
        <path id="Path_1042379" data-name="Path 1042379" d="M25.095,23.047A10.047,10.047,0,1,0,15.047,33.095a.913.913,0,0,0,.913-.913V23.961h8.221A.913.913,0,0,0,25.095,23.047Zm-18.268,0a8.168,8.168,0,0,1,1.427-4.621l5.88,5.04v7.75A8.232,8.232,0,0,1,6.827,23.047Zm8.558-.913L9.447,17.045a8.206,8.206,0,0,1,13.769,5.089Z" transform="translate(-0.346 -1.039)"/>
        <path id="Path_1042380" data-name="Path 1042380" d="M29.047,27H19.913a.913.913,0,0,0-.913.913v9.134a.913.913,0,0,0,.913.913A10.059,10.059,0,0,0,29.961,27.913.913.913,0,0,0,29.047,27Zm-8.221,9.083V28.827h7.256A8.235,8.235,0,0,1,20.827,36.083Z" transform="translate(-1.559 -2.252)"/>
        <path id="Path_1042381" data-name="Path 1042381" d="M36,21h9.134v1.827H36Z" transform="translate(-3.031 -1.732)"/>
        <path id="Path_1042382" data-name="Path 1042382" d="M48,21h1.827v1.827H48Z" transform="translate(-4.071 -1.732)"/>
        <path id="Path_1042383" data-name="Path 1042383" d="M36,25h9.134v1.827H36Z" transform="translate(-3.031 -2.079)"/>
        <path id="Path_1042384" data-name="Path 1042384" d="M48,25h1.827v1.827H48Z" transform="translate(-4.071 -2.079)"/>
      </g>
    </g>
  </g>
</svg>
