<svg xmlns="http://www.w3.org/2000/svg" xmlns:xlink="http://www.w3.org/1999/xlink" width="108" height="108" viewBox="0 0 108 108">
  <defs>
    <filter id="Path_904820" x="0" y="0" width="108" height="108" filterUnits="userSpaceOnUse">
      <feOffset dy="3" input="SourceAlpha"/>
      <feGaussianBlur stdDeviation="3" result="blur"/>
      <feFlood flood-opacity="0.161"/>
      <feComposite operator="in" in2="blur"/>
      <feComposite in="SourceGraphic"/>
    </filter>
  </defs>
  <g id="Group_1202731" data-name="Group 1202731" transform="translate(-630.5 -3940.335)">
    <g id="Group_1202079" data-name="Group 1202079" transform="translate(639.5 3946.335)">
      <g id="Group_1173585" data-name="Group 1173585" transform="translate(0 0)">
        <g id="Group_1173428" data-name="Group 1173428">
          <g id="Group_1171958" data-name="Group 1171958">
            <g id="Group_1167341" data-name="Group 1167341">
              <g id="Group_1166792" data-name="Group 1166792">
                <g transform="matrix(1, 0, 0, 1, -9, -6)" filter="url(#Path_904820)">
                  <g id="Path_904820-2" data-name="Path 904820" transform="translate(9 6)" fill="#fef9e7">
                    <path d="M 44.99999618530273 88.49999237060547 C 39.12687301635742 88.49999237060547 33.43022155761719 87.35006713867188 28.06829643249512 85.08216857910156 C 22.88852119445801 82.89130401611328 18.23629570007324 79.75457763671875 14.24084663391113 75.75914001464844 C 10.24540901184082 71.76369476318359 7.108683586120605 67.11146545410156 4.917821407318115 61.93169403076172 C 2.649921178817749 56.56976699829102 1.499996185302734 50.87311553955078 1.499996185302734 44.99999237060547 C 1.499996185302734 39.12686920166016 2.649921178817749 33.43021774291992 4.917821407318115 28.06829261779785 C 7.108683586120605 22.88851737976074 10.24540901184082 18.23630523681641 14.24084663391113 14.24085521697998 C 18.23629570007324 10.24540519714355 22.88852119445801 7.108692169189453 28.06829643249512 4.917829990386963 C 33.43022155761719 2.649929761886597 39.12687301635742 1.500004887580872 44.99999618530273 1.500004887580872 C 50.87311935424805 1.500004887580872 56.56977081298828 2.649929761886597 61.93169784545898 4.917829990386963 C 67.11147308349609 7.108692169189453 71.76369476318359 10.24540519714355 75.75914764404297 14.24085521697998 C 79.75458526611328 18.23630523681641 82.89131164550781 22.88851737976074 85.08216857910156 28.06829261779785 C 87.35007476806641 33.43021774291992 88.5 39.12686920166016 88.5 44.99999237060547 C 88.5 50.87311553955078 87.35007476806641 56.56976699829102 85.08216857910156 61.93169403076172 C 82.89131164550781 67.11146545410156 79.75458526611328 71.76369476318359 75.75914764404297 75.75914001464844 C 71.76369476318359 79.75457763671875 67.11147308349609 82.89130401611328 61.93169784545898 85.08216857910156 C 56.56977081298828 87.35006713867188 50.87311935424805 88.49999237060547 44.99999618530273 88.49999237060547 Z" stroke="none"/>
                    <path d="M 44.99999618530273 2.999992370605469 C 39.32870864868164 2.999992370605469 33.82865142822266 4.11004638671875 28.65262603759766 6.299331665039062 C 23.65165710449219 8.414566040039062 19.15968322753906 11.44333648681641 15.301513671875 15.30150604248047 C 11.44333648681641 19.15967559814453 8.414566040039062 23.65164947509766 6.299339294433594 28.65262222290039 C 4.110054016113281 33.82864761352539 2.999992370605469 39.32870483398438 2.999992370605469 44.99999237060547 C 2.999992370605469 50.67127990722656 4.110054016113281 56.17132186889648 6.299339294433594 61.34736633300781 C 8.414566040039062 66.34833526611328 11.44333648681641 70.84029388427734 15.301513671875 74.69846343994141 C 19.15968322753906 78.55663299560547 23.65165710449219 81.58540344238281 28.65262603759766 83.70063781738281 C 33.82865142822266 85.88992309570312 39.32870864868164 86.99997711181641 44.99999618530273 86.99997711181641 C 50.67128372192383 86.99997711181641 56.17134094238281 85.88992309570312 61.34736633300781 83.70063781738281 C 66.34834289550781 81.58540344238281 70.84030914306641 78.55663299560547 74.69847869873047 74.69846343994141 C 78.55665588378906 70.84029388427734 81.58542633056641 66.34833526611328 83.70065307617188 61.34736633300781 C 85.88993835449219 56.17132186889648 87 50.67127990722656 87 44.99999237060547 C 87 39.32870483398438 85.88993835449219 33.82864761352539 83.70065307617188 28.65262222290039 C 81.58542633056641 23.65164947509766 78.55665588378906 19.15967559814453 74.69847869873047 15.30150604248047 C 70.84030914306641 11.44333648681641 66.34834289550781 8.414566040039062 61.34736633300781 6.299331665039062 C 56.17134094238281 4.11004638671875 50.67128372192383 2.999992370605469 44.99999618530273 2.999992370605469 M 44.99999618530273 -7.62939453125e-06 C 69.85281372070312 -7.62939453125e-06 90 20.14717864990234 90 44.99999237060547 C 90 69.85279083251953 69.85281372070312 89.99997711181641 44.99999618530273 89.99997711181641 C 20.14717864990234 89.99997711181641 -7.62939453125e-06 69.85279083251953 -7.62939453125e-06 44.99999237060547 C -7.62939453125e-06 20.14717864990234 20.14717864990234 -7.62939453125e-06 44.99999618530273 -7.62939453125e-06 Z" stroke="none" fill="#887013"/>
                  </g>
                </g>
              </g>
            </g>
          </g>
        </g>
      </g>
      <g id="uncle_4598871" transform="translate(18.182 15.032)">
        <g id="Group_1202255" data-name="Group 1202255" transform="translate(0.831 0.831)">
          <path id="Path_1042054" data-name="Path 1042054" d="M172.624,293.714H148.87v-3.8a5.707,5.707,0,0,1,5.707-5.707h12.34a5.707,5.707,0,0,1,5.707,5.707v3.8Z" transform="translate(-134.76 -253.526)" fill="#d19a6e"/>
          <path id="Path_1042055" data-name="Path 1042055" d="M292.222,284.2H289.8a5.707,5.707,0,0,1,5.707,5.707v3.8h2.423v-3.8A5.707,5.707,0,0,0,292.222,284.2Z" transform="translate(-260.065 -253.526)" fill="#c38c66"/>
          <path id="Path_1042056" data-name="Path 1042056" d="M137.267,337.359V353.8H103.44V337.359l5.037-.926,7.745-1.424h8.264l5.323.978,2.422.446,2.614.48Z" transform="translate(-94.367 -298.7)" fill="#95d6a4"/>
          <path id="Path_1042057" data-name="Path 1042057" d="M346.318,344.756v16.887h-5.037V343.83l2.422.446Z" transform="translate(-305.839 -306.542)" fill="#78c2a4"/>
          <path id="Path_1042058" data-name="Path 1042058" d="M30.674,356.2l-2.934.715a6.891,6.891,0,0,0-4.725,5.591L21.6,372.642h9.073Z" transform="translate(-21.601 -317.542)" fill="#d19a6e"/>
          <path id="Path_1042059" data-name="Path 1042059" d="M81.583,356.791v15.851h2.423V356.2Z" transform="translate(-74.933 -317.542)" fill="#c38c66"/>
          <path id="Path_1042060" data-name="Path 1042060" d="M408.566,356.2l2.934.715a6.891,6.891,0,0,1,4.725,5.591l1.414,10.135h-9.073Z" transform="translate(-365.665 -317.542)" fill="#d19a6e"/>
          <path id="Path_1042061" data-name="Path 1042061" d="M416.225,362.506a6.89,6.89,0,0,0-4.725-5.591l-2.934-.715v.59l.511.125a6.89,6.89,0,0,1,4.725,5.591l1.414,10.135h2.423Z" transform="translate(-365.665 -317.541)" fill="#c38c66"/>
          <path id="Path_1042062" data-name="Path 1042062" d="M174.466,76.864V93.953a5.9,5.9,0,0,1-5.9,5.9H157.133a5.9,5.9,0,0,1-5.9-5.9V76.864Z" transform="translate(-136.864 -69.174)" fill="#ffe5c2"/>
          <path id="Path_1042063" data-name="Path 1042063" d="M291.617,76.864V93.953a5.9,5.9,0,0,1-5.9,5.9h2.423a5.9,5.9,0,0,0,5.9-5.9V76.864Z" transform="translate(-256.438 -69.174)" fill="#fed2a4"/>
          <path id="Path_1042064" data-name="Path 1042064" d="M110.609,147.651h-2.735a2.33,2.33,0,0,1-2.33-2.33v-2.356a2.33,2.33,0,0,1,2.33-2.33h2.735Z" transform="translate(-96.238 -125.876)" fill="#ffe5c2"/>
          <path id="Path_1042065" data-name="Path 1042065" d="M129.377,140.635H131.8v7.016h-2.423Z" transform="translate(-117.428 -125.875)" fill="#fed2a4"/>
          <path id="Path_1042066" data-name="Path 1042066" d="M363.507,147.651h-2.735v-7.016h2.735a2.33,2.33,0,0,1,2.33,2.33v2.356A2.33,2.33,0,0,1,363.507,147.651Z" transform="translate(-323.169 -125.875)" fill="#ffe5c2"/>
          <path id="Path_1042067" data-name="Path 1042067" d="M366.014,140.635h-2.423a2.33,2.33,0,0,1,2.33,2.33v2.356a2.33,2.33,0,0,1-2.33,2.33h2.423a2.33,2.33,0,0,0,2.33-2.33v-2.356A2.33,2.33,0,0,0,366.014,140.635Z" transform="translate(-325.676 -125.875)" fill="#fed2a4"/>
          <path id="Path_1042068" data-name="Path 1042068" d="M218.734,271.279H227v7.065l-4.132,2.874-4.132-2.874Z" transform="translate(-196.879 -242.035)" fill="#ffe5c2"/>
          <path id="Path_1042069" data-name="Path 1042069" d="M247.994,271.279v7.065l-2.92,2.031,1.211.843,4.132-2.874v-7.065Z" transform="translate(-220.298 -242.035)" fill="#fed2a4"/>
          <path id="Path_1042070" data-name="Path 1042070" d="M186.367,318.2v-2.1h-1.2a2.838,2.838,0,0,0-2.838,2.838l3.2,6.037a1.141,1.141,0,0,0,1.921.152l3.051-4.058Z" transform="translate(-164.511 -281.89)" fill="#95d6a4"/>
          <path id="Path_1042071" data-name="Path 1042071" d="M199.3,318.2v-2.1h-1.2a2.825,2.825,0,0,0-1.225.277V318.2l4.132,2.874-1.963,2.623a1.131,1.131,0,0,1-1.028.448l.441.834a1.141,1.141,0,0,0,1.921.152l3.051-4.058Z" transform="translate(-177.448 -281.89)" fill="#78c2a4"/>
          <path id="Path_1042072" data-name="Path 1042072" d="M260.132,318.2v-2.1h1.2a2.838,2.838,0,0,1,2.838,2.838l-3.2,6.037a1.141,1.141,0,0,1-1.921.152L256,321.074Z" transform="translate(-230.013 -281.89)" fill="#95d6a4"/>
          <path id="Path_1042073" data-name="Path 1042073" d="M281.286,316.1h-1.2v.277a2.838,2.838,0,0,1,1.613,2.56l-2.56,4.878a1.126,1.126,0,0,1-.7.562l.563.749a1.141,1.141,0,0,0,1.921-.152l3.2-6.037a2.838,2.838,0,0,0-2.838-2.838Z" transform="translate(-249.969 -281.889)" fill="#78c2a4"/>
          <path id="Path_1042074" data-name="Path 1042074" d="M174.457,15.143V20.98h-2.379a1.49,1.49,0,0,1-1.49-1.49A1.49,1.49,0,0,0,169.1,18H156.584a1.49,1.49,0,0,0-1.49,1.49,1.49,1.49,0,0,1-1.49,1.49h-2.379V9.544A2.044,2.044,0,0,1,153.269,7.5h5.164a2.043,2.043,0,0,1,1.638.821l1.453,1.945h8.058A4.877,4.877,0,0,1,174.457,15.143Z" transform="translate(-136.854 -7.5)" fill="#5d5360"/>
          <g id="Group_1202253" data-name="Group 1202253" transform="translate(14.371 0)">
            <path id="Path_1042075" data-name="Path 1042075" d="M152.672,103.7a1.489,1.489,0,0,1-1.447,1.488v0H153.6a1.49,1.49,0,0,0,1.49-1.49,1.49,1.49,0,0,1,1.49-1.49h-2.423A1.49,1.49,0,0,0,152.672,103.7Z" transform="translate(-151.225 -91.709)" fill="#4b3f4e"/>
            <path id="Path_1042076" data-name="Path 1042076" d="M196.022,8.321l1.453,1.945H199.9l-1.453-1.945a2.043,2.043,0,0,0-1.638-.821h-2.423A2.043,2.043,0,0,1,196.022,8.321Z" transform="translate(-189.599 -7.5)" fill="#4b3f4e"/>
            <path id="Path_1042077" data-name="Path 1042077" d="M297.361,32.45h-2.423a4.877,4.877,0,0,1,4.877,4.877v5.835l.043,0h2.379V37.327A4.877,4.877,0,0,0,297.361,32.45Z" transform="translate(-279.005 -29.684)" fill="#4b3f4e"/>
          </g>
          <path id="Path_1042078" data-name="Path 1042078" d="M174.466,195.062v.446a5.9,5.9,0,0,1-5.9,5.9H157.133a5.9,5.9,0,0,1-5.9-5.9v-.446l8.8-3.448a7.722,7.722,0,0,1,5.635,0Z" transform="translate(-136.864 -170.729)" fill="#5d5360"/>
          <path id="Path_1042079" data-name="Path 1042079" d="M249.122,191.626a7.717,7.717,0,0,0-4.029-.435,7.714,7.714,0,0,1,1.606.435l8.8,3.448v.447a5.9,5.9,0,0,1-5.9,5.9h2.423a5.9,5.9,0,0,0,5.9-5.9v-.447Z" transform="translate(-220.315 -170.741)" fill="#4b3f4e"/>
          <g id="Group_1202254" data-name="Group 1202254" transform="translate(9.073 37.733)">
            <path id="Path_1042080" data-name="Path 1042080" d="M368.168,348.773v16.442h-5.037V347.847Z" transform="translate(-334.34 -347.847)" fill="#d19a6e"/>
            <path id="Path_1042081" data-name="Path 1042081" d="M363.131,347.847v.445l2.614.48v16.442h2.423V348.773Z" transform="translate(-334.34 -347.847)" fill="#c38c66"/>
            <path id="Path_1042082" data-name="Path 1042082" d="M108.473,347.847v17.367h-5.037V348.773Z" transform="translate(-103.436 -347.847)" fill="#d19a6e"/>
            <path id="Path_1042083" data-name="Path 1042083" d="M127.017,348.292v16.922h2.423V347.847Z" transform="translate(-124.403 -347.847)" fill="#c38c66"/>
          </g>
        </g>
        <g id="Group_1202256" data-name="Group 1202256">
          <path id="Path_1042084" data-name="Path 1042084" d="M96.766,418.673a.832.832,0,0,0-.831.831v8.684a.831.831,0,0,0,1.663,0V419.5A.832.832,0,0,0,96.766,418.673Z" transform="translate(-86.862 -372.256)"/>
          <path id="Path_1042085" data-name="Path 1042085" d="M401.9,422.85a.831.831,0,0,0-.832.831V431.9a.831.831,0,0,0,1.663,0v-8.221A.831.831,0,0,0,401.9,422.85Z" transform="translate(-358.165 -375.97)"/>
          <path id="Path_1042086" data-name="Path 1042086" d="M426.334,369.4l-1.414-10.138a7.81,7.81,0,0,0-5.352-6.282l-1.12-.273a.831.831,0,1,0-.394,1.616l1.091.266a6.093,6.093,0,0,1,4.128,4.905l1.414,10.135a.831.831,0,1,0,1.647-.23Z" transform="translate(-372.705 -313.584)"/>
          <path id="Path_1042087" data-name="Path 1042087" d="M188.725,152.156a.832.832,0,0,0-.831.831v1.5a.831.831,0,1,0,1.663,0v-1.5A.832.832,0,0,0,188.725,152.156Z" transform="translate(-168.626 -135.287)"/>
          <path id="Path_1042088" data-name="Path 1042088" d="M309.939,155.316a.832.832,0,0,0,.831-.831v-1.5a.831.831,0,1,0-1.663,0v1.5A.832.832,0,0,0,309.939,155.316Z" transform="translate(-276.401 -135.287)"/>
          <path id="Path_1042089" data-name="Path 1042089" d="M230.791,223.659a3.51,3.51,0,0,0,3.023-1.7.831.831,0,1,0-1.422-.863,1.872,1.872,0,0,1-3.2,0,.831.831,0,0,0-1.422.863A3.51,3.51,0,0,0,230.791,223.659Z" transform="translate(-203.973 -196.226)"/>
          <path id="Path_1042090" data-name="Path 1042090" d="M55.991,38.306l-2.363-.434v-.656A6.544,6.544,0,0,0,50.067,31.4a6.731,6.731,0,0,0,3.3-5.786V23.439h1.9a3.165,3.165,0,0,0,3.161-3.161V17.922A3.165,3.165,0,0,0,55.27,14.76h-1.9V8.474a5.715,5.715,0,0,0-5.708-5.708H40.018l-1.2-1.611A2.888,2.888,0,0,0,36.511,0H31.347a2.879,2.879,0,0,0-2.875,2.875V14.76h-1.9a3.165,3.165,0,0,0-3.161,3.161v2.356a3.165,3.165,0,0,0,3.161,3.161h1.9v2.172a6.731,6.731,0,0,0,3.3,5.786,6.544,6.544,0,0,0-3.561,5.819v.656L20.875,39.4a7.81,7.81,0,0,0-5.352,6.284L14.109,55.817a.831.831,0,0,0,.709.938.84.84,0,0,0,.116.008.832.832,0,0,0,.823-.717L17.17,45.914A6.094,6.094,0,0,1,21.3,41.006l6.913-1.443V55.932a.831.831,0,0,0,1.663,0V39.257l2.429-.446,2.91,5.5a2,2,0,0,0,3.32.263L40.088,42.5V55.932a.831.831,0,1,0,1.663,0V42.5l1.555,2.068a2,2,0,0,0,3.32-.263l2.91-5.5,2.429.446V55.932a.831.831,0,1,0,1.663,0V39.563l2.062.379a.831.831,0,1,0,.3-1.636ZM53.367,16.423h1.9a1.5,1.5,0,0,1,1.5,1.5v2.356a1.5,1.5,0,0,1-1.5,1.5h-1.9ZM28.473,21.776h-1.9a1.5,1.5,0,0,1-1.5-1.5V17.922a1.5,1.5,0,0,1,1.5-1.5h1.9ZM47.089,32.34a4.929,4.929,0,0,1,4.876,5.227l-2.115-.389a3.757,3.757,0,0,0-3.967-2.964V32.34ZM34.857,30.664a5.1,5.1,0,0,1-4.718-4.933l8.268-3.24a6.976,6.976,0,0,1,5.028,0l8.265,3.24a5.1,5.1,0,0,1-5.052,4.946S35.2,30.683,34.857,30.664ZM44.22,32.34v4.366L40.92,39l-3.3-2.3V32.34ZM31.347,1.663h5.164a1.217,1.217,0,0,1,.972.487L38.935,4.1a.832.832,0,0,0,.666.334h8.058A4.081,4.081,0,0,1,51.7,8.522V13.48H50.157a.659.659,0,0,1-.659-.659A2.324,2.324,0,0,0,47.176,10.5H45.833a.831.831,0,1,0,0,1.663h1.343a.659.659,0,0,1,.659.659,2.324,2.324,0,0,0,2.322,2.322H51.7v8.8l-7.661-3a8.56,8.56,0,0,0-2.291-.55V18.971a.831.831,0,1,0-1.663,0v1.422a8.571,8.571,0,0,0-2.288.55l-7.664,3v-8.8h1.547A2.324,2.324,0,0,0,34,12.822a.659.659,0,0,1,.659-.659h7.278a.831.831,0,1,0,0-1.663H34.663a2.324,2.324,0,0,0-2.322,2.322.659.659,0,0,1-.659.659H30.136V2.875a1.213,1.213,0,0,1,1.212-1.212Zm3.4,30.677h1.206v1.874a3.764,3.764,0,0,0-3.967,2.964l-2.115.389A4.932,4.932,0,0,1,34.75,32.34ZM37.2,43.572a.31.31,0,0,1-.521-.041l-3.09-5.838a2.009,2.009,0,0,1,2-1.816h.366v1.265a.831.831,0,0,0,.357.683L39.736,40.2Zm7.953-.041a.31.31,0,0,1-.521.041L42.1,40.2l3.423-2.381a.831.831,0,0,0,.357-.683V35.877h.366a2.009,2.009,0,0,1,2,1.816Z" transform="translate(-14.101 0)"/>
          <circle id="Ellipse_12558" data-name="Ellipse 12558" cx="0.831" cy="0.831" r="0.831" transform="translate(29.833 47.734)"/>
          <circle id="Ellipse_12559" data-name="Ellipse 12559" cx="0.831" cy="0.831" r="0.831" transform="translate(29.833 51.605)"/>
        </g>
      </g>
    </g>
  </g>
</svg>
