<svg xmlns="http://www.w3.org/2000/svg" xmlns:xlink="http://www.w3.org/1999/xlink" width="113" height="113" viewBox="0 0 113 113">
  <defs>
    <filter id="Path_982547" x="0" y="0" width="113" height="113" filterUnits="userSpaceOnUse">
      <feOffset dy="3" input="SourceAlpha"/>
      <feGaussianBlur stdDeviation="3" result="blur"/>
      <feFlood flood-opacity="0.161"/>
      <feComposite operator="in" in2="blur"/>
      <feComposite in="SourceGraphic"/>
    </filter>
  </defs>
  <g id="Group_1202724" data-name="Group 1202724" transform="translate(-4348.49 -2700.023)">
    <g id="Group_1202326" data-name="Group 1202326">
      <g id="Group_1202075" data-name="Group 1202075" transform="translate(3555 324.215)">
        <g id="Group_1178713" data-name="Group 1178713" transform="translate(0 886.374)">
          <g id="Group_1176922" data-name="Group 1176922" transform="translate(802.49 1495.435)">
            <g id="Group_1172322" data-name="Group 1172322" transform="translate(0 0)">
              <g id="Group_1164700" data-name="Group 1164700">
                <g id="Group_1160931" data-name="Group 1160931">
                  <g id="Group_1160749" data-name="Group 1160749">
                    <g id="Group_1158891" data-name="Group 1158891">
                      <g id="Group_1157406" data-name="Group 1157406">
                        <g id="Group_1155793" data-name="Group 1155793">
                          <g id="Group_1154704" data-name="Group 1154704">
                            <g id="Group_1150790" data-name="Group 1150790">
                              <g id="Group_1154214" data-name="Group 1154214">
                                <g id="Group_1152583" data-name="Group 1152583">
                                  <g id="Group_1146973" data-name="Group 1146973">
                                    <g id="Group_1146954" data-name="Group 1146954">
                                      <g transform="matrix(1, 0, 0, 1, -9, -6)" filter="url(#Path_982547)">
                                        <g id="Path_982547-2" data-name="Path 982547" transform="translate(9 6)" fill="#fbedfe">
                                          <path d="M 47.5000114440918 93.49987030029297 C 41.28938293457031 93.49987030029297 35.26534652709961 92.28384399414062 29.5951976776123 89.88558959960938 C 24.11773109436035 87.56881713867188 19.19814491271973 84.25183868408203 14.97310447692871 80.02680206298828 C 10.74805164337158 75.80176544189453 7.43107795715332 70.88218688964844 5.114304542541504 65.40472412109375 C 2.716038227081299 59.73458862304688 1.500011444091797 53.71054840087891 1.500011444091797 47.49993515014648 C 1.500011444091797 41.28932189941406 2.716038227081299 35.26528167724609 5.114304542541504 29.59514808654785 C 7.43107795715332 24.1176815032959 10.74805164337158 19.1981086730957 14.97310447692871 14.97306823730469 C 19.19814491271973 10.74802875518799 24.11773109436035 7.431055068969727 29.5951976776123 5.11428165435791 C 35.26534652709961 2.716028451919556 41.28938293457031 1.500001788139343 47.5000114440918 1.500001788139343 C 53.71063995361328 1.500001788139343 59.73467636108398 2.716028451919556 65.40482330322266 5.11428165435791 C 70.88229370117188 7.431055068969727 75.8018798828125 10.74802875518799 80.02691650390625 14.97306823730469 C 84.25196838378906 19.1981086730957 87.56894683837891 24.1176815032959 89.88571929931641 29.59514808654785 C 92.28398132324219 35.26528167724609 93.50001525878906 41.28932189941406 93.50001525878906 47.49993515014648 C 93.50001525878906 53.71054840087891 92.28398132324219 59.73458862304688 89.88571929931641 65.40472412109375 C 87.56894683837891 70.88218688964844 84.25196838378906 75.80176544189453 80.02691650390625 80.02680206298828 C 75.8018798828125 84.25183868408203 70.88229370117188 87.56881713867188 65.40482330322266 89.88558959960938 C 59.73467636108398 92.28384399414062 53.71063995361328 93.49987030029297 47.5000114440918 93.49987030029297 Z" stroke="none"/>
                                          <path d="M 47.5000114440918 3 C 41.49122619628906 3 35.66378021240234 4.1761474609375 30.17951965332031 6.495796203613281 C 24.880859375 8.7369384765625 20.12153625488281 11.94596862792969 16.03376770019531 16.03373718261719 C 11.94598388671875 20.12149047851562 8.736968994140625 24.88081359863281 6.495811462402344 30.17947387695312 C 4.176162719726562 35.66371917724609 3.000007629394531 41.49116516113281 3.000007629394531 47.49993515014648 C 3.000007629394531 53.50870513916016 4.176162719726562 59.33615112304688 6.495811462402344 64.82039642333984 C 8.736968994140625 70.11905670166016 11.94598388671875 74.87837982177734 16.03376770019531 78.96613311767578 C 20.12153625488281 83.05390167236328 24.880859375 86.26293182373047 30.17951965332031 88.50407409667969 C 35.66378021240234 90.82372283935547 41.49122619628906 91.99987030029297 47.5000114440918 91.99987030029297 C 53.50879669189453 91.99987030029297 59.33624267578125 90.82372283935547 64.82050323486328 88.50407409667969 C 70.11916351318359 86.26293182373047 74.87848663330078 83.05390167236328 78.96625518798828 78.96613311767578 C 83.05403900146484 74.87837982177734 86.2630615234375 70.11905670166016 88.50421142578125 64.82039642333984 C 90.82386016845703 59.33615112304688 92.00001525878906 53.50870513916016 92.00001525878906 47.49993515014648 C 92.00001525878906 41.49116516113281 90.82386016845703 35.66371917724609 88.50421142578125 30.17947387695312 C 86.2630615234375 24.88081359863281 83.05403900146484 20.12149047851562 78.96625518798828 16.03373718261719 C 74.87848663330078 11.94596862792969 70.11916351318359 8.7369384765625 64.82050323486328 6.495796203613281 C 59.33624267578125 4.1761474609375 53.50879669189453 3 47.5000114440918 3 M 47.5000114440918 0 C 73.73353576660156 0 95.00001525878906 21.26644134521484 95.00001525878906 47.49993515014648 C 95.00001525878906 73.73342895507812 73.73353576660156 94.99987030029297 47.5000114440918 94.99987030029297 C 21.26648712158203 94.99987030029297 7.62939453125e-06 73.73342895507812 7.62939453125e-06 47.49993515014648 C 7.62939453125e-06 21.26644134521484 21.26648712158203 0 47.5000114440918 0 Z" stroke="none" fill="#7b3289"/>
                                        </g>
                                      </g>
                                    </g>
                                  </g>
                                </g>
                              </g>
                            </g>
                          </g>
                        </g>
                      </g>
                    </g>
                  </g>
                </g>
              </g>
            </g>
          </g>
        </g>
      </g>
      <g id="performance_2973348" transform="translate(4373 2722)">
        <g id="Group_1202324" data-name="Group 1202324">
          <g id="Group_1202303" data-name="Group 1202303">
            <path id="Path_1042140" data-name="Path 1042140" d="M38,46.04V56H32V44a2.006,2.006,0,0,0-2-2H25V41l.89-9.75A15.093,15.093,0,0,1,37.86,44,15.306,15.306,0,0,1,38,46.04Z" fill="#fcd770"/>
          </g>
          <g id="Group_1202304" data-name="Group 1202304">
            <path id="Path_1042141" data-name="Path 1042141" d="M18,60a2.006,2.006,0,0,0,2,2H8V56.41A11.9,11.9,0,0,0,13.96,58H18Z" fill="#fcd770"/>
          </g>
          <g id="Group_1202305" data-name="Group 1202305">
            <path id="Path_1042142" data-name="Path 1042142" d="M14,52v6h-.04A11.958,11.958,0,0,1,2,46.04,15.075,15.075,0,0,1,14.11,31.25L15,41l5-5,5,5v1H20a2.006,2.006,0,0,0-2,2v6h-.34a4,4,0,0,0-2.83,1.17Z" fill="#fcd770"/>
          </g>
          <g id="Group_1202306" data-name="Group 1202306">
            <path id="Path_1042143" data-name="Path 1042143" d="M25.89,31.25,25,41l-5-5,4-5A16.835,16.835,0,0,1,25.89,31.25Z" fill="#ffc729"/>
          </g>
          <g id="Group_1202307" data-name="Group 1202307">
            <path id="Path_1042144" data-name="Path 1042144" d="M16,31l4,5-5,5-.89-9.75A16.835,16.835,0,0,1,16,31Z" fill="#ffc729"/>
          </g>
          <g id="Group_1202308" data-name="Group 1202308">
            <path id="Path_1042145" data-name="Path 1042145" d="M62,2V44H37.86A15.093,15.093,0,0,0,25.89,31.25,16.835,16.835,0,0,0,24,31l-1-3-.01-.09A6,6,0,0,0,28,22h1a3,3,0,0,0,3-3,2.95,2.95,0,0,0-.85-2.08l.01-.01.76-5.32A9.388,9.388,0,0,0,32,10.4,8.4,8.4,0,0,0,23.6,2Z" fill="#e6e9ed"/>
          </g>
          <g id="Group_1202309" data-name="Group 1202309">
            <path id="Path_1042146" data-name="Path 1042146" d="M31.92,11.59l-.76,5.32-.01.01A2.925,2.925,0,0,0,29,16H28V13.24A3.613,3.613,0,0,0,26,10a2.006,2.006,0,0,1-2,2H21a5.01,5.01,0,0,1-4-2H16a4,4,0,0,0-4,4v2H11a2.984,2.984,0,0,0-2.13.89l-.74-5.35a7.878,7.878,0,0,1-.07-1.09v-.06A8.388,8.388,0,0,1,16.45,2H23.6A8.4,8.4,0,0,1,32,10.4a9.388,9.388,0,0,1-.08,1.19Z" fill="#656d78"/>
          </g>
          <g id="Group_1202310" data-name="Group 1202310">
            <path id="Path_1042147" data-name="Path 1042147" d="M44,14l5.66,5.66A8,8,0,0,1,36,14Z" fill="#b4dd7f"/>
          </g>
          <g id="Group_1202311" data-name="Group 1202311">
            <path id="Path_1042148" data-name="Path 1042148" d="M44,6a8,8,0,0,1,5.66,13.66L44,14Z" fill="#ef7385"/>
          </g>
          <g id="Group_1202312" data-name="Group 1202312">
            <path id="Path_1042149" data-name="Path 1042149" d="M44,6v8H36A8,8,0,0,1,44,6Z" fill="#fcd770"/>
          </g>
          <g id="Group_1202313" data-name="Group 1202313">
            <path id="Path_1042150" data-name="Path 1042150" d="M54,26h4V40H54Z" fill="#ffeaa7"/>
          </g>
          <g id="Group_1202314" data-name="Group 1202314">
            <path id="Path_1042151" data-name="Path 1042151" d="M46,30h4V40H46Z" fill="#ffeaa7"/>
          </g>
          <g id="Group_1202315" data-name="Group 1202315">
            <path id="Path_1042152" data-name="Path 1042152" d="M38,34h4v6H38Z" fill="#ffeaa7"/>
          </g>
          <g id="Group_1202316" data-name="Group 1202316">
            <path id="Path_1042153" data-name="Path 1042153" d="M38,56v6H30a2.006,2.006,0,0,0,2-2V56Z" fill="#f0d0b4"/>
          </g>
          <g id="Group_1202317" data-name="Group 1202317">
            <path id="Path_1042154" data-name="Path 1042154" d="M32,56v4a2.006,2.006,0,0,1-2,2H20a2.006,2.006,0,0,1-2-2V58a4,4,0,0,0,0-8V44a2.006,2.006,0,0,1,2-2H30a2.006,2.006,0,0,1,2,2Z" fill="#969faa"/>
          </g>
          <g id="Group_1202318" data-name="Group 1202318">
            <circle id="Ellipse_12569" data-name="Ellipse 12569" cx="2" cy="2" r="2" transform="translate(23 46)" fill="#69d6f4"/>
          </g>
          <g id="Group_1202319" data-name="Group 1202319">
            <path id="Path_1042155" data-name="Path 1042155" d="M18,50a4,4,0,1,1,0,8H14V52l.83-.83A4,4,0,0,1,17.66,50Z" fill="#f0d0b4"/>
          </g>
          <g id="Group_1202320" data-name="Group 1202320">
            <path id="Path_1042156" data-name="Path 1042156" d="M29,16a3.021,3.021,0,0,1,3,3,3,3,0,0,1-3,3H28V16Z" fill="#f0d0b4"/>
          </g>
          <g id="Group_1202321" data-name="Group 1202321">
            <path id="Path_1042157" data-name="Path 1042157" d="M23,28l1,3-4,5-4-5,1-3,.01-.09A5.361,5.361,0,0,0,18,28h4a5.361,5.361,0,0,0,.99-.09Z" fill="#f0d0b4"/>
          </g>
          <g id="Group_1202322" data-name="Group 1202322">
            <path id="Path_1042158" data-name="Path 1042158" d="M26,10a3.613,3.613,0,0,1,2,3.24V22a6,6,0,0,1-5.01,5.91A5.361,5.361,0,0,1,22,28H18a5.361,5.361,0,0,1-.99-.09A6,6,0,0,1,12,22V14a4,4,0,0,1,4-4h1a5.01,5.01,0,0,0,4,2h3A2.006,2.006,0,0,0,26,10Z" fill="#f0d0b4"/>
          </g>
          <g id="Group_1202323" data-name="Group 1202323">
            <path id="Path_1042159" data-name="Path 1042159" d="M12,16v6H11a3,3,0,0,1,0-6Z" fill="#f0d0b4"/>
          </g>
        </g>
        <g id="Group_1202325" data-name="Group 1202325">
          <path id="Path_1042160" data-name="Path 1042160" d="M25,49a1,1,0,0,1,0-2V45a3,3,0,1,0,3,3H26A1,1,0,0,1,25,49Z"/>
          <path id="Path_1042161" data-name="Path 1042161" d="M63,1H16.452a9.394,9.394,0,0,0-9.4,9.457,9.146,9.146,0,0,0,.088,1.223L7.823,16.6A3.951,3.951,0,0,0,7,19a4,4,0,0,0,4,4h.08a7.011,7.011,0,0,0,4.66,5.618l-.483,1.446A16.134,16.134,0,0,0,1,46.035,12.957,12.957,0,0,0,7,56.952V63H39V46.036c0-.349-.027-.692-.049-1.036H63ZM9,19a2,2,0,0,1,2-2v4A2,2,0,0,1,9,19Zm2-5v1a3.953,3.953,0,0,0-1.345.249l-.53-3.843A7.4,7.4,0,0,1,16.452,3H23.6A7.406,7.406,0,0,1,31,10.4a7.5,7.5,0,0,1-.074,1.046l-.545,3.811A3.963,3.963,0,0,0,29,15V13.236a4.589,4.589,0,0,0-2.061-3.841A3.005,3.005,0,0,0,24,7H23V9h1a1,1,0,0,1,0,2H21a4,4,0,0,1-4-4H15a5.957,5.957,0,0,0,.373,2.063A4.991,4.991,0,0,0,11,14Zm18,3a2,2,0,0,1,0,4ZM13,22V14a3,3,0,0,1,3-3h.54A5.98,5.98,0,0,0,21,13h3a3,3,0,0,0,2.474-1.307A2.584,2.584,0,0,1,27,13.236V22a5.006,5.006,0,0,1-5,5H18A5.006,5.006,0,0,1,13,22ZM37,55H33V44a3,3,0,0,0-3-3H26l.772-8.492A14.131,14.131,0,0,1,37,46.036ZM24.2,38.783,21.34,35.926l3.095-3.868c.124.013.247.028.37.045ZM18,29h4c.093,0,.183-.01.275-.014l.6,1.813L20,34.4l-2.879-3.6.6-1.813c.092,0,.182.014.275.014Zm.66,6.926L15.8,38.783,15.2,32.1c.123-.017.246-.031.37-.045ZM3,46.035A14.133,14.133,0,0,1,13.224,32.508L14.2,43.217l5.8-5.8L23.586,41H20a3,3,0,0,0-3,3v5.064a4.949,4.949,0,0,0-2.879,1.4l-.52.52A5.008,5.008,0,0,1,9,46V42H7v4a7.006,7.006,0,0,0,6,6.92v4.031A10.976,10.976,0,0,1,3,46.035ZM18,57H15V52.414l.535-.535A2.984,2.984,0,0,1,17.657,51H18a3,3,0,0,1,0,6ZM9,58.008A12.886,12.886,0,0,0,13.965,59H17v1a2.966,2.966,0,0,0,.184,1H9ZM20,61a1,1,0,0,1-1-1V58.9a5,5,0,0,0,0-9.8V44a1,1,0,0,1,1-1H30a1,1,0,0,1,1,1V60a1,1,0,0,1-1,1Zm12.816,0A2.966,2.966,0,0,0,33,60V57h4v4ZM61,43H38.707a15.84,15.84,0,0,0-.54-2H59V25H53V39H51V29H45V39H43V33H37v5.334a16.114,16.114,0,0,0-12.258-8.269l-.482-1.446A7.011,7.011,0,0,0,28.92,23H29a4,4,0,0,0,4-4,3.958,3.958,0,0,0-.794-2.368l.7-4.9A9.386,9.386,0,0,0,29.379,3H61ZM39,39V35h2v4Zm10,0H47V31h2Zm6,0V27h2V39Z"/>
          <path id="Path_1042162" data-name="Path 1042162" d="M44,23a9,9,0,1,0-9-9A9.01,9.01,0,0,0,44,23Zm-6.92-8h6.506l4.6,4.6A6.978,6.978,0,0,1,37.08,15ZM51,14a6.953,6.953,0,0,1-1.4,4.184l-4.6-4.6V7.08A7.006,7.006,0,0,1,51,14ZM43,7.08V13H37.08A7,7,0,0,1,43,7.08Z"/>
          <path id="Path_1042163" data-name="Path 1042163" d="M55,13h4v2H55Z"/>
          <path id="Path_1042164" data-name="Path 1042164" d="M55,17h4v2H55Z"/>
          <path id="Path_1042165" data-name="Path 1042165" d="M55,21h4v2H55Z"/>
          <path id="Path_1042166" data-name="Path 1042166" d="M55,9h4v2H55Z"/>
          <path id="Path_1042167" data-name="Path 1042167" d="M55,5h4V7H55Z"/>
          <circle id="Ellipse_12570" data-name="Ellipse 12570" cx="1" cy="1" r="1" transform="translate(15 15)"/>
          <circle id="Ellipse_12571" data-name="Ellipse 12571" cx="1" cy="1" r="1" transform="translate(23 15)"/>
          <path id="Path_1042168" data-name="Path 1042168" d="M25,21H23a2,2,0,0,1-2,2H17v2h4A4,4,0,0,0,25,21Z"/>
        </g>
      </g>
    </g>
  </g>
</svg>
