<svg xmlns="http://www.w3.org/2000/svg" xmlns:xlink="http://www.w3.org/1999/xlink" width="113" height="113" viewBox="0 0 113 113">
  <defs>
    <filter id="Path_982547" x="0" y="0" width="113" height="113" filterUnits="userSpaceOnUse">
      <feOffset dy="3" input="SourceAlpha"/>
      <feGaussianBlur stdDeviation="3" result="blur"/>
      <feFlood flood-opacity="0.161"/>
      <feComposite operator="in" in2="blur"/>
      <feComposite in="SourceGraphic"/>
    </filter>
  </defs>
  <g id="Group_1202727" data-name="Group 1202727" transform="translate(-4664.49 -3129.023)">
    <g id="Group_1202345" data-name="Group 1202345">
      <g id="Group_1202077" data-name="Group 1202077" transform="translate(3871 753.215)">
        <g id="Group_1178713" data-name="Group 1178713" transform="translate(0 886.374)">
          <g id="Group_1176922" data-name="Group 1176922" transform="translate(802.49 1495.435)">
            <g id="Group_1172322" data-name="Group 1172322" transform="translate(0 0)">
              <g id="Group_1164700" data-name="Group 1164700">
                <g id="Group_1160931" data-name="Group 1160931">
                  <g id="Group_1160749" data-name="Group 1160749">
                    <g id="Group_1158891" data-name="Group 1158891">
                      <g id="Group_1157406" data-name="Group 1157406">
                        <g id="Group_1155793" data-name="Group 1155793">
                          <g id="Group_1154704" data-name="Group 1154704">
                            <g id="Group_1150790" data-name="Group 1150790">
                              <g id="Group_1154214" data-name="Group 1154214">
                                <g id="Group_1152583" data-name="Group 1152583">
                                  <g id="Group_1146973" data-name="Group 1146973">
                                    <g id="Group_1146954" data-name="Group 1146954">
                                      <g transform="matrix(1, 0, 0, 1, -9, -6)" filter="url(#Path_982547)">
                                        <g id="Path_982547-2" data-name="Path 982547" transform="translate(9 6)" fill="#fbedfe">
                                          <path d="M 47.5000114440918 93.49987030029297 C 41.28938293457031 93.49987030029297 35.26534652709961 92.28384399414062 29.5951976776123 89.88558959960938 C 24.11773109436035 87.56881713867188 19.19814491271973 84.25183868408203 14.97310447692871 80.02680206298828 C 10.74805164337158 75.80176544189453 7.43107795715332 70.88218688964844 5.114304542541504 65.40472412109375 C 2.716038227081299 59.73458862304688 1.500011444091797 53.71054840087891 1.500011444091797 47.49993515014648 C 1.500011444091797 41.28932189941406 2.716038227081299 35.26528167724609 5.114304542541504 29.59514808654785 C 7.43107795715332 24.1176815032959 10.74805164337158 19.1981086730957 14.97310447692871 14.97306823730469 C 19.19814491271973 10.74802875518799 24.11773109436035 7.431055068969727 29.5951976776123 5.11428165435791 C 35.26534652709961 2.716028451919556 41.28938293457031 1.500001788139343 47.5000114440918 1.500001788139343 C 53.71063995361328 1.500001788139343 59.73467636108398 2.716028451919556 65.40482330322266 5.11428165435791 C 70.88229370117188 7.431055068969727 75.8018798828125 10.74802875518799 80.02691650390625 14.97306823730469 C 84.25196838378906 19.1981086730957 87.56894683837891 24.1176815032959 89.88571929931641 29.59514808654785 C 92.28398132324219 35.26528167724609 93.50001525878906 41.28932189941406 93.50001525878906 47.49993515014648 C 93.50001525878906 53.71054840087891 92.28398132324219 59.73458862304688 89.88571929931641 65.40472412109375 C 87.56894683837891 70.88218688964844 84.25196838378906 75.80176544189453 80.02691650390625 80.02680206298828 C 75.8018798828125 84.25183868408203 70.88229370117188 87.56881713867188 65.40482330322266 89.88558959960938 C 59.73467636108398 92.28384399414062 53.71063995361328 93.49987030029297 47.5000114440918 93.49987030029297 Z" stroke="none"/>
                                          <path d="M 47.5000114440918 3 C 41.49122619628906 3 35.66378021240234 4.1761474609375 30.17951965332031 6.495796203613281 C 24.880859375 8.7369384765625 20.12153625488281 11.94596862792969 16.03376770019531 16.03373718261719 C 11.94598388671875 20.12149047851562 8.736968994140625 24.88081359863281 6.495811462402344 30.17947387695312 C 4.176162719726562 35.66371917724609 3.000007629394531 41.49116516113281 3.000007629394531 47.49993515014648 C 3.000007629394531 53.50870513916016 4.176162719726562 59.33615112304688 6.495811462402344 64.82039642333984 C 8.736968994140625 70.11905670166016 11.94598388671875 74.87837982177734 16.03376770019531 78.96613311767578 C 20.12153625488281 83.05390167236328 24.880859375 86.26293182373047 30.17951965332031 88.50407409667969 C 35.66378021240234 90.82372283935547 41.49122619628906 91.99987030029297 47.5000114440918 91.99987030029297 C 53.50879669189453 91.99987030029297 59.33624267578125 90.82372283935547 64.82050323486328 88.50407409667969 C 70.11916351318359 86.26293182373047 74.87848663330078 83.05390167236328 78.96625518798828 78.96613311767578 C 83.05403900146484 74.87837982177734 86.2630615234375 70.11905670166016 88.50421142578125 64.82039642333984 C 90.82386016845703 59.33615112304688 92.00001525878906 53.50870513916016 92.00001525878906 47.49993515014648 C 92.00001525878906 41.49116516113281 90.82386016845703 35.66371917724609 88.50421142578125 30.17947387695312 C 86.2630615234375 24.88081359863281 83.05403900146484 20.12149047851562 78.96625518798828 16.03373718261719 C 74.87848663330078 11.94596862792969 70.11916351318359 8.7369384765625 64.82050323486328 6.495796203613281 C 59.33624267578125 4.1761474609375 53.50879669189453 3 47.5000114440918 3 M 47.5000114440918 0 C 73.73353576660156 0 95.00001525878906 21.26644134521484 95.00001525878906 47.49993515014648 C 95.00001525878906 73.73342895507812 73.73353576660156 94.99987030029297 47.5000114440918 94.99987030029297 C 21.26648712158203 94.99987030029297 7.62939453125e-06 73.73342895507812 7.62939453125e-06 47.49993515014648 C 7.62939453125e-06 21.26644134521484 21.26648712158203 0 47.5000114440918 0 Z" stroke="none" fill="#7b3289"/>
                                        </g>
                                      </g>
                                    </g>
                                  </g>
                                </g>
                              </g>
                            </g>
                          </g>
                        </g>
                      </g>
                    </g>
                  </g>
                </g>
              </g>
            </g>
          </g>
        </g>
      </g>
      <g id="kanban-board_18502341" transform="translate(4677.234 3133.71)">
        <g id="Group_1202344" data-name="Group 1202344" transform="translate(16 21.72)">
          <path id="Path_1042206" data-name="Path 1042206" d="M68.082,68.835a.737.737,0,0,1,.415.212l2.8,2.8a.739.739,0,0,1,0,1.041l-2.8,2.8a.738.738,0,0,1-.522.216H27.8a.739.739,0,0,1-.518-1.265l1.1-1.1h-9.65A2.739,2.739,0,0,1,16,70.807V24.453a2.739,2.739,0,0,1,2.733-2.733H65.351a2.739,2.739,0,0,1,2.732,2.733Z" transform="translate(-16 -21.72)" fill-rule="evenodd"/>
          <path id="Path_1042207" data-name="Path 1042207" d="M39.953,45.712V34.5H30.035a1.259,1.259,0,0,0-1.255,1.255v9.958Zm-9.284-8.353h7.4a.74.74,0,0,1,.739.739v4.017a.74.74,0,0,1-.739.739h-7.4a.739.739,0,0,1-.739-.739V38.1A.739.739,0,0,1,30.669,37.359Z" transform="translate(-27.302 -33.022)" fill="#0c9198" fill-rule="evenodd"/>
          <path id="Path_1042208" data-name="Path 1042208" d="M149.343,45.712V34.5H138.17V45.712Zm-9.284-8.353h7.4a.739.739,0,0,1,.739.739v4.017a.739.739,0,0,1-.739.739h-7.4a.739.739,0,0,1-.739-.739V38.1A.739.739,0,0,1,140.059,37.359Z" transform="translate(-124.041 -33.022)" fill="#0c9198" fill-rule="evenodd"/>
          <path id="Path_1042209" data-name="Path 1042209" d="M258.734,45.712V34.5H247.56V45.712Zm-9.286-8.353h7.4a.739.739,0,0,1,.739.739v4.017a.739.739,0,0,1-.739.739h-7.4a.739.739,0,0,1-.739-.739V38.1a.739.739,0,0,1,.739-.739Z" transform="translate(-220.78 -33.022)" fill="#0c9198" fill-rule="evenodd"/>
          <path id="Path_1042210" data-name="Path 1042210" d="M357,34.5V45.712h11.174V35.755a1.261,1.261,0,0,0-1.261-1.255Zm1.889,2.859h7.4a.739.739,0,0,1,.739.739v4.017a.739.739,0,0,1-.739.739h-7.4a.739.739,0,0,1-.739-.739V38.1a.739.739,0,0,1,.733-.739Z" transform="translate(-317.563 -33.022)" fill="#0c9198" fill-rule="evenodd"/>
          <path id="Path_1042211" data-name="Path 1042211" d="M254.328,156.908a.7.7,0,0,1,.13.012,13.618,13.618,0,0,1,4.279,1.118V144.23H247.56v13.823A13.7,13.7,0,0,1,254.328,156.908Zm-4.13-9.167h5.9a.739.739,0,0,1,.739.739v5.9a.739.739,0,0,1-.739.739h-5.9a.739.739,0,0,1-.737-.737v-5.9A.739.739,0,0,1,250.2,147.741Z" transform="translate(-220.78 -130.062)" fill="#f2f2f2" fill-rule="evenodd"/>
          <path id="Path_1042212" data-name="Path 1042212" d="M208.635,270.4l-1.56-1.56a.739.739,0,0,1,0-1.041l1.53-1.531a12.235,12.235,0,0,0-10.775,7.682l1.4,2.429,2.753-1.589a.442.442,0,0,1,.02-.04A8.113,8.113,0,0,1,208.635,270.4Z" transform="translate(-176.801 -237.987)" fill="#ef6262" fill-rule="evenodd"/>
          <path id="Path_1042213" data-name="Path 1042213" d="M246.65,314.74a.891.891,0,0,1-.108-.02,6.617,6.617,0,0,0-7.02,3.463.694.694,0,0,1-.061.1.743.743,0,0,1-.04.106,6.616,6.616,0,1,0,7.228-3.651ZM247.9,318.5a.737.737,0,0,1,1.079,1l-4.163,4.473a.737.737,0,0,1-1.119-.045l-1.889-2.1a.736.736,0,1,1,1.091-.987l1.388,1.538Z" transform="translate(-213.009 -280.746)" fill="#0c9198" fill-rule="evenodd"/>
          <path id="Path_1042214" data-name="Path 1042214" d="M299.936,278.469l1.56-1.56a.739.739,0,0,1,1.041,0l1.528,1.528A12.228,12.228,0,0,0,293.3,266.88l-1.979,1.98,2.246,2.246a8.09,8.09,0,0,1,6.37,7.36Z" transform="translate(-259.479 -238.527)" fill="#ffab3c" fill-rule="evenodd"/>
          <path id="Path_1042215" data-name="Path 1042215" d="M349.55,445.938h13.089l2.064-2.063-2.064-2.064h-8.229A13.728,13.728,0,0,1,349.55,445.938Z" transform="translate(-310.974 -393.226)" fill="#0a5f80" fill-rule="evenodd"/>
          <path id="Path_1042216" data-name="Path 1042216" d="M152.231,375.784h-18.8l1.542,1.542a.739.739,0,0,1,0,1.041l-1.542,1.545h18.8a12.22,12.22,0,0,0,12.143-10.782l-1.98-1.98-2.244,2.242A8.1,8.1,0,0,1,152.231,375.784Z" transform="translate(-119.849 -327.201)" fill="#3096ea" fill-rule="evenodd"/>
          <path id="Path_1042217" data-name="Path 1042217" d="M192.273,358.535h5.617a8.085,8.085,0,0,1-3.276-8.179l-1.915,1.106a.738.738,0,0,1-1.007-.268l-1.081-1.874a12.23,12.23,0,0,0,1.663,9.215Z" transform="translate(-170.169 -311.433)" fill="#0a5f80" fill-rule="evenodd"/>
          <path id="Path_1042218" data-name="Path 1042218" d="M39.953,179.805l-1.376-1.376a.739.739,0,0,1,.522-1.265h.854V144.23H28.78v34.919a1.259,1.259,0,0,0,1.255,1.254h9.918v-.6Zm-8.536-32.064h5.9a.739.739,0,0,1,.742.741v5.9a.739.739,0,0,1-.739.739h-5.9a.739.739,0,0,1-.741-.739v-5.9a.739.739,0,0,1,.738-.739Zm0,10.887h5.9a.739.739,0,0,1,.739.739v5.9a.739.739,0,0,1-.739.739h-5.9a.739.739,0,0,1-.738-.739v-5.9a.739.739,0,0,1,.738-.739Zm0,10.887h5.9a.739.739,0,0,1,.739.739v5.9a.739.739,0,0,1-.739.739h-5.9a.739.739,0,0,1-.738-.739v-5.9a.739.739,0,0,1,.738-.739Z" transform="translate(-27.302 -130.062)" fill="#f2f2f2" fill-rule="evenodd"/>
        </g>
        <path id="Path_1042219" data-name="Path 1042219" d="M51.49,72h5.92v2.539H51.49Z" transform="translate(-31.386 -44.465)" fill="#0a5f80"/>
        <path id="Path_1042220" data-name="Path 1042220" d="M160.88,72h5.92v2.539h-5.92Z" transform="translate(-128.124 -44.465)" fill="#ffab3c"/>
        <path id="Path_1042221" data-name="Path 1042221" d="M270.27,72h5.92v2.539h-5.92Z" transform="translate(-224.863 -44.465)" fill="#378fef"/>
        <path id="Path_1042222" data-name="Path 1042222" d="M379.67,72h5.92v2.539h-5.92Z" transform="translate(-321.611 -44.465)" fill="#ef6262"/>
        <path id="Path_1042223" data-name="Path 1042223" d="M57.97,187.36h4.421v4.421H57.97Z" transform="translate(-37.116 -146.484)" fill="#0a5f80"/>
        <path id="Path_1042224" data-name="Path 1042224" d="M57.97,281.51h4.421v4.421H57.97Z" transform="translate(-37.116 -229.745)" fill="#0a5f80"/>
        <path id="Path_1042225" data-name="Path 1042225" d="M57.97,375.65h4.421v4.421H57.97Z" transform="translate(-37.116 -312.998)" fill="#0a5f80"/>
        <path id="Path_1042226" data-name="Path 1042226" d="M167.36,187.36h4.421v4.421H167.36Z" transform="translate(-133.855 -146.484)" fill="#ffab3c"/>
        <path id="Path_1042227" data-name="Path 1042227" d="M171.781,283.109v-1.6H167.36v4.42h2.574A13.747,13.747,0,0,1,171.781,283.109Z" transform="translate(-133.855 -229.745)" fill="#ffab3c" fill-rule="evenodd"/>
        <path id="Path_1042228" data-name="Path 1042228" d="M143.5,166h-2.69a.739.739,0,0,1-.738-.739v-5.9a.739.739,0,0,1,.738-.739h5.9a.739.739,0,0,1,.739.739v.842a13.633,13.633,0,0,1,1.9-1.382v-14.6H138.17v32.934h6.26A13.716,13.716,0,0,1,143.5,166Zm-2.69-18.264h5.9a.739.739,0,0,1,.739.739v5.9a.739.739,0,0,1-.739.739h-5.9a.739.739,0,0,1-.738-.739v-5.9a.739.739,0,0,1,.738-.741Z" transform="translate(-108.041 -108.342)" fill="#f2f2f2" fill-rule="evenodd"/>
        <path id="Path_1042229" data-name="Path 1042229" d="M276.75,187.36h4.421v4.421H276.75Z" transform="translate(-230.594 -146.484)" fill="#378fef"/>
        <path id="Path_1042230" data-name="Path 1042230" d="M386.14,187.36h4.421v4.421H386.14Z" transform="translate(-327.333 -146.484)" fill="#ef6262"/>
        <path id="Path_1042231" data-name="Path 1042231" d="M388.02,285.93h2.544v-4.42H386.14v1.56A13.711,13.711,0,0,1,388.02,285.93Z" transform="translate(-327.333 -229.745)" fill="#ef6262" fill-rule="evenodd"/>
        <path id="Path_1042232" data-name="Path 1042232" d="M358.893,160.182v-.81a.739.739,0,0,1,.739-.739h5.9a.739.739,0,0,1,.739.739v5.9a.739.739,0,0,1-.739.739h-2.66a13.726,13.726,0,0,1-.925,11.164h6.224V144.23H357V158.8a13.766,13.766,0,0,1,1.9,1.375Zm.739-12.441h5.9a.739.739,0,0,1,.739.739v5.9a.739.739,0,0,1-.739.739h-5.9a.739.739,0,0,1-.739-.739v-5.9a.739.739,0,0,1,.739-.741Z" transform="translate(-301.563 -108.342)" fill="#f2f2f2" fill-rule="evenodd"/>
      </g>
    </g>
  </g>
</svg>
