<svg xmlns="http://www.w3.org/2000/svg" xmlns:xlink="http://www.w3.org/1999/xlink" width="113" height="113" viewBox="0 0 113 113">
  <defs>
    <filter id="Path_982547" x="0" y="0" width="113" height="113" filterUnits="userSpaceOnUse">
      <feOffset dy="3" input="SourceAlpha"/>
      <feGaussianBlur stdDeviation="3" result="blur"/>
      <feFlood flood-opacity="0.161"/>
      <feComposite operator="in" in2="blur"/>
      <feComposite in="SourceGraphic"/>
    </filter>
    <clipPath id="clip-path">
      <path id="path3654" d="M0-682.665H60.322v60.322H0Z" transform="translate(0 682.665)"/>
    </clipPath>
  </defs>
  <g id="Group_1202754" data-name="Group 1202754" transform="translate(-900.875 -2800)">
    <g id="Group_1202376" data-name="Group 1202376">
      <g id="Group_1202220" data-name="Group 1202220" transform="translate(909.875 2806)">
        <g id="Group_1178824" data-name="Group 1178824">
          <g id="Group_1177679" data-name="Group 1177679">
            <g id="Group_1172010" data-name="Group 1172010">
              <g id="Group_1171046" data-name="Group 1171046">
                <g id="Group_1148525" data-name="Group 1148525">
                  <g transform="matrix(1, 0, 0, 1, -9, -6)" filter="url(#Path_982547)">
                    <g id="Path_982547-2" data-name="Path 982547" transform="translate(9 6)" fill="#fbedfe">
                      <path d="M 47.5 93.5 C 41.28937149047852 93.5 35.26533508300781 92.28397369384766 29.59518623352051 89.88570404052734 C 24.11771965026855 87.56893157958984 19.19813346862793 84.25196075439453 14.97309303283691 80.02691650390625 C 10.74804019927979 75.80186462402344 7.431066513061523 70.88229370117188 5.114293098449707 65.40481567382812 C 2.716026782989502 59.73468017578125 1.5 53.71062850952148 1.5 47.5 C 1.5 41.28937149047852 2.716026782989502 35.26533508300781 5.114293098449707 29.59518623352051 C 7.431066513061523 24.11771965026855 10.74804019927979 19.19813346862793 14.97309303283691 14.97309303283691 C 19.19813346862793 10.74804019927979 24.11771965026855 7.431066513061523 29.59518623352051 5.114293098449707 C 35.26533508300781 2.716026782989502 41.28937149047852 1.5 47.5 1.5 C 53.71062850952148 1.5 59.73468017578125 2.716026782989502 65.40481567382812 5.114293098449707 C 70.88229370117188 7.431066513061523 75.80186462402344 10.74804019927979 80.02691650390625 14.97309303283691 C 84.25196075439453 19.19813346862793 87.56893157958984 24.11771965026855 89.88570404052734 29.59518623352051 C 92.28397369384766 35.26533508300781 93.5 41.28937149047852 93.5 47.5 C 93.5 53.71062850952148 92.28397369384766 59.73468017578125 89.88570404052734 65.40481567382812 C 87.56893157958984 70.88229370117188 84.25196075439453 75.80186462402344 80.02691650390625 80.02691650390625 C 75.80186462402344 84.25196075439453 70.88229370117188 87.56893157958984 65.40481567382812 89.88570404052734 C 59.73468017578125 92.28397369384766 53.71062850952148 93.5 47.5 93.5 Z" stroke="none"/>
                      <path d="M 47.5 3 C 41.49121475219727 3 35.66376876831055 4.176155090332031 30.17950439453125 6.495796203613281 C 24.88084411621094 8.736953735351562 20.12152099609375 11.94598388671875 16.03375244140625 16.03375244140625 C 11.94598388671875 20.12152099609375 8.736953735351562 24.88084411621094 6.495796203613281 30.17950439453125 C 4.176155090332031 35.66376876831055 3 41.49121475219727 3 47.5 C 3 53.50878524780273 4.176155090332031 59.33623123168945 6.495796203613281 64.82049560546875 C 8.736953735351562 70.11915588378906 11.94598388671875 74.87847900390625 16.03375244140625 78.96624755859375 C 20.12152099609375 83.05401611328125 24.88084411621094 86.26304626464844 30.17950439453125 88.50419616699219 C 35.66376876831055 90.82384490966797 41.49121475219727 92 47.5 92 C 53.50878524780273 92 59.33623123168945 90.82384490966797 64.82049560546875 88.50419616699219 C 70.11915588378906 86.26304626464844 74.87847900390625 83.05401611328125 78.96624755859375 78.96624755859375 C 83.05401611328125 74.87847900390625 86.26304626464844 70.11915588378906 88.50419616699219 64.82049560546875 C 90.82384490966797 59.33623123168945 92 53.50878524780273 92 47.5 C 92 41.49121475219727 90.82384490966797 35.66376876831055 88.50419616699219 30.17950439453125 C 86.26304626464844 24.88084411621094 83.05401611328125 20.12152099609375 78.96624755859375 16.03375244140625 C 74.87847900390625 11.94598388671875 70.11915588378906 8.736953735351562 64.82049560546875 6.495796203613281 C 59.33623123168945 4.176155090332031 53.50878524780273 3 47.5 3 M 47.5 0 C 73.7335205078125 0 95 21.2664794921875 95 47.5 C 95 73.7335205078125 73.7335205078125 95 47.5 95 C 21.2664794921875 95 0 73.7335205078125 0 47.5 C 0 21.2664794921875 21.2664794921875 0 47.5 0 Z" stroke="none" fill="#7b3289"/>
                    </g>
                  </g>
                </g>
              </g>
            </g>
          </g>
        </g>
      </g>
      <g id="g3648" transform="translate(927.214 3506.004)">
        <g id="g3650" transform="translate(0 -682.665)">
          <g id="g3652" clip-path="url(#clip-path)">
            <g id="g3658" transform="translate(1.178 7.305)">
              <path id="path3660" d="M-25.74,0a2.5,2.5,0,0,0-2.495,2.495V37.7H29.731V2.495A2.5,2.5,0,0,0,27.236,0Z" transform="translate(28.235)" fill="#fff" fill-rule="evenodd"/>
            </g>
            <g id="g3662" transform="translate(1.178 45.005)">
              <path id="path3664" d="M-299.018,0H-328V2.218a2.5,2.5,0,0,0,2.495,2.495h52.976a2.5,2.5,0,0,0,2.495-2.495V0Z" transform="translate(328)" fill="#9ea6bf" fill-rule="evenodd"/>
            </g>
            <g id="g3666" transform="translate(24.27 49.718)">
              <path id="path3668" d="M-12.155,0l-1.178,9.425H-1.552L-2.73,0Z" transform="translate(13.333)" fill="#8690af" fill-rule="evenodd"/>
            </g>
            <g id="g3670" transform="translate(30.161 1.178)">
              <path id="path3672" d="M0,0V4.713a9.425,9.425,0,0,1,9.425,9.425A9.425,9.425,0,0,1,0,23.563v4.713A14.138,14.138,0,0,0,14.138,14.138,14.138,14.138,0,0,0,0,0" fill="#c68a65" fill-rule="evenodd"/>
            </g>
            <g id="g3674" transform="translate(30.161 5.891)">
              <path id="path3676" d="M-97.241-97.241a9.425,9.425,0,0,0-9.425-9.425v4.713a4.713,4.713,0,0,1,4.713,4.713,4.713,4.713,0,0,1-4.713,4.713v4.713a9.425,9.425,0,0,0,9.425-9.425" transform="translate(106.666 106.666)" fill="#ffc144" fill-rule="evenodd"/>
            </g>
            <g id="g3678" transform="translate(30.161 10.603)">
              <path id="path3680" d="M-48.621-48.621a4.713,4.713,0,0,0-4.713-4.713v9.425a4.713,4.713,0,0,0,4.713-4.713" transform="translate(53.333 53.333)" fill="#ff5d7d" fill-rule="evenodd"/>
            </g>
            <g id="g3682" transform="translate(16.023 6.576)">
              <path id="path3684" d="M0-90.164a14.129,14.129,0,0,0,.658,4.277L.679-85.9c.853-.53,2.921,1.092,3.915,1.484,1.9.752,3.083,1.013,4.436.251,1.964-1.105.784-3.152-.282-4.284-1.117-1.186-3.311.1-3.855-.949-1.469-2.829.752-3.255,2.38-3.921,2.231-.914,1.987-3.44.128-3.726-.774-.119-1.687.04-2.234-.018-1.441-.154-1.576-.81-2.144-1.84A14.077,14.077,0,0,0,0-90.164" transform="translate(0 98.904)" fill="#cbe558" fill-rule="evenodd"/>
            </g>
            <g id="g3686" transform="translate(16.681 1.178)">
              <path id="path3688" d="M-68.243-113.318c-1.627.666-3.848,1.092-2.38,3.921.544,1.047,2.738-.237,3.855.949,1.066,1.132,2.247,3.179.282,4.284-1.353.762-2.532.5-4.436-.251-.994-.393-3.063-2.014-3.915-1.484l-.021.012a14.144,14.144,0,0,0,13.48,9.861V-124.3a14.112,14.112,0,0,0-11.114,5.4c.568,1.031.7,1.686,2.144,1.84.546.058,1.46-.1,2.234.018,1.859.287,2.1,2.813-.128,3.726" transform="translate(74.857 124.301)" fill="#60a4ff" fill-rule="evenodd"/>
            </g>
            <g id="g3690" transform="translate(1.178 7.305)">
              <path id="path3692" d="M-419.888,0h14.772a2.5,2.5,0,0,1,2.495,2.495V39.919a2.5,2.5,0,0,1-2.495,2.495h-52.976a2.5,2.5,0,0,1-2.495-2.495V2.495A2.5,2.5,0,0,1-458.092,0h14.838" transform="translate(460.587 0)" fill="none" stroke="#000" stroke-linecap="round" stroke-linejoin="round" stroke-miterlimit="22.926" stroke-width="1"/>
            </g>
            <g id="g3694" transform="translate(19.557 50.037)">
              <path id="path3696" d="M-49.09-90.211-48-98.954m15.356,9.106H-53.848m15.365-9.037,1.08,8.639" transform="translate(53.848 98.954)" fill="none" stroke="#000" stroke-linecap="round" stroke-linejoin="round" stroke-miterlimit="22.926" stroke-width="1"/>
            </g>
            <g id="g3698" transform="translate(2.356 45.005)">
              <path id="path3700" d="M0,0H55.609" fill="none" stroke="#000" stroke-linecap="round" stroke-linejoin="round" stroke-miterlimit="22.926" stroke-width="1"/>
            </g>
            <g id="g3702" transform="translate(16.023 1.178)">
              <path id="path3704" d="M-145.862-291.723a14.165,14.165,0,0,0,14.138-14.138A14.165,14.165,0,0,0-145.862-320,14.165,14.165,0,0,0-160-305.861,14.165,14.165,0,0,0-145.862-291.723Z" transform="translate(160 319.999)" fill="none" stroke="#000" stroke-linecap="round" stroke-linejoin="round" stroke-miterlimit="2.613" stroke-width="1"/>
            </g>
            <g id="g3706" transform="translate(30.325 5.892)">
              <path id="path3708" d="M0-194.453a9.425,9.425,0,0,0,9.261-9.424A9.425,9.425,0,0,0,0-213.3" transform="translate(0 213.301)" fill="none" stroke="#000" stroke-linecap="round" stroke-linejoin="round" stroke-miterlimit="2.613" stroke-width="1"/>
            </g>
            <g id="g3710" transform="translate(30.243 10.604)">
              <path id="path3712" d="M0-97.227a4.713,4.713,0,0,0,4.63-4.712A4.713,4.713,0,0,0,0-106.65" transform="translate(0 106.65)" fill="none" stroke="#000" stroke-linecap="round" stroke-linejoin="round" stroke-miterlimit="2.613" stroke-width="1"/>
            </g>
            <g id="g3714" transform="translate(16.725 6.629)">
              <path id="path3716" d="M-24.25,0c.544,1,.7,1.636,2.115,1.788.546.058,1.46-.1,2.234.018,1.859.287,2.1,2.813-.128,3.726-1.627.666-3.848,1.092-2.38,3.921.544,1.047,2.738-.237,3.855.949,1.066,1.132,2.247,3.179.282,4.284-1.353.762-2.532.5-4.436-.251-.985-.389-3.026-1.986-3.892-1.5" transform="translate(26.6)" fill="none" stroke="#000" stroke-linecap="round" stroke-linejoin="round" stroke-miterlimit="2.613" stroke-width="1"/>
            </g>
            <g id="g3718" transform="translate(30.161 1.279)">
              <path id="path3720" d="M0,0V28.073" fill="none" stroke="#000" stroke-linecap="round" stroke-linejoin="round" stroke-miterlimit="2.613" stroke-width="1"/>
            </g>
            <g id="g3722" transform="translate(5.891 40.293)">
              <path id="path3724" d="M0,0H21.914" fill="none" stroke="#000" stroke-linecap="round" stroke-linejoin="round" stroke-miterlimit="22.926" stroke-width="1"/>
            </g>
            <g id="g3726" transform="translate(5.891 35.58)">
              <path id="path3728" d="M0,0H21.914" fill="none" stroke="#000" stroke-linecap="round" stroke-linejoin="round" stroke-miterlimit="22.926" stroke-width="1"/>
            </g>
            <g id="g3730" transform="translate(5.891 30.867)">
              <path id="path3732" d="M0,0H5.655" fill="none" stroke="#000" stroke-linecap="round" stroke-linejoin="round" stroke-miterlimit="22.926" stroke-width="1"/>
            </g>
            <g id="g3734" transform="translate(5.891 26.155)">
              <path id="path3736" d="M0,0H7.422" fill="none" stroke="#000" stroke-linecap="round" stroke-linejoin="round" stroke-miterlimit="22.926" stroke-width="1"/>
            </g>
            <g id="g3738" transform="translate(5.891 16.73)">
              <path id="path3740" d="M0,0H5.031" fill="none" stroke="#000" stroke-linecap="round" stroke-linejoin="round" stroke-miterlimit="22.926" stroke-width="1"/>
            </g>
            <g id="g3742" transform="translate(5.891 12.017)">
              <path id="path3744" d="M0,0H5.031" fill="none" stroke="#000" stroke-linecap="round" stroke-linejoin="round" stroke-miterlimit="22.926" stroke-width="1"/>
            </g>
            <g id="g3746" transform="translate(49.4 16.73)">
              <path id="path3748" d="M-51.906,0h-5.031" transform="translate(56.937)" fill="none" stroke="#000" stroke-linecap="round" stroke-linejoin="round" stroke-miterlimit="22.926" stroke-width="1"/>
            </g>
            <g id="g3750" transform="translate(49.4 12.017)">
              <path id="path3752" d="M-51.906,0h-5.031" transform="translate(56.937)" fill="none" stroke="#000" stroke-linecap="round" stroke-linejoin="round" stroke-miterlimit="22.926" stroke-width="1"/>
            </g>
            <g id="g3754" transform="translate(32.517 31.172)">
              <path id="path3756" d="M0-51.878H4.675l1.076-1.042,1.169,1.133,2.452-5.119,1.977,9.12,1.713-5.569,1.82,1.757L16.2-52.707l1.035.828h4.675" transform="translate(0 56.907)" fill="none" stroke="#000" stroke-linecap="round" stroke-linejoin="round" stroke-miterlimit="2.613" stroke-width="1"/>
            </g>
            <g id="g3758" transform="translate(16.847 30.867)">
              <path id="path3760" d="M0,0H0" fill="none" stroke="#000" stroke-linecap="round" stroke-linejoin="round" stroke-miterlimit="2.613" stroke-width="1"/>
            </g>
          </g>
        </g>
      </g>
    </g>
  </g>
</svg>
