<svg xmlns="http://www.w3.org/2000/svg" xmlns:xlink="http://www.w3.org/1999/xlink" width="108" height="108" viewBox="0 0 108 108">
  <defs>
    <filter id="Path_904820" x="0" y="0" width="108" height="108" filterUnits="userSpaceOnUse">
      <feOffset dy="3" input="SourceAlpha"/>
      <feGaussianBlur stdDeviation="3" result="blur"/>
      <feFlood flood-opacity="0.161"/>
      <feComposite operator="in" in2="blur"/>
      <feComposite in="SourceGraphic"/>
    </filter>
  </defs>
  <g id="Group_1202750" data-name="Group 1202750" transform="translate(-630.5 -1822.675)">
    <g id="Group_1202355" data-name="Group 1202355">
      <g id="Group_1202217" data-name="Group 1202217" transform="translate(639.5 1828.675)">
        <g id="Group_1173585" data-name="Group 1173585" transform="translate(0 0)">
          <g id="Group_1173428" data-name="Group 1173428">
            <g id="Group_1171958" data-name="Group 1171958">
              <g id="Group_1167341" data-name="Group 1167341">
                <g id="Group_1166792" data-name="Group 1166792">
                  <g transform="matrix(1, 0, 0, 1, -9, -6)" filter="url(#Path_904820)">
                    <g id="Path_904820-2" data-name="Path 904820" transform="translate(9 6)" fill="#fef9e7">
                      <path d="M 44.99999618530273 88.49999237060547 C 39.12687301635742 88.49999237060547 33.43022155761719 87.35006713867188 28.06829643249512 85.08216857910156 C 22.88852119445801 82.89130401611328 18.23629570007324 79.75457763671875 14.24084663391113 75.75914001464844 C 10.24540901184082 71.76369476318359 7.108683586120605 67.11146545410156 4.917821407318115 61.93169403076172 C 2.649921178817749 56.56976699829102 1.499996185302734 50.87311553955078 1.499996185302734 44.99999237060547 C 1.499996185302734 39.12686920166016 2.649921178817749 33.43021774291992 4.917821407318115 28.06829261779785 C 7.108683586120605 22.88851737976074 10.24540901184082 18.23630523681641 14.24084663391113 14.24085521697998 C 18.23629570007324 10.24540519714355 22.88852119445801 7.108692169189453 28.06829643249512 4.917829990386963 C 33.43022155761719 2.649929761886597 39.12687301635742 1.500004887580872 44.99999618530273 1.500004887580872 C 50.87311935424805 1.500004887580872 56.56977081298828 2.649929761886597 61.93169784545898 4.917829990386963 C 67.11147308349609 7.108692169189453 71.76369476318359 10.24540519714355 75.75914764404297 14.24085521697998 C 79.75458526611328 18.23630523681641 82.89131164550781 22.88851737976074 85.08216857910156 28.06829261779785 C 87.35007476806641 33.43021774291992 88.5 39.12686920166016 88.5 44.99999237060547 C 88.5 50.87311553955078 87.35007476806641 56.56976699829102 85.08216857910156 61.93169403076172 C 82.89131164550781 67.11146545410156 79.75458526611328 71.76369476318359 75.75914764404297 75.75914001464844 C 71.76369476318359 79.75457763671875 67.11147308349609 82.89130401611328 61.93169784545898 85.08216857910156 C 56.56977081298828 87.35006713867188 50.87311935424805 88.49999237060547 44.99999618530273 88.49999237060547 Z" stroke="none"/>
                      <path d="M 44.99999618530273 2.999992370605469 C 39.32870864868164 2.999992370605469 33.82865142822266 4.11004638671875 28.65262603759766 6.299331665039062 C 23.65165710449219 8.414566040039062 19.15968322753906 11.44333648681641 15.301513671875 15.30150604248047 C 11.44333648681641 19.15967559814453 8.414566040039062 23.65164947509766 6.299339294433594 28.65262222290039 C 4.110054016113281 33.82864761352539 2.999992370605469 39.32870483398438 2.999992370605469 44.99999237060547 C 2.999992370605469 50.67127990722656 4.110054016113281 56.17132186889648 6.299339294433594 61.34736633300781 C 8.414566040039062 66.34833526611328 11.44333648681641 70.84029388427734 15.301513671875 74.69846343994141 C 19.15968322753906 78.55663299560547 23.65165710449219 81.58540344238281 28.65262603759766 83.70063781738281 C 33.82865142822266 85.88992309570312 39.32870864868164 86.99997711181641 44.99999618530273 86.99997711181641 C 50.67128372192383 86.99997711181641 56.17134094238281 85.88992309570312 61.34736633300781 83.70063781738281 C 66.34834289550781 81.58540344238281 70.84030914306641 78.55663299560547 74.69847869873047 74.69846343994141 C 78.55665588378906 70.84029388427734 81.58542633056641 66.34833526611328 83.70065307617188 61.34736633300781 C 85.88993835449219 56.17132186889648 87 50.67127990722656 87 44.99999237060547 C 87 39.32870483398438 85.88993835449219 33.82864761352539 83.70065307617188 28.65262222290039 C 81.58542633056641 23.65164947509766 78.55665588378906 19.15967559814453 74.69847869873047 15.30150604248047 C 70.84030914306641 11.44333648681641 66.34834289550781 8.414566040039062 61.34736633300781 6.299331665039062 C 56.17134094238281 4.11004638671875 50.67128372192383 2.999992370605469 44.99999618530273 2.999992370605469 M 44.99999618530273 -7.62939453125e-06 C 69.85281372070312 -7.62939453125e-06 90 20.14717864990234 90 44.99999237060547 C 90 69.85279083251953 69.85281372070312 89.99997711181641 44.99999618530273 89.99997711181641 C 20.14717864990234 89.99997711181641 -7.62939453125e-06 69.85279083251953 -7.62939453125e-06 44.99999237060547 C -7.62939453125e-06 20.14717864990234 20.14717864990234 -7.62939453125e-06 44.99999618530273 -7.62939453125e-06 Z" stroke="none" fill="#887013"/>
                    </g>
                  </g>
                </g>
              </g>
            </g>
          </g>
        </g>
      </g>
      <g id="business-thinking_10704189" transform="translate(655.389 1847.088)">
        <path id="Path_1042270" data-name="Path 1042270" d="M335.015,123.029v-3.345h3.195a1.672,1.672,0,0,1,0,3.345Z" transform="translate(-297.837 -107.015)" fill="#fac149"/>
        <path id="Path_1042271" data-name="Path 1042271" d="M31.084,105.164l-.051-.243a12.583,12.583,0,0,0-2.188-5.287l-.215-.281.31-.172a20.273,20.273,0,0,0,6.5-5.163l-.66-.477a20.168,20.168,0,0,1-6.717,5.2h0l-.268.148-.038.02a16.119,16.119,0,0,1-7.039,2.223,2.969,2.969,0,0,1-1.856-.5c-.847-.667-.88-2.081-.1-4.2a.407.407,0,0,0-.313-.542c-1.069-.185-1.419-.489-1.524-.712-.151-.321-.009-.843.447-1.642a.409.409,0,0,0-.124-.538c-.769-.526-1.129-.937-1.169-1.332-.045-.452.322-1.061,1.156-1.918a.407.407,0,0,0-.113-.65c-1.656-.809-2.561-1.626-2.767-2.5-.3-1.279.9-2.853,2.29-4.676.611-.8,1.3-1.709,1.945-2.688A.4.4,0,0,0,18.6,78.8a10.031,10.031,0,0,1-.757-9.492L18,68.964l.306.229a7.551,7.551,0,0,0,4.558,1.517,7.622,7.622,0,0,0,7.331-9.73l-.093-.323.331-.062A23.126,23.126,0,0,1,34.7,60.21a26.185,26.185,0,0,1,4.65.421l.559.1-.391.411a12.785,12.785,0,0,0-.947,1.115l-.141.187-2.562-1.021a.407.407,0,0,0-.5.163,16.042,16.042,0,0,0-2.107,5.281.407.407,0,0,0,.248.459l2.562,1.021-.027.233a12.741,12.741,0,0,0,.042,3.233l.033.232-2.533,1.088a.407.407,0,0,0-.236.466,15.941,15.941,0,0,0,2.247,5.228.406.406,0,0,0,.5.15l2.534-1.089.146.183A12.874,12.874,0,0,0,41.09,80.33l.187.141L40.253,83.03a.407.407,0,0,0,.162.5,15.9,15.9,0,0,0,2.547,1.289,16.121,16.121,0,0,0,2.736.821.413.413,0,0,0,.083.008.4.4,0,0,0,.378-.256l1.021-2.562.232.026a12.786,12.786,0,0,0,3.035-.019l.543-.068-.226.5c-.153.337-.306.672-.456,1-.548,1.2-1.064,2.323-1.5,3.424a17.09,17.09,0,0,0-.952,8.954,31.4,31.4,0,0,0,2.46,8.095l.187.429H31.084Z" transform="translate(-9.87 -53.613)" fill="#ffcebf"/>
        <g id="Group_1202354" data-name="Group 1202354" transform="translate(6.181 2.659)">
          <path id="Path_1042272" data-name="Path 1042272" d="M38.219,35.257a6.812,6.812,0,1,1,6.814-6.814A6.82,6.82,0,0,1,38.219,35.257Zm.407-2.172V31.74l.246-.049a1.845,1.845,0,0,0-.364-3.654c-1.34,0-1.609-.395-1.609-1.031a1.031,1.031,0,0,1,1.031-1.028h.855a.764.764,0,0,1,.754.754v.407h.814v-.407a1.575,1.575,0,0,0-1.445-1.562l-.282-.022V23.805h-.814V25.15l-.246.049a1.848,1.848,0,0,0-1.481,1.806,1.617,1.617,0,0,0,.841,1.544,3.38,3.38,0,0,0,1.582.3,1.031,1.031,0,1,1,0,2.062h-.855a.756.756,0,0,1-.754-.757v-.407h-.814v.407a1.576,1.576,0,0,0,1.445,1.565l.282.022v1.342h.814Z" transform="translate(-31.408 -21.633)" fill="#fac149"/>
          <path id="Path_1042273" data-name="Path 1042273" d="M335.015,163.764v-3.342h3.195a1.671,1.671,0,1,1,0,3.342Z" transform="translate(-304.018 -146.252)" fill="#fac149"/>
          <path id="Path_1042274" data-name="Path 1042274" d="M286.065,97.291a7.587,7.587,0,1,1,7.055-4.774,7.535,7.535,0,0,1-7.055,4.774Zm1.513-1.635V94.281l.26-.04a2.484,2.484,0,0,0,1.277-4.306l-.255-.228.254-.228a2.485,2.485,0,0,0-1.277-4.309l-.26-.04V83.754h-.814V85.14h-1.2V83.754h-.814V85.14h-2.253v.814h.956v7.5h-.956v.814h2.253v1.386h.814V94.27h1.2v1.386h.814Z" transform="translate(-253.265 -75.944)" fill="#fac149"/>
        </g>
        <path id="Path_1042275" data-name="Path 1042275" d="M219.593,41.489a15.393,15.393,0,0,1-3.9-1.557l-.232-.132,1.017-2.542a.405.405,0,0,0-.147-.486,12.044,12.044,0,0,1-2.911-2.839.409.409,0,0,0-.329-.168.4.4,0,0,0-.16.033l-2.517,1.081-.138-.228a15.136,15.136,0,0,1-1.66-3.862l-.07-.257,2.517-1.081A.4.4,0,0,0,211.3,29a11.918,11.918,0,0,1-.053-4.064.405.405,0,0,0-.251-.442l-2.545-1.014.064-.259a15.4,15.4,0,0,1,.644-2,15.19,15.19,0,0,1,.913-1.9l.132-.232,2.545,1.014a.406.406,0,0,0,.486-.148,11.944,11.944,0,0,1,2.838-2.911.4.4,0,0,0,.135-.49l-1.081-2.517.228-.138a15.092,15.092,0,0,1,3.859-1.657l.257-.07,1.081,2.517a.406.406,0,0,0,.373.247.411.411,0,0,0,.075-.007,12,12,0,0,1,4.065-.056.414.414,0,0,0,.063,0,.406.406,0,0,0,.378-.256l1.017-2.544.259.064a15.22,15.22,0,0,1,2,.646,15.045,15.045,0,0,1,1.9.911l.231.132L229.9,16.376a.405.405,0,0,0,.147.486,12.088,12.088,0,0,1,2.909,2.839.409.409,0,0,0,.329.168.4.4,0,0,0,.16-.033l2.517-1.081.138.228a15.139,15.139,0,0,1,1.66,3.862l.07.257-2.517,1.081a.4.4,0,0,0-.24.449,11.919,11.919,0,0,1,.053,4.064.405.405,0,0,0,.251.442l2.545,1.014-.064.259a15.375,15.375,0,0,1-.644,2,15.168,15.168,0,0,1-.913,1.9l-.132.232-2.545-1.014a.407.407,0,0,0-.486.148,11.945,11.945,0,0,1-2.838,2.911.4.4,0,0,0-.135.49l1.081,2.517-.228.138a15.15,15.15,0,0,1-3.859,1.657l-.257.07-1.081-2.516a.408.408,0,0,0-.449-.24,11.989,11.989,0,0,1-4.065.056.412.412,0,0,0-.063,0,.405.405,0,0,0-.379.256l-1.014,2.544ZM223.2,18.417a8.4,8.4,0,1,0,3.12.605l-.012,0-.018-.009a8.338,8.338,0,0,0-3.089-.593Z" transform="translate(-184.192 -10.397)" fill="#a0c7e7"/>
        <path id="Path_1042276" data-name="Path 1042276" d="M54.46,18.84l-2.344-.934a13.017,13.017,0,0,0-.043-3.311l2.318-1a.713.713,0,0,0,.413-.816,16.244,16.244,0,0,0-2.289-5.328.713.713,0,0,0-.876-.262l-2.319,1a13.187,13.187,0,0,0-2.368-2.311l.935-2.343a.713.713,0,0,0-.284-.869,16.051,16.051,0,0,0-2.6-1.314A16.378,16.378,0,0,0,42.221.516a.713.713,0,0,0-.807.434L40.477,3.3a13.111,13.111,0,0,0-3.311.045l-1-2.318a.714.714,0,0,0-.816-.414A16.2,16.2,0,0,0,30.029,2.9a.713.713,0,0,0-.261.876l1,2.318-.045.037a26.2,26.2,0,0,0-10.628-.2A7.93,7.93,0,1,0,7.147,14.825,11.107,11.107,0,0,0,7.54,25.367c-.544.8-1.109,1.543-1.658,2.262-1.564,2.049-2.915,3.819-2.49,5.614A4.69,4.69,0,0,0,5.93,36.051a3,3,0,0,0-.837,2.111A2.682,2.682,0,0,0,6.231,39.93a2.481,2.481,0,0,0-.191,2.11,2.368,2.368,0,0,0,1.542,1.153C6.911,45.417,7.15,47,8.294,47.9c2.352,1.853,7.64-.251,9.667-1.354A12.257,12.257,0,0,1,20.18,52.1a.713.713,0,0,0,.7.575H41.268a.714.714,0,0,0,.647-1.013c-3.26-7.045-3.857-12.34-1.937-17.171.427-1.076.938-2.191,1.479-3.371l.029-.063.328.763a.714.714,0,0,0,.816.414,16.256,16.256,0,0,0,5.325-2.286.713.713,0,0,0,.262-.877l-1-2.318a13.048,13.048,0,0,0,2.312-2.371l2.345.935a.714.714,0,0,0,.87-.285A16.345,16.345,0,0,0,54.9,19.645a.713.713,0,0,0-.435-.8ZM6.488,9.469a6.506,6.506,0,1,1,6.5,6.507,6.512,6.512,0,0,1-6.5-6.507ZM40.16,30.523c-.549,1.2-1.067,2.329-1.508,3.438a17.388,17.388,0,0,0-.97,9.11,31.744,31.744,0,0,0,2.482,8.174h-18.7a12.894,12.894,0,0,0-2.245-5.41A20.065,20.065,0,0,0,26,40.338L24.839,39.5c-1.826,2.531-4.492,4.1-7.066,5.5v0c-.019.011-.039.019-.058.032-1.678,1.122-6.9,3.034-8.54,1.744-.91-.717-.5-2.493,0-3.856a.713.713,0,0,0-.548-.95c-1.054-.182-1.261-.46-1.3-.541-.057-.122-.077-.46.436-1.36a.713.713,0,0,0-.217-.942c-.669-.457-1.008-.82-1.037-1.11-.035-.345.326-.908,1.07-1.674a.714.714,0,0,0-.2-1.138c-1.569-.766-2.42-1.516-2.6-2.293-.269-1.138.892-2.659,2.236-4.42.615-.806,1.312-1.719,1.957-2.706a.713.713,0,0,0,.018-.751,9.71,9.71,0,0,1-.742-9.212A7.929,7.929,0,0,0,20.617,7.283a24.59,24.59,0,0,1,8.8.037,13.051,13.051,0,0,0-.97,1.142l-2.345-.935a.714.714,0,0,0-.87.285,16.349,16.349,0,0,0-2.147,5.382.714.714,0,0,0,.435.8l2.344.934a13.027,13.027,0,0,0,.043,3.311l-2.318,1a.714.714,0,0,0-.414.816,16.25,16.25,0,0,0,2.289,5.328.713.713,0,0,0,.876.262l2.319-1a13.149,13.149,0,0,0,2.37,2.311L30.1,29.3a.714.714,0,0,0,.284.87,16.185,16.185,0,0,0,2.6,1.313,16.417,16.417,0,0,0,2.787.837.714.714,0,0,0,.807-.435l.935-2.345a13.089,13.089,0,0,0,3.108-.02c-.152.337-.306.672-.455,1ZM52.736,21.9a14.826,14.826,0,0,1-.895,1.857l-2.3-.915a.713.713,0,0,0-.852.259,11.638,11.638,0,0,1-2.765,2.836.713.713,0,0,0-.236.859l.976,2.272A14.82,14.82,0,0,1,42.885,30.7l-.976-2.272a.714.714,0,0,0-.786-.42,11.68,11.68,0,0,1-3.961.054.714.714,0,0,0-.773.441l-.915,2.3a15.1,15.1,0,0,1-3.824-1.526l.918-2.294a.713.713,0,0,0-.257-.852,11.739,11.739,0,0,1-2.838-2.767.713.713,0,0,0-.859-.236l-2.272.976a14.808,14.808,0,0,1-1.626-3.784l2.272-.976a.713.713,0,0,0,.42-.786,11.617,11.617,0,0,1-.052-3.96.713.713,0,0,0-.44-.775l-2.3-.916a15.068,15.068,0,0,1,.631-1.965,14.838,14.838,0,0,1,.895-1.857l2.3.915a.713.713,0,0,0,.852-.259A11.64,11.64,0,0,1,32.058,6.9a.713.713,0,0,0,.236-.859l-.976-2.272A14.757,14.757,0,0,1,35.1,2.144l.976,2.272a.713.713,0,0,0,.786.42,11.7,11.7,0,0,1,3.962-.054.714.714,0,0,0,.773-.44l.918-2.3a14.865,14.865,0,0,1,1.964.633,14.706,14.706,0,0,1,1.859.893l-.916,2.3a.713.713,0,0,0,.257.851,11.779,11.779,0,0,1,2.835,2.767.714.714,0,0,0,.858.236l2.272-.976a14.8,14.8,0,0,1,1.626,3.784L51,13.5a.713.713,0,0,0-.42.786,11.612,11.612,0,0,1,.052,3.96.713.713,0,0,0,.44.775l2.3.916a15.035,15.035,0,0,1-.631,1.965ZM42.221,8.333h0a8.707,8.707,0,1,0,4.858,11.314A8.718,8.718,0,0,0,42.22,8.333Zm3.532,10.785a7.277,7.277,0,1,1-4.062-9.459A7.289,7.289,0,0,1,45.753,19.118Zm-35.2-7.936v-.713h1.427v.713a.45.45,0,0,0,.448.451h.855a.725.725,0,1,0,0-1.45,3.655,3.655,0,0,1-1.727-.338,1.915,1.915,0,0,1-1-1.814,2.153,2.153,0,0,1,1.727-2.106v-1.4h1.427V5.889a1.876,1.876,0,0,1,1.727,1.867V8.47H14.006V7.757a.454.454,0,0,0-.448-.448H12.7a.724.724,0,0,0-.725.722c0,.356,0,.725,1.3.725a2.152,2.152,0,0,1,.425,4.261v1.4H12.279V13.052a1.878,1.878,0,0,1-1.727-1.87Zm32.614,3.16a2.8,2.8,0,0,0-2.365-2.76V10.162H39.374v1.386h-.592V10.162H37.355v1.386H35.1v1.427h.956v6.888H35.1v1.427h2.253v1.386h1.427V21.291h.592v1.386H40.8V21.258a2.79,2.79,0,0,0,1.435-4.837,2.786,2.786,0,0,0,.931-2.079Zm-2.793,5.522H37.485V17.135h2.888a1.365,1.365,0,1,1,0,2.729Zm0-4.156H37.485V12.976h2.888a1.366,1.366,0,0,1,0,2.732Z"/>
      </g>
    </g>
  </g>
</svg>
