<svg xmlns="http://www.w3.org/2000/svg" xmlns:xlink="http://www.w3.org/1999/xlink" width="113" height="113" viewBox="0 0 113 113">
  <defs>
    <filter id="Path_982547" x="0" y="0" width="113" height="113" filterUnits="userSpaceOnUse">
      <feOffset dy="3" input="SourceAlpha"/>
      <feGaussianBlur stdDeviation="3" result="blur"/>
      <feFlood flood-opacity="0.161"/>
      <feComposite operator="in" in2="blur"/>
      <feComposite in="SourceGraphic"/>
    </filter>
  </defs>
  <g id="Group_1202726" data-name="Group 1202726" transform="translate(-4348.49 -3129.023)">
    <g id="Group_1202343" data-name="Group 1202343">
      <g id="Group_1202076" data-name="Group 1202076" transform="translate(3555 753.215)">
        <g id="Group_1178713" data-name="Group 1178713" transform="translate(0 886.374)">
          <g id="Group_1176922" data-name="Group 1176922" transform="translate(802.49 1495.435)">
            <g id="Group_1172322" data-name="Group 1172322" transform="translate(0 0)">
              <g id="Group_1164700" data-name="Group 1164700">
                <g id="Group_1160931" data-name="Group 1160931">
                  <g id="Group_1160749" data-name="Group 1160749">
                    <g id="Group_1158891" data-name="Group 1158891">
                      <g id="Group_1157406" data-name="Group 1157406">
                        <g id="Group_1155793" data-name="Group 1155793">
                          <g id="Group_1154704" data-name="Group 1154704">
                            <g id="Group_1150790" data-name="Group 1150790">
                              <g id="Group_1154214" data-name="Group 1154214">
                                <g id="Group_1152583" data-name="Group 1152583">
                                  <g id="Group_1146973" data-name="Group 1146973">
                                    <g id="Group_1146954" data-name="Group 1146954">
                                      <g transform="matrix(1, 0, 0, 1, -9, -6)" filter="url(#Path_982547)">
                                        <g id="Path_982547-2" data-name="Path 982547" transform="translate(9 6)" fill="#fbedfe">
                                          <path d="M 47.5000114440918 93.49987030029297 C 41.28938293457031 93.49987030029297 35.26534652709961 92.28384399414062 29.5951976776123 89.88558959960938 C 24.11773109436035 87.56881713867188 19.19814491271973 84.25183868408203 14.97310447692871 80.02680206298828 C 10.74805164337158 75.80176544189453 7.43107795715332 70.88218688964844 5.114304542541504 65.40472412109375 C 2.716038227081299 59.73458862304688 1.500011444091797 53.71054840087891 1.500011444091797 47.49993515014648 C 1.500011444091797 41.28932189941406 2.716038227081299 35.26528167724609 5.114304542541504 29.59514808654785 C 7.43107795715332 24.1176815032959 10.74805164337158 19.1981086730957 14.97310447692871 14.97306823730469 C 19.19814491271973 10.74802875518799 24.11773109436035 7.431055068969727 29.5951976776123 5.11428165435791 C 35.26534652709961 2.716028451919556 41.28938293457031 1.500001788139343 47.5000114440918 1.500001788139343 C 53.71063995361328 1.500001788139343 59.73467636108398 2.716028451919556 65.40482330322266 5.11428165435791 C 70.88229370117188 7.431055068969727 75.8018798828125 10.74802875518799 80.02691650390625 14.97306823730469 C 84.25196838378906 19.1981086730957 87.56894683837891 24.1176815032959 89.88571929931641 29.59514808654785 C 92.28398132324219 35.26528167724609 93.50001525878906 41.28932189941406 93.50001525878906 47.49993515014648 C 93.50001525878906 53.71054840087891 92.28398132324219 59.73458862304688 89.88571929931641 65.40472412109375 C 87.56894683837891 70.88218688964844 84.25196838378906 75.80176544189453 80.02691650390625 80.02680206298828 C 75.8018798828125 84.25183868408203 70.88229370117188 87.56881713867188 65.40482330322266 89.88558959960938 C 59.73467636108398 92.28384399414062 53.71063995361328 93.49987030029297 47.5000114440918 93.49987030029297 Z" stroke="none"/>
                                          <path d="M 47.5000114440918 3 C 41.49122619628906 3 35.66378021240234 4.1761474609375 30.17951965332031 6.495796203613281 C 24.880859375 8.7369384765625 20.12153625488281 11.94596862792969 16.03376770019531 16.03373718261719 C 11.94598388671875 20.12149047851562 8.736968994140625 24.88081359863281 6.495811462402344 30.17947387695312 C 4.176162719726562 35.66371917724609 3.000007629394531 41.49116516113281 3.000007629394531 47.49993515014648 C 3.000007629394531 53.50870513916016 4.176162719726562 59.33615112304688 6.495811462402344 64.82039642333984 C 8.736968994140625 70.11905670166016 11.94598388671875 74.87837982177734 16.03376770019531 78.96613311767578 C 20.12153625488281 83.05390167236328 24.880859375 86.26293182373047 30.17951965332031 88.50407409667969 C 35.66378021240234 90.82372283935547 41.49122619628906 91.99987030029297 47.5000114440918 91.99987030029297 C 53.50879669189453 91.99987030029297 59.33624267578125 90.82372283935547 64.82050323486328 88.50407409667969 C 70.11916351318359 86.26293182373047 74.87848663330078 83.05390167236328 78.96625518798828 78.96613311767578 C 83.05403900146484 74.87837982177734 86.2630615234375 70.11905670166016 88.50421142578125 64.82039642333984 C 90.82386016845703 59.33615112304688 92.00001525878906 53.50870513916016 92.00001525878906 47.49993515014648 C 92.00001525878906 41.49116516113281 90.82386016845703 35.66371917724609 88.50421142578125 30.17947387695312 C 86.2630615234375 24.88081359863281 83.05403900146484 20.12149047851562 78.96625518798828 16.03373718261719 C 74.87848663330078 11.94596862792969 70.11916351318359 8.7369384765625 64.82050323486328 6.495796203613281 C 59.33624267578125 4.1761474609375 53.50879669189453 3 47.5000114440918 3 M 47.5000114440918 0 C 73.73353576660156 0 95.00001525878906 21.26644134521484 95.00001525878906 47.49993515014648 C 95.00001525878906 73.73342895507812 73.73353576660156 94.99987030029297 47.5000114440918 94.99987030029297 C 21.26648712158203 94.99987030029297 7.62939453125e-06 73.73342895507812 7.62939453125e-06 47.49993515014648 C 7.62939453125e-06 21.26644134521484 21.26648712158203 0 47.5000114440918 0 Z" stroke="none" fill="#7b3289"/>
                                        </g>
                                      </g>
                                    </g>
                                  </g>
                                </g>
                              </g>
                            </g>
                          </g>
                        </g>
                      </g>
                    </g>
                  </g>
                </g>
              </g>
            </g>
          </g>
        </g>
      </g>
      <g id="prototype_6552006" transform="translate(4377.076 3154.609)">
        <g id="Group_1202341" data-name="Group 1202341" transform="translate(0.9 0.9)">
          <g id="Group_1202329" data-name="Group 1202329" transform="translate(12.606)">
            <ellipse id="Ellipse_12572" data-name="Ellipse 12572" cx="14" cy="14.5" rx="14" ry="14.5" transform="translate(0.407 0.013)" fill="#69d6f4"/>
          </g>
          <g id="Group_1202330" data-name="Group 1202330" transform="translate(0 28.814)">
            <path id="Path_1042186" data-name="Path 1042186" d="M62.026,264v25.212H11.6a3.6,3.6,0,1,1,3.6-3.6V264H29.61v12.606l2.7,5.4,1.4,2.8a1.456,1.456,0,0,0,2.607,0l1.388-2.777,2.711-5.422V264Z" transform="translate(-8 -264)" fill="#f0d0b4"/>
          </g>
          <g id="Group_1202331" data-name="Group 1202331" transform="translate(0 25.212)">
            <path id="Path_1042187" data-name="Path 1042187" d="M15.2,235.6v21.611a3.6,3.6,0,0,0-7.2,0V235.6a3.6,3.6,0,0,1,7.2,0Z" transform="translate(-8 -232)" fill="#ecc19c"/>
          </g>
          <g id="Group_1202332" data-name="Group 1202332" transform="translate(41.42 39.619)">
            <path id="Path_1042188" data-name="Path 1042188" d="M376,360h3.6v3.6H376Z" transform="translate(-376 -360)" fill="#ef7385"/>
          </g>
          <g id="Group_1202333" data-name="Group 1202333" transform="translate(41.42 32.416)">
            <path id="Path_1042189" data-name="Path 1042189" d="M376,296h3.6v3.6H376Z" transform="translate(-376 -296)" fill="#ef7385"/>
          </g>
          <g id="Group_1202334" data-name="Group 1202334" transform="translate(27.215 0.001)">
            <path id="Path_1042190" data-name="Path 1042190" d="M274.977,21.362l.724,1.052-.724,1.052a30.808,30.808,0,0,1-19.986,12.88v-.571a14.41,14.41,0,0,0-5.2-27.766,30.808,30.808,0,0,1,25.187,13.352Z" transform="translate(-249.79 -8.01)" fill="#ccd1d9"/>
          </g>
          <g id="Group_1202335" data-name="Group 1202335" transform="translate(0.9 0.001)">
            <path id="Path_1042191" data-name="Path 1042191" d="M36.71,35.776v.571A30.809,30.809,0,0,1,16.724,23.469L16,22.417l.724-1.052A30.809,30.809,0,0,1,41.909,8.01a14.41,14.41,0,0,0-5.2,27.766Z" transform="translate(-16 -8.01)" fill="#ccd1d9"/>
          </g>
          <g id="Group_1202336" data-name="Group 1202336" transform="translate(21.61 41.42)">
            <path id="Path_1042192" data-name="Path 1042192" d="M210.805,376l-2.711,5.422-.038-.019H202.7L200,376Z" transform="translate(-200 -376)" fill="#ccd1d9"/>
          </g>
          <g id="Group_1202337" data-name="Group 1202337" transform="translate(24.312 46.823)">
            <path id="Path_1042193" data-name="Path 1042193" d="M229.393,424.019,228,426.8a1.457,1.457,0,0,1-2.607,0L224,424h5.354Z" transform="translate(-224 -424)" fill="#969faa"/>
          </g>
          <g id="Group_1202338" data-name="Group 1202338" transform="translate(21.61 22.669)">
            <path id="Path_1042194" data-name="Path 1042194" d="M208.985,209.4l1.82,1.093v17.659H200V210.493l1.82-1.093c.09.039.182.077.273.113l.608,2.431h5.4l.608-2.431c.091-.036.183-.073.273-.113Z" transform="translate(-200 -209.4)" fill="#b4dd7f"/>
          </g>
          <g id="Group_1202339" data-name="Group 1202339" transform="translate(16.208 3.602)">
            <path id="Path_1042195" data-name="Path 1042195" d="M173.611,48.1v5.4l-2.431.608c-.036.091-.073.183-.113.274l1.289,2.148-3.82,3.82-.328-.2-1.82-1.093c-.09.039-.182.077-.273.113l-.608,2.431h-5.4l-.608-2.431c-.091-.036-.183-.073-.273-.113L157.4,60.16l-.328.2-3.82-3.82,1.289-2.148c-.039-.09-.077-.182-.113-.274L152,53.507V48.1l2.431-.608c.036-.091.073-.183.113-.274l-1.289-2.148,3.82-3.82,2.148,1.289c.09-.039.182-.077.273-.113L160.1,40h5.4l.608,2.431c.091.036.183.073.273.113l2.148-1.289,3.82,3.82-1.289,2.148c.039.09.077.182.113.274Zm-5.4,2.7a5.4,5.4,0,1,0-5.4,5.4A5.4,5.4,0,0,0,168.208,50.805Z" transform="translate(-152 -40)" fill="#fcd770"/>
          </g>
          <g id="Group_1202340" data-name="Group 1202340" transform="translate(21.61 9.004)">
            <path id="Path_1042196" data-name="Path 1042196" d="M205.4,88a5.4,5.4,0,1,1-5.4,5.4A5.4,5.4,0,0,1,205.4,88Zm1.8,5.4a1.8,1.8,0,1,0-1.8,1.8A1.8,1.8,0,0,0,207.2,93.4Z" transform="translate(-200 -88)" fill="#ffeaa7"/>
          </g>
        </g>
        <g id="Group_1202342" data-name="Group 1202342">
          <path id="Path_1042197" data-name="Path 1042197" d="M226.7,117.4a2.7,2.7,0,1,0-2.7-2.7A2.7,2.7,0,0,0,226.7,117.4Zm0-3.6a.9.9,0,1,1-.9.9A.9.9,0,0,1,226.7,113.8Z" transform="translate(-198.788 -99.394)"/>
          <path id="Path_1042198" data-name="Path 1042198" d="M198.3,92.606a6.3,6.3,0,1,0-6.3-6.3A6.31,6.31,0,0,0,198.3,92.606Zm0-10.805a4.5,4.5,0,1,1-4.5,4.5A4.507,4.507,0,0,1,198.3,81.8Z" transform="translate(-170.389 -70.996)"/>
          <ellipse id="Ellipse_12573" data-name="Ellipse 12573" cx="1" cy="0.5" rx="1" ry="0.5" transform="translate(26.913 32.914)"/>
          <circle id="Ellipse_12574" data-name="Ellipse 12574" cx="1" cy="1" r="1" transform="translate(26.913 35.914)"/>
          <circle id="Ellipse_12575" data-name="Ellipse 12575" cx="1" cy="1" r="1" transform="translate(26.913 28.914)"/>
          <path id="Path_1042199" data-name="Path 1042199" d="M38.453,28.814a31.621,31.621,0,0,0,6.592-3.224,31.542,31.542,0,0,0,9-8.721l1.074-1.562-1.074-1.562A31.7,31.7,0,0,0,27.914,0h0A31.7,31.7,0,0,0,1.783,13.746L.708,15.309l1.074,1.562a31.54,31.54,0,0,0,9,8.72,31.626,31.626,0,0,0,6.591,3.223H8.914a4.5,4.5,0,0,0-8.914.9v21.61a4.507,4.507,0,0,0,4.5,4.5H55.827V28.814ZM30.058,46.823h-4.29l-1.8-3.6h7.891Zm-.9,1.8-.747,1.493a.557.557,0,0,1-1,0l-.747-1.493ZM27.91,1.8h0a13.508,13.508,0,0,1,6.3,25.455v-1.7L38.6,21.177l-1.153-1.922,2.174-.544V11.9l-2.174-.544L38.6,9.437,33.784,4.623,31.862,5.776,31.318,3.6H24.509l-.544,2.174L22.044,4.623,17.229,9.437l1.153,1.922-2.175.544v6.809l2.174.544-1.153,1.922,4.381,4.381v1.7A13.508,13.508,0,0,1,27.91,1.8Zm-4.5,39.619V25.171l.554-.332.544,2.174h6.809l.544-2.174.554.332V41.42ZM20.478,18.531c-.035-.081-.068-.163-.1-.245l-.17-.431-2.2-.55v-4l2.2-.55.17-.431c.033-.082.066-.164.1-.245l.184-.425L19.5,9.717l2.826-2.826,1.942,1.165.425-.184c.081-.035.163-.068.245-.1l.43-.17.55-2.2h4l.55,2.2.43.17c.082.033.164.066.245.1l.425.184L33.5,6.891,36.33,9.717l-1.165,1.942.184.425c.035.081.068.163.1.245l.17.431,2.2.549v4l-2.2.55-.17.431c-.033.082-.065.164-.1.245l-.184.425L36.33,20.9,33.5,23.724l-1.942-1.165-.425.184c-.081.035-.163.068-.246.1l-.43.17-.549,2.2h-4l-.549-2.2-.43-.17c-.082-.033-.165-.066-.246-.1l-.425-.184-1.942,1.165L19.5,20.9l1.165-1.942Zm32.083-3.767.373.542-.373.542A30.122,30.122,0,0,1,37.53,27.22a15.3,15.3,0,0,0-.041-23.846,29.9,29.9,0,0,1,15.072,11.39ZM3.266,15.85l-.373-.542.373-.543A29.9,29.9,0,0,1,18.337,3.375,15.3,15.3,0,0,0,18.3,27.221,30.122,30.122,0,0,1,3.266,15.85ZM4.5,27.013a2.7,2.7,0,0,1,2.7,2.7V47.726a4.492,4.492,0,0,0-5.4,0V29.714A2.7,2.7,0,0,1,4.5,27.013ZM54.026,54.026H4.5a2.7,2.7,0,1,1,2.7-2.7H9V30.615H21.611V42.533l4.195,8.389a2.357,2.357,0,0,0,4.217,0l4.195-8.389V30.615h19.81Z"/>
          <path id="Path_1042200" data-name="Path 1042200" d="M373.4,288H368v5.4h5.4Zm-1.8,3.6h-1.8v-1.8h1.8Z" transform="translate(-326.58 -255.584)"/>
          <path id="Path_1042201" data-name="Path 1042201" d="M373.4,352H368v5.4h5.4Zm-1.8,3.6h-1.8v-1.8h1.8Z" transform="translate(-326.58 -312.381)"/>
          <path id="Path_1042202" data-name="Path 1042202" d="M336,416h12.606v1.8H336Z" transform="translate(-298.182 -369.177)"/>
          <path id="Path_1042203" data-name="Path 1042203" d="M336,448h5.4v1.8H336Z" transform="translate(-298.182 -397.576)"/>
          <path id="Path_1042204" data-name="Path 1042204" d="M400,448h1.8v1.8H400Z" transform="translate(-354.978 -397.576)"/>
          <path id="Path_1042205" data-name="Path 1042205" d="M432,448h1.8v1.8H432Z" transform="translate(-383.376 -397.576)"/>
        </g>
      </g>
    </g>
  </g>
</svg>
