<svg xmlns="http://www.w3.org/2000/svg" xmlns:xlink="http://www.w3.org/1999/xlink" width="108" height="108" viewBox="0 0 108 108">
  <defs>
    <filter id="Path_904820" x="0" y="0" width="108" height="108" filterUnits="userSpaceOnUse">
      <feOffset dy="3" input="SourceAlpha"/>
      <feGaussianBlur stdDeviation="3" result="blur"/>
      <feFlood flood-opacity="0.161"/>
      <feComposite operator="in" in2="blur"/>
      <feComposite in="SourceGraphic"/>
    </filter>
  </defs>
  <g id="Group_1202749" data-name="Group 1202749" transform="translate(-630.5 -1704.675)">
    <g id="Group_1202353" data-name="Group 1202353">
      <g id="Group_1202216" data-name="Group 1202216" transform="translate(639.5 1710.675)">
        <g id="Group_1173585" data-name="Group 1173585" transform="translate(0 0)">
          <g id="Group_1173428" data-name="Group 1173428">
            <g id="Group_1171958" data-name="Group 1171958">
              <g id="Group_1167341" data-name="Group 1167341">
                <g id="Group_1166792" data-name="Group 1166792">
                  <g transform="matrix(1, 0, 0, 1, -9, -6)" filter="url(#Path_904820)">
                    <g id="Path_904820-2" data-name="Path 904820" transform="translate(9 6)" fill="#fef9e7">
                      <path d="M 44.99999618530273 88.49999237060547 C 39.12687301635742 88.49999237060547 33.43022155761719 87.35006713867188 28.06829643249512 85.08216857910156 C 22.88852119445801 82.89130401611328 18.23629570007324 79.75457763671875 14.24084663391113 75.75914001464844 C 10.24540901184082 71.76369476318359 7.108683586120605 67.11146545410156 4.917821407318115 61.93169403076172 C 2.649921178817749 56.56976699829102 1.499996185302734 50.87311553955078 1.499996185302734 44.99999237060547 C 1.499996185302734 39.12686920166016 2.649921178817749 33.43021774291992 4.917821407318115 28.06829261779785 C 7.108683586120605 22.88851737976074 10.24540901184082 18.23630523681641 14.24084663391113 14.24085521697998 C 18.23629570007324 10.24540519714355 22.88852119445801 7.108692169189453 28.06829643249512 4.917829990386963 C 33.43022155761719 2.649929761886597 39.12687301635742 1.500004887580872 44.99999618530273 1.500004887580872 C 50.87311935424805 1.500004887580872 56.56977081298828 2.649929761886597 61.93169784545898 4.917829990386963 C 67.11147308349609 7.108692169189453 71.76369476318359 10.24540519714355 75.75914764404297 14.24085521697998 C 79.75458526611328 18.23630523681641 82.89131164550781 22.88851737976074 85.08216857910156 28.06829261779785 C 87.35007476806641 33.43021774291992 88.5 39.12686920166016 88.5 44.99999237060547 C 88.5 50.87311553955078 87.35007476806641 56.56976699829102 85.08216857910156 61.93169403076172 C 82.89131164550781 67.11146545410156 79.75458526611328 71.76369476318359 75.75914764404297 75.75914001464844 C 71.76369476318359 79.75457763671875 67.11147308349609 82.89130401611328 61.93169784545898 85.08216857910156 C 56.56977081298828 87.35006713867188 50.87311935424805 88.49999237060547 44.99999618530273 88.49999237060547 Z" stroke="none"/>
                      <path d="M 44.99999618530273 2.999992370605469 C 39.32870864868164 2.999992370605469 33.82865142822266 4.11004638671875 28.65262603759766 6.299331665039062 C 23.65165710449219 8.414566040039062 19.15968322753906 11.44333648681641 15.301513671875 15.30150604248047 C 11.44333648681641 19.15967559814453 8.414566040039062 23.65164947509766 6.299339294433594 28.65262222290039 C 4.110054016113281 33.82864761352539 2.999992370605469 39.32870483398438 2.999992370605469 44.99999237060547 C 2.999992370605469 50.67127990722656 4.110054016113281 56.17132186889648 6.299339294433594 61.34736633300781 C 8.414566040039062 66.34833526611328 11.44333648681641 70.84029388427734 15.301513671875 74.69846343994141 C 19.15968322753906 78.55663299560547 23.65165710449219 81.58540344238281 28.65262603759766 83.70063781738281 C 33.82865142822266 85.88992309570312 39.32870864868164 86.99997711181641 44.99999618530273 86.99997711181641 C 50.67128372192383 86.99997711181641 56.17134094238281 85.88992309570312 61.34736633300781 83.70063781738281 C 66.34834289550781 81.58540344238281 70.84030914306641 78.55663299560547 74.69847869873047 74.69846343994141 C 78.55665588378906 70.84029388427734 81.58542633056641 66.34833526611328 83.70065307617188 61.34736633300781 C 85.88993835449219 56.17132186889648 87 50.67127990722656 87 44.99999237060547 C 87 39.32870483398438 85.88993835449219 33.82864761352539 83.70065307617188 28.65262222290039 C 81.58542633056641 23.65164947509766 78.55665588378906 19.15967559814453 74.69847869873047 15.30150604248047 C 70.84030914306641 11.44333648681641 66.34834289550781 8.414566040039062 61.34736633300781 6.299331665039062 C 56.17134094238281 4.11004638671875 50.67128372192383 2.999992370605469 44.99999618530273 2.999992370605469 M 44.99999618530273 -7.62939453125e-06 C 69.85281372070312 -7.62939453125e-06 90 20.14717864990234 90 44.99999237060547 C 90 69.85279083251953 69.85281372070312 89.99997711181641 44.99999618530273 89.99997711181641 C 20.14717864990234 89.99997711181641 -7.62939453125e-06 69.85279083251953 -7.62939453125e-06 44.99999237060547 C -7.62939453125e-06 20.14717864990234 20.14717864990234 -7.62939453125e-06 44.99999618530273 -7.62939453125e-06 Z" stroke="none" fill="#887013"/>
                    </g>
                  </g>
                </g>
              </g>
            </g>
          </g>
        </g>
      </g>
      <g id="kpi_3862940" transform="translate(656.723 1727.898)">
        <path id="Path_1042245" data-name="Path 1042245" d="M5,49.1V19.728A1.728,1.728,0,0,1,6.728,18H49.916a1.728,1.728,0,0,1,1.728,1.728V49.1" transform="translate(-0.545 -2.316)" fill="#ccc"/>
        <path id="Path_1042246" data-name="Path 1042246" d="M9,49.641V22H48.733V49.641" transform="translate(-1.09 -2.861)" fill="#f2f2f2"/>
        <path id="Path_1042247" data-name="Path 1042247" d="M31.183,43.183H26A5.183,5.183,0,0,1,31.183,38Z" transform="translate(-3.406 -5.041)" fill="#5e87ca"/>
        <path id="Path_1042248" data-name="Path 1042248" d="M35.665,46.848,32,43.183V38a5.183,5.183,0,0,1,3.665,8.848Z" transform="translate(-4.223 -5.041)" fill="#4c6cb5"/>
        <path id="Path_1042249" data-name="Path 1042249" d="M34.848,47.665A5.183,5.183,0,0,1,26,44h5.183Z" transform="translate(-3.406 -5.858)" fill="#3b5892"/>
        <path id="Path_1042250" data-name="Path 1042250" d="M23.713,36.351a8.61,8.61,0,0,0-2.53,6.108H16a13.781,13.781,0,0,1,4.048-9.773Z" transform="translate(-2.043 -4.317)" fill="#fce797"/>
        <path id="Path_1042251" data-name="Path 1042251" d="M30.459,28.071a13.781,13.781,0,0,0-9.773,4.048l3.665,3.665a8.61,8.61,0,0,1,6.108-2.53Z" transform="translate(-2.682 -3.688)" fill="#f9d266"/>
        <path id="Path_1042252" data-name="Path 1042252" d="M41.773,32.048l-3.665,3.665A8.61,8.61,0,0,0,32,33.183V28a13.781,13.781,0,0,1,9.773,4.048Z" transform="translate(-4.223 -3.678)" fill="#f0ae42"/>
        <path id="Path_1042253" data-name="Path 1042253" d="M42.736,32.686a13.781,13.781,0,0,1,4.048,9.773H41.6a8.61,8.61,0,0,0-2.53-6.108Z" transform="translate(-5.186 -4.317)" fill="#d5883e"/>
        <path id="Path_1042254" data-name="Path 1042254" d="M3.728,54H52.1a1.728,1.728,0,0,1,1.728,1.728v1.728a3.455,3.455,0,0,1-3.455,3.455H5.455A3.455,3.455,0,0,1,2,57.455V55.728A1.728,1.728,0,0,1,3.728,54Z" transform="translate(-0.136 -7.22)" fill="#939393"/>
        <path id="Path_1042255" data-name="Path 1042255" d="M51.235,54H3.728A1.728,1.728,0,0,0,2,55.728v1.728a3.413,3.413,0,0,0,.2,1.1H49.507a1.728,1.728,0,0,0,1.728-1.728Z" transform="translate(-0.136 -7.22)" fill="#b5b5b5"/>
        <g id="Group_1202352" data-name="Group 1202352" transform="translate(10.501 21.73)">
          <path id="Path_1042256" data-name="Path 1042256" d="M26,54l.864,3.455H35.5L36.365,54" transform="translate(-13.907 -28.951)" fill="#ccc"/>
          <path id="Path_1042257" data-name="Path 1042257" d="M13.728,28.455a1.728,1.728,0,1,1,1.728-1.728A1.728,1.728,0,0,1,13.728,28.455Z" transform="translate(-12 -25)" fill="#ccc"/>
          <path id="Path_1042258" data-name="Path 1042258" d="M49.728,28.455a1.728,1.728,0,1,1,1.728-1.728A1.728,1.728,0,0,1,49.728,28.455Z" transform="translate(-16.904 -25)" fill="#ccc"/>
        </g>
        <path id="Path_1042259" data-name="Path 1042259" d="M33.82,15.82,30.365,21,26.91,15.82H21.728A1.728,1.728,0,0,1,20,14.093V3.728A1.728,1.728,0,0,1,21.728,2H39A1.728,1.728,0,0,1,40.73,3.728V14.093A1.728,1.728,0,0,1,39,15.82Z" transform="translate(-2.588 -0.136)" fill="#b52f28"/>
        <path id="Path_1042260" data-name="Path 1042260" d="M38.97,11.986V2H21.728A1.728,1.728,0,0,0,20,3.728v8.258Z" transform="translate(-2.588 -0.136)" fill="#d23f34"/>
        <path id="Path_1042261" data-name="Path 1042261" d="M29.046,5H27.319a3.455,3.455,0,0,1-2.591,3.332V5H23v8.638h1.728V10.305a3.455,3.455,0,0,1,2.591,3.332h1.728a5.183,5.183,0,0,0-2.324-4.319A5.183,5.183,0,0,0,29.046,5Z" transform="translate(-2.997 -0.545)" fill="#e2e7f6"/>
        <path id="Path_1042262" data-name="Path 1042262" d="M34.455,5H31.864A.864.864,0,0,0,31,5.864v7.774h1.728V10.183h1.728a2.591,2.591,0,0,0,0-5.183Zm0,3.455H32.728V6.728h1.728a.864.864,0,0,1,0,1.728Z" transform="translate(-4.087 -0.545)" fill="#e2e7f6"/>
        <path id="Path_1042263" data-name="Path 1042263" d="M39,5h1.728v8.638H39Z" transform="translate(-5.177 -0.545)" fill="#e2e7f6"/>
        <path id="Path_1042264" data-name="Path 1042264" d="M51.962,45.916v-28.5a2.591,2.591,0,0,0-2.591-2.591H38.847a2.562,2.562,0,0,0,.159-.864V3.591A2.591,2.591,0,0,0,36.415,1H19.139a2.591,2.591,0,0,0-2.591,2.591V13.957a2.562,2.562,0,0,0,.159.864H6.183a2.591,2.591,0,0,0-2.591,2.591v28.5A2.591,2.591,0,0,0,1,48.507v1.728a4.324,4.324,0,0,0,4.319,4.319H50.235a4.324,4.324,0,0,0,4.319-4.319V48.507a2.591,2.591,0,0,0-2.591-2.591Zm-1.728-28.5v28.5H48.507V19.139a.864.864,0,0,0-.864-.864h-17.1l1.152-1.728H49.371A.864.864,0,0,1,50.235,17.412ZM8.774,45.916V20H26.163l.895,1.341a.864.864,0,0,0,1.437,0L29.39,20H46.78V45.916Zm23.079,1.728-.432,1.728H24.133L23.7,47.644ZM18.275,13.957V3.591a.864.864,0,0,1,.864-.864H36.415a.864.864,0,0,1,.864.864V13.957a.864.864,0,0,1-.864.864H31.232a.864.864,0,0,0-.719.384l-2.736,4.107-2.736-4.1a.864.864,0,0,0-.719-.388H19.139a.864.864,0,0,1-.864-.864ZM5.319,17.412a.864.864,0,0,1,.864-.864H23.86l1.153,1.728H7.91a.864.864,0,0,0-.864.864V45.916H5.319ZM52.826,50.235a2.591,2.591,0,0,1-2.591,2.591H5.319a2.591,2.591,0,0,1-2.591-2.591V48.507a.864.864,0,0,1,.864-.864H21.92l.7,2.8a.864.864,0,0,0,.838.655H32.1a.864.864,0,0,0,.838-.655l.7-2.8H51.962a.864.864,0,0,1,.864.864Z"/>
        <path id="Path_1042265" data-name="Path 1042265" d="M29.684,27A14.7,14.7,0,0,0,15,41.684a.864.864,0,0,0,.864.864h5.183a.864.864,0,0,0,.864-.864,7.774,7.774,0,0,1,15.548,0,.864.864,0,0,0,.864.864H43.5a.864.864,0,0,0,.864-.864A14.7,14.7,0,0,0,29.684,27ZM20.221,40.82H16.756a12.9,12.9,0,0,1,3.183-7.66l2.453,2.453a9.457,9.457,0,0,0-2.171,5.207Zm3.393-6.428-2.447-2.447A12.878,12.878,0,0,1,28.82,28.77v3.455a9.449,9.449,0,0,0-5.206,2.167Zm6.933-2.168V28.769A12.878,12.878,0,0,1,38.2,31.944l-2.447,2.447a9.449,9.449,0,0,0-5.206-2.167Zm8.6,8.6a9.457,9.457,0,0,0-2.171-5.207l2.453-2.453a12.9,12.9,0,0,1,3.183,7.66Z" transform="translate(-1.907 -3.542)"/>
        <path id="Path_1042266" data-name="Path 1042266" d="M31.046,37a6.046,6.046,0,1,0,6.046,6.046A6.046,6.046,0,0,0,31.046,37Zm-.864,1.814v3.369H26.814a4.333,4.333,0,0,1,3.369-3.369Zm-3.369,5.1h3.874l2.736,2.736a4.311,4.311,0,0,1-6.61-2.736Zm7.831,1.514L31.91,42.689V38.814a4.311,4.311,0,0,1,2.736,6.61Z" transform="translate(-3.27 -4.904)"/>
        <path id="Path_1042267" data-name="Path 1042267" d="M27.319,13.638h1.728a5.183,5.183,0,0,0-2.324-4.319A5.183,5.183,0,0,0,29.046,5H27.319a3.455,3.455,0,0,1-2.591,3.332V5H23v8.638h1.728V10.305A3.455,3.455,0,0,1,27.319,13.638Z" transform="translate(-2.997 -0.545)"/>
        <path id="Path_1042268" data-name="Path 1042268" d="M32.728,10.183h1.728a2.591,2.591,0,0,0,0-5.183H31.864A.864.864,0,0,0,31,5.864v7.774h1.728Zm0-3.455h1.728a.864.864,0,0,1,0,1.728H32.728Z" transform="translate(-4.087 -0.545)"/>
        <path id="Path_1042269" data-name="Path 1042269" d="M39,5h1.728v8.638H39Z" transform="translate(-5.177 -0.545)"/>
        <circle id="Ellipse_12577" data-name="Ellipse 12577" cx="1.5" cy="1.5" r="1.5" transform="translate(10.777 21.777)"/>
        <circle id="Ellipse_12578" data-name="Ellipse 12578" cx="1.5" cy="1.5" r="1.5" transform="translate(41.777 21.777)"/>
      </g>
    </g>
  </g>
</svg>
