<svg xmlns="http://www.w3.org/2000/svg" xmlns:xlink="http://www.w3.org/1999/xlink" width="113" height="113" viewBox="0 0 113 113">
  <defs>
    <filter id="Path_982547" x="0" y="0" width="113" height="113" filterUnits="userSpaceOnUse">
      <feOffset dy="3" input="SourceAlpha"/>
      <feGaussianBlur stdDeviation="3" result="blur"/>
      <feFlood flood-opacity="0.161"/>
      <feComposite operator="in" in2="blur"/>
      <feComposite in="SourceGraphic"/>
    </filter>
  </defs>
  <g id="Group_1202725" data-name="Group 1202725" transform="translate(-4664.49 -2700.023)">
    <g id="Group_1202328" data-name="Group 1202328">
      <g id="Group_1202074" data-name="Group 1202074" transform="translate(3871 324.215)">
        <g id="Group_1178713" data-name="Group 1178713" transform="translate(0 886.374)">
          <g id="Group_1176922" data-name="Group 1176922" transform="translate(802.49 1495.435)">
            <g id="Group_1172322" data-name="Group 1172322" transform="translate(0 0)">
              <g id="Group_1164700" data-name="Group 1164700">
                <g id="Group_1160931" data-name="Group 1160931">
                  <g id="Group_1160749" data-name="Group 1160749">
                    <g id="Group_1158891" data-name="Group 1158891">
                      <g id="Group_1157406" data-name="Group 1157406">
                        <g id="Group_1155793" data-name="Group 1155793">
                          <g id="Group_1154704" data-name="Group 1154704">
                            <g id="Group_1150790" data-name="Group 1150790">
                              <g id="Group_1154214" data-name="Group 1154214">
                                <g id="Group_1152583" data-name="Group 1152583">
                                  <g id="Group_1146973" data-name="Group 1146973">
                                    <g id="Group_1146954" data-name="Group 1146954">
                                      <g transform="matrix(1, 0, 0, 1, -9, -6)" filter="url(#Path_982547)">
                                        <g id="Path_982547-2" data-name="Path 982547" transform="translate(9 6)" fill="#fbedfe">
                                          <path d="M 47.5000114440918 93.49987030029297 C 41.28938293457031 93.49987030029297 35.26534652709961 92.28384399414062 29.5951976776123 89.88558959960938 C 24.11773109436035 87.56881713867188 19.19814491271973 84.25183868408203 14.97310447692871 80.02680206298828 C 10.74805164337158 75.80176544189453 7.43107795715332 70.88218688964844 5.114304542541504 65.40472412109375 C 2.716038227081299 59.73458862304688 1.500011444091797 53.71054840087891 1.500011444091797 47.49993515014648 C 1.500011444091797 41.28932189941406 2.716038227081299 35.26528167724609 5.114304542541504 29.59514808654785 C 7.43107795715332 24.1176815032959 10.74805164337158 19.1981086730957 14.97310447692871 14.97306823730469 C 19.19814491271973 10.74802875518799 24.11773109436035 7.431055068969727 29.5951976776123 5.11428165435791 C 35.26534652709961 2.716028451919556 41.28938293457031 1.500001788139343 47.5000114440918 1.500001788139343 C 53.71063995361328 1.500001788139343 59.73467636108398 2.716028451919556 65.40482330322266 5.11428165435791 C 70.88229370117188 7.431055068969727 75.8018798828125 10.74802875518799 80.02691650390625 14.97306823730469 C 84.25196838378906 19.1981086730957 87.56894683837891 24.1176815032959 89.88571929931641 29.59514808654785 C 92.28398132324219 35.26528167724609 93.50001525878906 41.28932189941406 93.50001525878906 47.49993515014648 C 93.50001525878906 53.71054840087891 92.28398132324219 59.73458862304688 89.88571929931641 65.40472412109375 C 87.56894683837891 70.88218688964844 84.25196838378906 75.80176544189453 80.02691650390625 80.02680206298828 C 75.8018798828125 84.25183868408203 70.88229370117188 87.56881713867188 65.40482330322266 89.88558959960938 C 59.73467636108398 92.28384399414062 53.71063995361328 93.49987030029297 47.5000114440918 93.49987030029297 Z" stroke="none"/>
                                          <path d="M 47.5000114440918 3 C 41.49122619628906 3 35.66378021240234 4.1761474609375 30.17951965332031 6.495796203613281 C 24.880859375 8.7369384765625 20.12153625488281 11.94596862792969 16.03376770019531 16.03373718261719 C 11.94598388671875 20.12149047851562 8.736968994140625 24.88081359863281 6.495811462402344 30.17947387695312 C 4.176162719726562 35.66371917724609 3.000007629394531 41.49116516113281 3.000007629394531 47.49993515014648 C 3.000007629394531 53.50870513916016 4.176162719726562 59.33615112304688 6.495811462402344 64.82039642333984 C 8.736968994140625 70.11905670166016 11.94598388671875 74.87837982177734 16.03376770019531 78.96613311767578 C 20.12153625488281 83.05390167236328 24.880859375 86.26293182373047 30.17951965332031 88.50407409667969 C 35.66378021240234 90.82372283935547 41.49122619628906 91.99987030029297 47.5000114440918 91.99987030029297 C 53.50879669189453 91.99987030029297 59.33624267578125 90.82372283935547 64.82050323486328 88.50407409667969 C 70.11916351318359 86.26293182373047 74.87848663330078 83.05390167236328 78.96625518798828 78.96613311767578 C 83.05403900146484 74.87837982177734 86.2630615234375 70.11905670166016 88.50421142578125 64.82039642333984 C 90.82386016845703 59.33615112304688 92.00001525878906 53.50870513916016 92.00001525878906 47.49993515014648 C 92.00001525878906 41.49116516113281 90.82386016845703 35.66371917724609 88.50421142578125 30.17947387695312 C 86.2630615234375 24.88081359863281 83.05403900146484 20.12149047851562 78.96625518798828 16.03373718261719 C 74.87848663330078 11.94596862792969 70.11916351318359 8.7369384765625 64.82050323486328 6.495796203613281 C 59.33624267578125 4.1761474609375 53.50879669189453 3 47.5000114440918 3 M 47.5000114440918 0 C 73.73353576660156 0 95.00001525878906 21.26644134521484 95.00001525878906 47.49993515014648 C 95.00001525878906 73.73342895507812 73.73353576660156 94.99987030029297 47.5000114440918 94.99987030029297 C 21.26648712158203 94.99987030029297 7.62939453125e-06 73.73342895507812 7.62939453125e-06 47.49993515014648 C 7.62939453125e-06 21.26644134521484 21.26648712158203 0 47.5000114440918 0 Z" stroke="none" fill="#7b3289"/>
                                        </g>
                                      </g>
                                    </g>
                                  </g>
                                </g>
                              </g>
                            </g>
                          </g>
                        </g>
                      </g>
                    </g>
                  </g>
                </g>
              </g>
            </g>
          </g>
        </g>
      </g>
      <g id="idea_10061906" transform="translate(4650.764 2722.798)">
        <path id="Path_1042169" data-name="Path 1042169" d="M81.213,160.714a14.9,14.9,0,0,1-.447-3.622,12.149,12.149,0,0,1,.337-2.933l.086-.347.288.211a12.205,12.205,0,0,0,1.11.72l.172.1-.065.188a19.027,19.027,0,0,0-1.008,5.632Z" transform="translate(-31.571 -135.352)" fill="#53290e"/>
        <path id="Path_1042170" data-name="Path 1042170" d="M186.855,219.725a1.542,1.542,0,0,1-1.54-1.54v-1.544h4.833v1.544a1.542,1.542,0,0,1-1.54,1.54Zm1.488-.814v-1.455H187.12v1.455Z" transform="translate(-123.572 -190.64)" fill="#f7a166"/>
        <path id="Path_1042171" data-name="Path 1042171" d="M106.9,173.678v-1.32a.613.613,0,0,0-.612-.612h-6.057a.609.609,0,0,0-.6.473l-.043.186h-1l.009-.249a17.594,17.594,0,0,1,.863-4.893l.082-.249.241.1a20.094,20.094,0,0,0,6.88,1.526c.376.019.756.029,1.13.029a17.442,17.442,0,0,0,6.936-1.315l.245-.108.08.256a17.66,17.66,0,0,1,.786,4.65l.009.249h-.77l-.043-.186a.609.609,0,0,0-.6-.473h-6.057a.613.613,0,0,0-.612.612v1.32H106.9Z" transform="translate(-47.259 -146.969)" fill="#f7a166"/>
        <path id="Path_1042172" data-name="Path 1042172" d="M245.23,161.213a18.816,18.816,0,0,0-.943-5.435l-.059-.178.158-.1a8.737,8.737,0,0,0,1.066-.8l.3-.264.091.39a12.35,12.35,0,0,1,.306,2.815,14.907,14.907,0,0,1-.447,3.622Z" transform="translate(-175.415 -135.903)" fill="#53290e"/>
        <path id="Path_1042173" data-name="Path 1042173" d="M290.425,302.643a2.792,2.792,0,0,1-2.622-1.853l-.115-.321h10.729l-.114.321a2.792,2.792,0,0,1-2.622,1.853Z" transform="translate(-213.66 -264.407)" fill="#404c7c"/>
        <path id="Path_1042174" data-name="Path 1042174" d="M84.2,86.54c-.345,0-.7-.009-1.043-.027a17.741,17.741,0,0,1-7.933-2.192c-2.205-1.291-3.42-2.911-3.42-4.56a4.034,4.034,0,0,1,1.73-3.137l.172-.14.153.161a5.308,5.308,0,0,0,3.444,1.56c.13.009.261.014.39.014a4.486,4.486,0,0,0,3.353-1.358l.013-.013a6.985,6.985,0,0,1,4.928-1.777,10.846,10.846,0,0,1,4.156.861c2.658,1.133,4.309,3.063,4.309,5.037a3.839,3.839,0,0,1-1.35,2.8c-1.823,1.734-5.152,2.769-8.9,2.769h0Z" transform="translate(-23.681 -66.061)" fill="#6c3315"/>
        <path id="Path_1042175" data-name="Path 1042175" d="M265.773,86.177l-.009-.231c-.153-3.913-1.387-5.541-2.638-6.872l-.08-.085.017-.115a16.25,16.25,0,0,0,.179-2.4,12.6,12.6,0,0,0-.672-4.23l-.038-.107.058-.1a4.625,4.625,0,0,0,.683-2.4,5.276,5.276,0,0,0-.922-2.916l-.09-.138.1-.134a10.261,10.261,0,0,1,18.579,6c0,3.788-1.117,4.955-2.41,6.307s-2.768,2.894-2.936,7.182l-.009.231h-9.808Zm4.271-7.82,2.448-9.143-1.182-.317-2.448,9.143ZM264.46,73a.613.613,0,0,0,0,.865l3,3,.865-.865-2.57-2.57,2.57-2.569L267.462,70Zm9.431,3.857,3-3a.613.613,0,0,0,0-.865l-3-3-.865.865,2.57,2.57-2.57,2.57Z" transform="translate(-191.283 -54.737)" fill="#f7de10"/>
        <path id="Path_1042176" data-name="Path 1042176" d="M287.279,272.163h10.827v2.173H287.279Z" transform="translate(-213.299 -239.499)" fill="#4f5d99"/>
        <path id="Path_1042177" data-name="Path 1042177" d="M118.891,219.725a1.542,1.542,0,0,1-1.54-1.54v-1.544h4.833v1.544a1.544,1.544,0,0,1-1.544,1.54Zm1.488-.814v-1.455h-1.224v1.455Z" transform="translate(-63.765 -190.64)" fill="#f7a166"/>
        <path id="Path_1042178" data-name="Path 1042178" d="M86.341,408.455v-11.9a.561.561,0,0,1,.554-.554h18.111a.563.563,0,0,1,.557.554v11.9H86.341Z" transform="translate(-36.477 -348.469)" fill="#4f5d99"/>
        <g id="Group_1202327" data-name="Group 1202327" transform="translate(46.353 26.659)">
          <path id="Path_1042179" data-name="Path 1042179" d="M57.086,422.235v-4.916h2.287v7.828Z" transform="translate(-57.086 -393.893)" fill="#f7a166"/>
          <path id="Path_1042180" data-name="Path 1042180" d="M107.3,234.084a7.4,7.4,0,0,1-5.894-3.431,15.684,15.684,0,0,1-2.712-8.271l-.014-.253H99.7v.885a2.767,2.767,0,0,0,2.764,2.764h1.749a2.78,2.78,0,0,0,2.706-2.186l.041-.19h.918l.041.19a2.777,2.777,0,0,0,2.7,2.186h1.752a2.767,2.767,0,0,0,2.764-2.764v-.885h.786l-.014.253a15.684,15.684,0,0,1-2.712,8.271A7.4,7.4,0,0,1,107.3,234.084Zm-2.747-4.661a3.329,3.329,0,0,0,5.495,0l.391-.471-.942-.781-.391.471a2.122,2.122,0,0,1-3.611,0l-.391-.471-.942.782Z" transform="translate(-93.688 -222.129)" fill="#f7a166"/>
          <path id="Path_1042181" data-name="Path 1042181" d="M141.837,327.374a3.914,3.914,0,0,1-3.91-3.91v-.837l.355.193a7.3,7.3,0,0,0,7.11,0l.355-.193v.836A3.914,3.914,0,0,1,141.837,327.374Z" transform="translate(-128.225 -310.565)" fill="#f7a166"/>
          <path id="Path_1042182" data-name="Path 1042182" d="M256.7,417.319h2.288v2.36H256.7Z" transform="translate(-232.744 -393.893)" fill="#f7a166"/>
          <path id="Path_1042183" data-name="Path 1042183" d="M256.7,447.179h2.288v1.332l-2.288,2.912Z" transform="translate(-232.744 -420.169)" fill="#f7a166"/>
        </g>
        <path id="Path_1042184" data-name="Path 1042184" d="M81.043,323.59v-.782a1.781,1.781,0,0,0-1.781-1.778H61.151a1.78,1.78,0,0,0-1.778,1.778v.782H57.086v-7.143l.089-.072a21.915,21.915,0,0,1,7.881-4.141l.13-.036.1.092q.1.092.2.181l.081.072v1.744a5.134,5.134,0,0,0,10.267,0v-1.918l.314.1a22.186,22.186,0,0,1,7.1,3.906l.089.072v7.143H81.043Z" transform="translate(-10.733 -274.728)" fill="#293d7c"/>
        <path id="Path_1042185" data-name="Path 1042185" d="M57.033,34.107l-.544-.656L57.8,32.364l.544.656a1.888,1.888,0,0,0,3.241,0l.544-.656,1.311,1.088-.544.656a3.567,3.567,0,0,1-5.864,0ZM76.179,22.468l1.2-1.2-2.57-2.57,2.57-2.57-1.2-1.2-3.172,3.172a.852.852,0,0,0,0,1.2ZM73.227,4.91,71.485,1.892l-1.476.852,1.742,3.018ZM56.854,26.575h-1.7V28.51h1.7Zm8.157,0h-1.7V28.51h1.7Zm18.962-7.892-2.57,2.57,1.2,1.2,3.172-3.172a.852.852,0,0,0,0-1.2l-3.172-3.172-1.2,1.2Zm-5.043,5.23L81.5,14.308l-1.646-.441-2.572,9.606ZM94.8,9.384l-.853-1.475L90.925,9.655l.853,1.475Zm.767,32.284v5.17a7.079,7.079,0,0,1-7.071,7.071H74.061v1.3a.852.852,0,0,1-.182.526l-3.147,4.006h3.329v1.7H44.889v-1.7h3.329l-3.147-4.006a.851.851,0,0,1-.182-.526V41.431a.852.852,0,0,1,.307-.655,23.721,23.721,0,0,1,7.924-4.438q-.2-.26-.393-.537a15.825,15.825,0,0,1-2.274-5.126,15.713,15.713,0,0,1-2.722-8.935,12.884,12.884,0,0,1,.622-4.122,5.788,5.788,0,0,1-1.7-3.918A5.885,5.885,0,0,1,49.7,8.864a.852.852,0,0,1,1.191.27,3.659,3.659,0,0,0,2.829,1.551A3.126,3.126,0,0,0,56.289,9.8c.015-.017.031-.034.048-.05,2.885-2.769,7.451-2.613,10.7-1.229a10.441,10.441,0,0,1,3.11,2,11.725,11.725,0,0,1,20.975,7.2c0,4.375-1.432,5.871-2.816,7.319-1.228,1.284-2.393,2.5-2.533,6.236a.852.852,0,0,1,.5.777V34.6h2.221a7.078,7.078,0,0,1,7.07,7.07ZM71.269,11.86a5.551,5.551,0,0,1,.961,3.047,4.873,4.873,0,0,1-.717,2.522A12.822,12.822,0,0,1,72.2,21.74a16.44,16.44,0,0,1-.182,2.434c1.247,1.327,2.545,2.968,2.7,7.027h9.346c.172-4.378,1.671-5.946,3-7.338,1.258-1.314,2.344-2.45,2.344-6.141A10.021,10.021,0,0,0,71.269,11.86ZM84.567,34.6V32.9H74.22V34.6H84.567Zm-1.29,1.7H74.37A2.548,2.548,0,0,0,76.766,38h5.256a2.548,2.548,0,0,0,2.4-1.693ZM48.359,13.7c0,3.228,5.095,6.21,11.125,6.513,4.071.207,7.813-.819,9.767-2.676a3.609,3.609,0,0,0,1.275-2.629c0-1.876-1.6-3.721-4.163-4.816-2.72-1.16-6.5-1.338-8.825.87A4.833,4.833,0,0,1,53.6,12.384,5.553,5.553,0,0,1,50,10.749,3.883,3.883,0,0,0,48.359,13.7ZM70.2,18.98a8.955,8.955,0,0,1-1.1.819,19.165,19.165,0,0,1,.955,5.5,14.668,14.668,0,0,0,.44-3.563A12.084,12.084,0,0,0,70.2,18.98Zm-19.3.62a12.408,12.408,0,0,1-1.132-.735,11.875,11.875,0,0,0-.33,2.875,14.667,14.667,0,0,0,.44,3.564A19.144,19.144,0,0,1,50.9,19.6Zm.687,5.6h.561a.852.852,0,0,1,.829-.659H59.03a.852.852,0,0,1,.852.852v1.08h.4v-1.08a.852.852,0,0,1,.852-.852h6.057a.852.852,0,0,1,.829.659h.33a17.5,17.5,0,0,0-.775-4.587,17.7,17.7,0,0,1-7.033,1.335q-.565,0-1.141-.029a20.277,20.277,0,0,1-6.963-1.545,17.453,17.453,0,0,0-.851,4.827Zm10.4,1.045v1.3a1.3,1.3,0,0,0,1.3,1.3h1.752a1.3,1.3,0,0,0,1.3-1.3v-1.3Zm-8.157,0v1.3a1.3,1.3,0,0,0,1.3,1.3h1.749a1.3,1.3,0,0,0,1.3-1.3v-1.3Zm6.139,12.134c4.4,0,8.014-5.06,8.367-11.475h-.292v.645a3.008,3.008,0,0,1-3,3H63.283a3.009,3.009,0,0,1-2.938-2.376h-.53a3.012,3.012,0,0,1-2.941,2.376H55.126a3.008,3.008,0,0,1-3-3V26.9H51.6C51.951,33.315,55.568,38.375,59.965,38.375Zm0,1.7a7.629,7.629,0,0,1-3.67-.954v.433a3.67,3.67,0,0,0,7.34,0v-.432a7.633,7.633,0,0,1-3.67.953ZM48.4,50.326H46.593v4.593l1.807,2.3ZM68.846,48.08a.32.32,0,0,0-.317-.314H50.418a.318.318,0,0,0-.314.314V59.745H68.846Zm3.511,5.829H70.55v3.31l1.807-2.3Zm0-3.584H70.55v1.88h1.807Zm0-8.492a21.931,21.931,0,0,0-7.019-3.864v1.588a5.374,5.374,0,0,1-10.747,0V37.922q-.1-.091-.2-.185a21.656,21.656,0,0,0-7.794,4.1v6.788H48.4V48.08a2.02,2.02,0,0,1,2.018-2.018H68.529A2.022,2.022,0,0,1,70.55,48.08v.542h1.807V41.834Zm21.5-.165A5.373,5.373,0,0,0,88.492,36.3H86.185a4.257,4.257,0,0,1-4.163,3.4H76.765a4.254,4.254,0,0,1-4.249-4.249v-3.4a.852.852,0,0,1,.5-.777A8.317,8.317,0,0,0,71.56,26.26a14.988,14.988,0,0,1-2.083,4.414A15.82,15.82,0,0,1,67.2,35.8q-.292.421-.6.8a24.009,24.009,0,0,1,7.154,4.172.852.852,0,0,1,.307.655V52.205H88.493a5.373,5.373,0,0,0,5.367-5.367v-5.17ZM80.246,0h-1.7v3.49h1.7Zm8.533,2.744L87.3,1.892,85.561,4.91l1.476.852Z"/>
      </g>
    </g>
  </g>
</svg>
