<svg xmlns="http://www.w3.org/2000/svg" width="43.377" height="39.595" viewBox="0 0 43.377 39.595">
  <g id="Group_1202739" data-name="Group 1202739" transform="translate(-287.867 -5652.784)">
    <g id="Layer_x0020_1" transform="translate(287.867 5463.784)">
      <path id="Path_1041974" data-name="Path 1041974" d="M4.993,227.444v-5.273a.581.581,0,0,1,1.161,0v5.273H19.962v-5.273a.576.576,0,0,1,1.151,0v5.273h3.842v-2.191c0-3.9-2.752-7.074-6.134-7.074H16.81l-3.322,3.782a.583.583,0,0,1-.871,0L9.3,218.178h-2c-3.382,0-6.134,3.172-6.134,7.074v2.191Zm28.148,1.151H27.357a.579.579,0,0,1-.57-.58V220.27a.579.579,0,0,1,.57-.58h5.784a.581.581,0,0,1,.58.58v7.745A.581.581,0,0,1,33.141,228.595Zm-5.2-1.151H32.56v-6.6H27.937Zm13.028,1.151H35.182a.572.572,0,0,1-.57-.58V220.27a.572.572,0,0,1,.57-.58h5.784a.572.572,0,0,1,.57.58v7.745A.572.572,0,0,1,40.966,228.595Zm-5.2-1.151h4.623v-6.6H35.762ZM38.934,192.6a1.983,1.983,0,0,1-.35-.03l-1.851,3.2a1.8,1.8,0,1,1-3.152,1.051l-1.7-.73a1.846,1.846,0,0,1-2.141.41L27.7,198.546a1.808,1.808,0,1,1-.821-.811l2.051-2.051a1.821,1.821,0,0,1,1.611-2.6,1.8,1.8,0,0,1,1.791,1.941l1.711.73a1.855,1.855,0,0,1,1.691-.56l1.851-3.2a1.8,1.8,0,1,1,1.351.61Zm0-2.452a.651.651,0,0,0,0,1.3A.651.651,0,0,0,38.934,190.151Zm-3.552,6.164a.646.646,0,0,0,0,1.291A.646.646,0,0,0,35.382,196.315Zm-4.843-2.071a.646.646,0,0,0,0,1.291A.646.646,0,0,0,30.539,194.243Zm-4.463,4.463a.646.646,0,0,0,0,1.291A.646.646,0,0,0,26.076,198.706ZM42.8,215.967H22.224a.576.576,0,0,1,0-1.151h1.261v-6.234a.581.581,0,0,1,.58-.58h2.512a.581.581,0,0,1,.58.58v6.234h1.121V202.158a.572.572,0,0,1,.58-.57H31.37a.572.572,0,0,1,.58.57v12.658h1.121V205.7a.581.581,0,0,1,.58-.58h2.512a.581.581,0,0,1,.58.58v9.116h1.121V196.255a.577.577,0,0,1,.57-.57h2.522a.579.579,0,0,1,.58.57v18.562c.77,0,1.841-.2,1.841.57A.581.581,0,0,1,42.8,215.967Zm-18.161-1.151H26v-5.664H24.635Zm4.793,0h1.361V202.739H29.428Zm4.793,0h1.361v-8.545H34.221Zm4.793,0h1.361V196.835H39.014Zm-25.956,1.291a6.5,6.5,0,0,1-2.381-.45l-.48,1.791,2.862,3.262,2.852-3.262-.48-1.791A6.45,6.45,0,0,1,13.058,216.107Zm-3.442-.971a6.6,6.6,0,0,1-3.142-5.614v-1.431a8.61,8.61,0,0,1,2.632-8.866c2.1-1.911,4.613-2.482,6.7-1.511a.578.578,0,0,1,.04,1.021c-.03.02-.07.05-.12.08a4.737,4.737,0,0,1,3.072,1.991,8.289,8.289,0,0,1,.841,7.295v1.421a6.582,6.582,0,0,1-3.152,5.614l.5,1.881h1.831c4.013,0,7.285,3.692,7.285,8.235v2.762a.581.581,0,0,1-.58.58H.58a.581.581,0,0,1-.58-.58v-2.762c0-4.543,3.272-8.235,7.295-8.235H9.116Zm-1.991-7.084v1.471a5.428,5.428,0,0,0,10.857,0v-1.151a4.808,4.808,0,0,1-2.472-3.552c-3.492,2-6.254-.05-7.325.67C8.235,205.8,7.895,206.641,7.625,208.052Zm-.37-2.612c1.781-3.172,4.623,1,8.876-2.071a.588.588,0,0,1,.921.43,4.084,4.084,0,0,0,1.671,3.382c.861-3.132-.49-7.475-4.2-7.285-.6.03-.9-.61-.15-1.431C10.847,197.866,7.435,201.878,7.255,205.44Z" fill-rule="evenodd"/>
    </g>
  </g>
</svg>
