<svg xmlns="http://www.w3.org/2000/svg" xmlns:xlink="http://www.w3.org/1999/xlink" width="113" height="113" viewBox="0 0 113 113">
  <defs>
    <filter id="Path_982547" x="0" y="0" width="113" height="113" filterUnits="userSpaceOnUse">
      <feOffset dy="3" input="SourceAlpha"/>
      <feGaussianBlur stdDeviation="3" result="blur"/>
      <feFlood flood-opacity="0.161"/>
      <feComposite operator="in" in2="blur"/>
      <feComposite in="SourceGraphic"/>
    </filter>
  </defs>
  <g id="Group_1202723" data-name="Group 1202723" transform="translate(-1109.49 -2700.023)">
    <g id="Group_1202302" data-name="Group 1202302">
      <g id="Group_1202073" data-name="Group 1202073" transform="translate(316 324.215)">
        <g id="Group_1178713" data-name="Group 1178713" transform="translate(0 886.374)">
          <g id="Group_1176922" data-name="Group 1176922" transform="translate(802.49 1495.435)">
            <g id="Group_1172322" data-name="Group 1172322" transform="translate(0 0)">
              <g id="Group_1164700" data-name="Group 1164700">
                <g id="Group_1160931" data-name="Group 1160931">
                  <g id="Group_1160749" data-name="Group 1160749">
                    <g id="Group_1158891" data-name="Group 1158891">
                      <g id="Group_1157406" data-name="Group 1157406">
                        <g id="Group_1155793" data-name="Group 1155793">
                          <g id="Group_1154704" data-name="Group 1154704">
                            <g id="Group_1150790" data-name="Group 1150790">
                              <g id="Group_1154214" data-name="Group 1154214">
                                <g id="Group_1152583" data-name="Group 1152583">
                                  <g id="Group_1146973" data-name="Group 1146973">
                                    <g id="Group_1146954" data-name="Group 1146954">
                                      <g transform="matrix(1, 0, 0, 1, -9, -6)" filter="url(#Path_982547)">
                                        <g id="Path_982547-2" data-name="Path 982547" transform="translate(9 6)" fill="#fbedfe">
                                          <path d="M 47.5000114440918 93.49987030029297 C 41.28938293457031 93.49987030029297 35.26534652709961 92.28384399414062 29.5951976776123 89.88558959960938 C 24.11773109436035 87.56881713867188 19.19814491271973 84.25183868408203 14.97310447692871 80.02680206298828 C 10.74805164337158 75.80176544189453 7.43107795715332 70.88218688964844 5.114304542541504 65.40472412109375 C 2.716038227081299 59.73458862304688 1.500011444091797 53.71054840087891 1.500011444091797 47.49993515014648 C 1.500011444091797 41.28932189941406 2.716038227081299 35.26528167724609 5.114304542541504 29.59514808654785 C 7.43107795715332 24.1176815032959 10.74805164337158 19.1981086730957 14.97310447692871 14.97306823730469 C 19.19814491271973 10.74802875518799 24.11773109436035 7.431055068969727 29.5951976776123 5.11428165435791 C 35.26534652709961 2.716028451919556 41.28938293457031 1.500001788139343 47.5000114440918 1.500001788139343 C 53.71063995361328 1.500001788139343 59.73467636108398 2.716028451919556 65.40482330322266 5.11428165435791 C 70.88229370117188 7.431055068969727 75.8018798828125 10.74802875518799 80.02691650390625 14.97306823730469 C 84.25196838378906 19.1981086730957 87.56894683837891 24.1176815032959 89.88571929931641 29.59514808654785 C 92.28398132324219 35.26528167724609 93.50001525878906 41.28932189941406 93.50001525878906 47.49993515014648 C 93.50001525878906 53.71054840087891 92.28398132324219 59.73458862304688 89.88571929931641 65.40472412109375 C 87.56894683837891 70.88218688964844 84.25196838378906 75.80176544189453 80.02691650390625 80.02680206298828 C 75.8018798828125 84.25183868408203 70.88229370117188 87.56881713867188 65.40482330322266 89.88558959960938 C 59.73467636108398 92.28384399414062 53.71063995361328 93.49987030029297 47.5000114440918 93.49987030029297 Z" stroke="none"/>
                                          <path d="M 47.5000114440918 3 C 41.49122619628906 3 35.66378021240234 4.1761474609375 30.17951965332031 6.495796203613281 C 24.880859375 8.7369384765625 20.12153625488281 11.94596862792969 16.03376770019531 16.03373718261719 C 11.94598388671875 20.12149047851562 8.736968994140625 24.88081359863281 6.495811462402344 30.17947387695312 C 4.176162719726562 35.66371917724609 3.000007629394531 41.49116516113281 3.000007629394531 47.49993515014648 C 3.000007629394531 53.50870513916016 4.176162719726562 59.33615112304688 6.495811462402344 64.82039642333984 C 8.736968994140625 70.11905670166016 11.94598388671875 74.87837982177734 16.03376770019531 78.96613311767578 C 20.12153625488281 83.05390167236328 24.880859375 86.26293182373047 30.17951965332031 88.50407409667969 C 35.66378021240234 90.82372283935547 41.49122619628906 91.99987030029297 47.5000114440918 91.99987030029297 C 53.50879669189453 91.99987030029297 59.33624267578125 90.82372283935547 64.82050323486328 88.50407409667969 C 70.11916351318359 86.26293182373047 74.87848663330078 83.05390167236328 78.96625518798828 78.96613311767578 C 83.05403900146484 74.87837982177734 86.2630615234375 70.11905670166016 88.50421142578125 64.82039642333984 C 90.82386016845703 59.33615112304688 92.00001525878906 53.50870513916016 92.00001525878906 47.49993515014648 C 92.00001525878906 41.49116516113281 90.82386016845703 35.66371917724609 88.50421142578125 30.17947387695312 C 86.2630615234375 24.88081359863281 83.05403900146484 20.12149047851562 78.96625518798828 16.03373718261719 C 74.87848663330078 11.94596862792969 70.11916351318359 8.7369384765625 64.82050323486328 6.495796203613281 C 59.33624267578125 4.1761474609375 53.50879669189453 3 47.5000114440918 3 M 47.5000114440918 0 C 73.73353576660156 0 95.00001525878906 21.26644134521484 95.00001525878906 47.49993515014648 C 95.00001525878906 73.73342895507812 73.73353576660156 94.99987030029297 47.5000114440918 94.99987030029297 C 21.26648712158203 94.99987030029297 7.62939453125e-06 73.73342895507812 7.62939453125e-06 47.49993515014648 C 7.62939453125e-06 21.26644134521484 21.26648712158203 0 47.5000114440918 0 Z" stroke="none" fill="#7b3289"/>
                                        </g>
                                      </g>
                                    </g>
                                  </g>
                                </g>
                              </g>
                            </g>
                          </g>
                        </g>
                      </g>
                    </g>
                  </g>
                </g>
              </g>
            </g>
          </g>
        </g>
      </g>
      <g id="lecturer_4728738" transform="translate(1134 2723)">
        <g id="Group_1202300" data-name="Group 1202300">
          <g id="Group_1202278" data-name="Group 1202278">
            <path id="Path_1042111" data-name="Path 1042111" d="M48,15h8a7.993,7.993,0,0,1-11.58,7.15Z" fill="#ff826e"/>
          </g>
          <g id="Group_1202279" data-name="Group 1202279">
            <path id="Path_1042112" data-name="Path 1042112" d="M51.36,7.74A8,8,0,0,1,56,15H48L44.42,7.85a7.98,7.98,0,0,1,6.94-.11Z" fill="#fcd770"/>
          </g>
          <g id="Group_1202280" data-name="Group 1202280">
            <path id="Path_1042113" data-name="Path 1042113" d="M42.17,20.48A8,8,0,0,1,44.42,7.85L48,15l-3.58,7.15A7.9,7.9,0,0,1,42.17,20.48Z" fill="#b4dd7f"/>
          </g>
          <g id="Group_1202281" data-name="Group 1202281">
            <path id="Path_1042114" data-name="Path 1042114" d="M59,40v2a1,1,0,0,1-1,1H56a1,1,0,0,1-1-1V40a1,1,0,0,1,1-1h2A1,1,0,0,1,59,40Z" fill="#ff826e"/>
          </g>
          <g id="Group_1202282" data-name="Group 1202282">
            <path id="Path_1042115" data-name="Path 1042115" d="M51,40v2a1,1,0,0,1-1,1H48a1,1,0,0,1-1-1V40a1,1,0,0,1,1-1h2A1,1,0,0,1,51,40Z" fill="#ff826e"/>
          </g>
          <g id="Group_1202283" data-name="Group 1202283">
            <path id="Path_1042116" data-name="Path 1042116" d="M43,40v2a1,1,0,0,1-1,1H40a1,1,0,0,1-1-1V40a1,1,0,0,1,1-1h2A1,1,0,0,1,43,40Z" fill="#ff826e"/>
          </g>
          <g id="Group_1202284" data-name="Group 1202284">
            <path id="Path_1042117" data-name="Path 1042117" d="M61,24v2a1,1,0,0,1-1,1H58a1,1,0,0,1-1-1V24a1,1,0,0,1,1-1h2A1,1,0,0,1,61,24Z" fill="#ff826e"/>
          </g>
          <g id="Group_1202285" data-name="Group 1202285">
            <path id="Path_1042118" data-name="Path 1042118" d="M61,4V6a1,1,0,0,1-1,1H58a1,1,0,0,1-1-1V4a1,1,0,0,1,1-1h2A1,1,0,0,1,61,4Z" fill="#ff826e"/>
          </g>
          <g id="Group_1202286" data-name="Group 1202286">
            <path id="Path_1042119" data-name="Path 1042119" d="M11.25,12.15l-1.84.37A3,3,0,0,0,7,15.46V17H6a1,1,0,0,0-1,1v1H4a3.033,3.033,0,0,0-1.13.22l-.71-4.24A11.811,11.811,0,0,1,2,13.01,12.018,12.018,0,0,1,14.01,1h9.98A12.014,12.014,0,0,1,36,13.01a11.81,11.81,0,0,1-.16,1.97l-.71,4.24A3.033,3.033,0,0,0,34,19H33V18a1,1,0,0,0-1-1H31V14.61a2.993,2.993,0,0,0-1.34-2.5l-.83-.56A2.329,2.329,0,0,1,26.68,13H14.12a5.28,5.28,0,0,1-2.87-.85Z" fill="#656d78"/>
          </g>
          <g id="Group_1202287" data-name="Group 1202287">
            <path id="Path_1042120" data-name="Path 1042120" d="M32.14,37.57l1.73,6.9-7.18,2.05a10.187,10.187,0,0,0-5.51-6.75l.01-.01Z" fill="#fcd770"/>
          </g>
          <g id="Group_1202288" data-name="Group 1202288">
            <path id="Path_1042121" data-name="Path 1042121" d="M20,55h3v6H17a8,8,0,0,1-8-8V44.16a5.171,5.171,0,0,1,6.63-4.95l2.06,1.19a5.142,5.142,0,0,1,1.61,3.43Z" fill="#fcd770"/>
          </g>
          <g id="Group_1202289" data-name="Group 1202289">
            <path id="Path_1042122" data-name="Path 1042122" d="M17.69,40.4l-2.06-1.19.18-.64A11.982,11.982,0,0,0,19,39l.24.06a9.761,9.761,0,0,1,1.94.71,10.187,10.187,0,0,1,5.51,6.75A9.743,9.743,0,0,1,27,49H26a1,1,0,0,0-1,1v5H20l-.7-11.17A5.142,5.142,0,0,0,17.69,40.4Z" fill="#fcd770"/>
          </g>
          <g id="Group_1202290" data-name="Group 1202290">
            <path id="Path_1042123" data-name="Path 1042123" d="M29,58a3,3,0,0,0-3-3H25V50a1,1,0,0,1,1-1h6a1,1,0,0,1,1,1V60a1,1,0,0,1-1,1H26a3,3,0,0,0,3-3Z" fill="#e6e9ed"/>
          </g>
          <g id="Group_1202291" data-name="Group 1202291">
            <path id="Path_1042124" data-name="Path 1042124" d="M25,55h1a3,3,0,0,1,0,6H23V55Z" fill="#f0d0b4"/>
          </g>
          <g id="Group_1202292" data-name="Group 1202292">
            <path id="Path_1042125" data-name="Path 1042125" d="M36.61,37.16a3.419,3.419,0,0,1,1.7,5.32,3.362,3.362,0,0,1-1.79,1.23l-2.65.76-1.73-6.9,2.53-.5a2.989,2.989,0,0,1,.67-.07h.24a3.516,3.516,0,0,1,1.03.15Z" fill="#f0d0b4"/>
          </g>
          <g id="Group_1202293" data-name="Group 1202293">
            <path id="Path_1042126" data-name="Path 1042126" d="M5,19v6H4a3,3,0,0,1-1.13-5.78A3.033,3.033,0,0,1,4,19Z" fill="#f0d0b4"/>
          </g>
          <g id="Group_1202294" data-name="Group 1202294">
            <path id="Path_1042127" data-name="Path 1042127" d="M34,19a3.033,3.033,0,0,1,1.13.22A3,3,0,0,1,34,25H33V19Z" fill="#f0d0b4"/>
          </g>
          <g id="Group_1202295" data-name="Group 1202295">
            <path id="Path_1042128" data-name="Path 1042128" d="M21,18a1,1,0,0,1,1-1h9V14.61a2.993,2.993,0,0,0-1.34-2.5l-.83-.56A2.329,2.329,0,0,1,26.68,13H14.12a5.28,5.28,0,0,1-2.87-.85l-1.84.37A3,3,0,0,0,7,15.46V17h9a1,1,0,0,1,1,1v8a1,1,0,0,1-1,1H7a12,12,0,1,0,24,0H22a1,1,0,0,1-1-1V18Z" fill="#f0d0b4"/>
          </g>
          <g id="Group_1202296" data-name="Group 1202296">
            <path id="Path_1042129" data-name="Path 1042129" d="M22,17H32a1,1,0,0,1,1,1v8a1,1,0,0,1-1,1H22a1,1,0,0,1-1-1V18A1,1,0,0,1,22,17Z" fill="#69d6f4"/>
          </g>
          <g id="Group_1202297" data-name="Group 1202297">
            <path id="Path_1042130" data-name="Path 1042130" d="M7,17h9a1,1,0,0,1,1,1v8a1,1,0,0,1-1,1H6a1,1,0,0,1-1-1V18a1,1,0,0,1,1-1Z" fill="#69d6f4"/>
          </g>
          <g id="Group_1202298" data-name="Group 1202298">
            <circle id="Ellipse_12567" data-name="Ellipse 12567" cx="2" cy="2" r="2" transform="translate(25 20)" fill="#969faa"/>
          </g>
          <g id="Group_1202299" data-name="Group 1202299">
            <circle id="Ellipse_12568" data-name="Ellipse 12568" cx="2" cy="2" r="2" transform="translate(9 20)" fill="#969faa"/>
          </g>
        </g>
        <g id="Group_1202301" data-name="Group 1202301">
          <path id="Path_1042131" data-name="Path 1042131" d="M11,19a3,3,0,1,0,3,3A3,3,0,0,0,11,19Zm0,4a1,1,0,1,1,1-1A1,1,0,0,1,11,23Z"/>
          <path id="Path_1042132" data-name="Path 1042132" d="M27,19a3,3,0,1,0,3,3A3,3,0,0,0,27,19Zm0,4a1,1,0,1,1,1-1A1,1,0,0,1,27,23Z"/>
          <path id="Path_1042133" data-name="Path 1042133" d="M23.9,31.447l-1.789-.9A2.605,2.605,0,0,1,19.764,32H16v2h3.764A4.6,4.6,0,0,0,23.9,31.447Z"/>
          <path id="Path_1042134" data-name="Path 1042134" d="M56,6a2,2,0,0,0,2,2h2a2,2,0,0,0,2-2V4a2,2,0,0,0-2-2H58a2,2,0,0,0-2,2H53.566a2.012,2.012,0,0,0-1.715.971L50.933,6.5a8.991,8.991,0,0,0-9.889,14.2L35.933,36.036c-.118-.01-.232-.036-.353-.036h-.241a4.448,4.448,0,0,0-.867.086L26.353,37.71a12.991,12.991,0,0,0,5.6-9.71H32a2,2,0,0,0,2-2,4,4,0,0,0,2.233-7.317l.59-3.538A13.007,13.007,0,0,0,23.994,0H14.007A13.007,13.007,0,0,0,1.177,15.145l.589,3.539A4,4,0,0,0,4,26a2,2,0,0,0,2,2h.051a13,13,0,0,0,6.44,10.235A6.163,6.163,0,0,0,8,44.156V53a9.01,9.01,0,0,0,9,9H32a2,2,0,0,0,2-2V50a2,2,0,0,0-2-2H27.954c-.023-.261-.058-.519-.1-.776l8.939-2.553a4.4,4.4,0,0,0,1.92-1.151A1.985,1.985,0,0,0,40,44h2a2,2,0,0,0,2-2V40a2,2,0,0,0-2-2H40a1.978,1.978,0,0,0-.663.122,4.434,4.434,0,0,0-1.5-1.48l4.808-14.423a8.9,8.9,0,0,0,8.285,1.28l.919,1.531a2.01,2.01,0,0,0,1.714.97H56a2,2,0,0,0,2,2h2a2,2,0,0,0,2-2V24a2,2,0,0,0-2-2H58a2,2,0,0,0-2,2H53.566l-.82-1.367a8.975,8.975,0,0,0,0-15.266L53.566,6Zm2-2h2V6H58ZM22,26V18H32v8Zm-2-8v2H18V18a2,2,0,0,0-2-2H8v-.541A2.006,2.006,0,0,1,9.608,13.5l1.461-.292A6.266,6.266,0,0,0,14.123,14H26.675A3.305,3.305,0,0,0,29.1,12.935l.01.006A2,2,0,0,1,30,14.6V16H22A2,2,0,0,0,20,18ZM6,26V18H16v8Zm28-2V20a2,2,0,0,1,0,4ZM2,22a2,2,0,0,1,2-2v4A2,2,0,0,1,2,22Zm2-4c-.108,0-.209.023-.314.032L3.15,14.815A11,11,0,0,1,14.006,2h9.987A11.006,11.006,0,0,1,34.85,14.817l-.536,3.215c-.1-.009-.206-.032-.314-.032a2,2,0,0,0-2-2V14.6a3.993,3.993,0,0,0-1.781-3.328l-.262-.175A3.323,3.323,0,0,0,30,10.676a3.322,3.322,0,0,0-2.273-3.155l-1.411-.47-.632,1.9,1.41.469A1.325,1.325,0,0,1,26.675,12H14.123A4.275,4.275,0,0,1,9.97,8.758l-1.94.484A6.236,6.236,0,0,0,9.17,11.55,4.008,4.008,0,0,0,6,15.459V16a2,2,0,0,0-2,2ZM8.051,28H16a2,2,0,0,0,2-2V22h2v4a2,2,0,0,0,2,2h7.949a10.994,10.994,0,0,1-21.9,0ZM18.845,39.992l.151.037a9.23,9.23,0,0,1,6.945,7.977A2,2,0,0,0,24,50v4H20.939L20.3,43.771a6.125,6.125,0,0,0-1.63-3.788c.059,0,.116.008.175.009ZM10,53V44.156a4.156,4.156,0,0,1,8.3-.26L18.936,54H17.415a4.385,4.385,0,0,0-3.122,1.293l1.415,1.414A2.394,2.394,0,0,1,17.414,56H22v4H17a7.008,7.008,0,0,1-7-7Zm14,7V56h2a2,2,0,0,1,0,4Zm8,0H29.444A3.959,3.959,0,0,0,30,58a4,4,0,0,0-4-4V50h6ZM23.822,40.255,31.4,38.738l1.258,5.032-5.291,1.511a11.238,11.238,0,0,0-3.549-5.026ZM40,40h2v2H40Zm-3.755,2.747-1.659.474-1.219-4.875,1.5-.3A2.455,2.455,0,0,1,35.339,38h.241a2.42,2.42,0,0,1,.665,4.747ZM58,24h2v2H58ZM43.051,14.684,41.839,18.32A6.987,6.987,0,0,1,44.01,9.256L46.882,15,44.01,20.744a7.131,7.131,0,0,1-.687-.55l1.626-4.877Zm8.667,6.236-.861-1.435-1.715,1.029.734,1.222a6.86,6.86,0,0,1-4.078-.1L48.618,16h6.3A7,7,0,0,1,51.718,20.92ZM54.92,14h-6.3L45.8,8.36a6.872,6.872,0,0,1,4.078-.1l-.733,1.223,1.715,1.029.861-1.435A7,7,0,0,1,54.92,14Z"/>
          <path id="Path_1042135" data-name="Path 1042135" d="M50,38H48a2,2,0,0,0-2,2v2a2,2,0,0,0,2,2h2a2,2,0,0,0,2-2V40A2,2,0,0,0,50,38Zm-2,4V40h2v2Z"/>
          <path id="Path_1042136" data-name="Path 1042136" d="M58,38H56a2,2,0,0,0-2,2v2a2,2,0,0,0,2,2h2a2,2,0,0,0,2-2V40A2,2,0,0,0,58,38Zm-2,4V40h2v2Z"/>
          <path id="Path_1042137" data-name="Path 1042137" d="M42,30h4v2H42Z"/>
          <path id="Path_1042138" data-name="Path 1042138" d="M48,30H58v2H48Z"/>
          <path id="Path_1042139" data-name="Path 1042139" d="M42,34H55v2H42Z"/>
        </g>
      </g>
    </g>
  </g>
</svg>
