<svg xmlns="http://www.w3.org/2000/svg" xmlns:xlink="http://www.w3.org/1999/xlink" width="113" height="113" viewBox="0 0 113 113">
  <defs>
    <filter id="Path_982547" x="0" y="0" width="113" height="113" filterUnits="userSpaceOnUse">
      <feOffset dy="3" input="SourceAlpha"/>
      <feGaussianBlur stdDeviation="3" result="blur"/>
      <feFlood flood-opacity="0.161"/>
      <feComposite operator="in" in2="blur"/>
      <feComposite in="SourceGraphic"/>
    </filter>
  </defs>
  <g id="Group_1202752" data-name="Group 1202752" transform="translate(-271.125 -2800)">
    <g id="Group_1202359" data-name="Group 1202359">
      <g id="Group_1202218" data-name="Group 1202218" transform="translate(280.125 2806)">
        <g id="Group_1178824" data-name="Group 1178824">
          <g id="Group_1177679" data-name="Group 1177679">
            <g id="Group_1172010" data-name="Group 1172010">
              <g id="Group_1171046" data-name="Group 1171046">
                <g id="Group_1148525" data-name="Group 1148525">
                  <g transform="matrix(1, 0, 0, 1, -9, -6)" filter="url(#Path_982547)">
                    <g id="Path_982547-2" data-name="Path 982547" transform="translate(9 6)" fill="#fbedfe">
                      <path d="M 47.5 93.5 C 41.28937149047852 93.5 35.26533508300781 92.28397369384766 29.59518623352051 89.88570404052734 C 24.11771965026855 87.56893157958984 19.19813346862793 84.25196075439453 14.97309303283691 80.02691650390625 C 10.74804019927979 75.80186462402344 7.431066513061523 70.88229370117188 5.114293098449707 65.40481567382812 C 2.716026782989502 59.73468017578125 1.5 53.71062850952148 1.5 47.5 C 1.5 41.28937149047852 2.716026782989502 35.26533508300781 5.114293098449707 29.59518623352051 C 7.431066513061523 24.11771965026855 10.74804019927979 19.19813346862793 14.97309303283691 14.97309303283691 C 19.19813346862793 10.74804019927979 24.11771965026855 7.431066513061523 29.59518623352051 5.114293098449707 C 35.26533508300781 2.716026782989502 41.28937149047852 1.5 47.5 1.5 C 53.71062850952148 1.5 59.73468017578125 2.716026782989502 65.40481567382812 5.114293098449707 C 70.88229370117188 7.431066513061523 75.80186462402344 10.74804019927979 80.02691650390625 14.97309303283691 C 84.25196075439453 19.19813346862793 87.56893157958984 24.11771965026855 89.88570404052734 29.59518623352051 C 92.28397369384766 35.26533508300781 93.5 41.28937149047852 93.5 47.5 C 93.5 53.71062850952148 92.28397369384766 59.73468017578125 89.88570404052734 65.40481567382812 C 87.56893157958984 70.88229370117188 84.25196075439453 75.80186462402344 80.02691650390625 80.02691650390625 C 75.80186462402344 84.25196075439453 70.88229370117188 87.56893157958984 65.40481567382812 89.88570404052734 C 59.73468017578125 92.28397369384766 53.71062850952148 93.5 47.5 93.5 Z" stroke="none"/>
                      <path d="M 47.5 3 C 41.49121475219727 3 35.66376876831055 4.176155090332031 30.17950439453125 6.495796203613281 C 24.88084411621094 8.736953735351562 20.12152099609375 11.94598388671875 16.03375244140625 16.03375244140625 C 11.94598388671875 20.12152099609375 8.736953735351562 24.88084411621094 6.495796203613281 30.17950439453125 C 4.176155090332031 35.66376876831055 3 41.49121475219727 3 47.5 C 3 53.50878524780273 4.176155090332031 59.33623123168945 6.495796203613281 64.82049560546875 C 8.736953735351562 70.11915588378906 11.94598388671875 74.87847900390625 16.03375244140625 78.96624755859375 C 20.12152099609375 83.05401611328125 24.88084411621094 86.26304626464844 30.17950439453125 88.50419616699219 C 35.66376876831055 90.82384490966797 41.49121475219727 92 47.5 92 C 53.50878524780273 92 59.33623123168945 90.82384490966797 64.82049560546875 88.50419616699219 C 70.11915588378906 86.26304626464844 74.87847900390625 83.05401611328125 78.96624755859375 78.96624755859375 C 83.05401611328125 74.87847900390625 86.26304626464844 70.11915588378906 88.50419616699219 64.82049560546875 C 90.82384490966797 59.33623123168945 92 53.50878524780273 92 47.5 C 92 41.49121475219727 90.82384490966797 35.66376876831055 88.50419616699219 30.17950439453125 C 86.26304626464844 24.88084411621094 83.05401611328125 20.12152099609375 78.96624755859375 16.03375244140625 C 74.87847900390625 11.94598388671875 70.11915588378906 8.736953735351562 64.82049560546875 6.495796203613281 C 59.33623123168945 4.176155090332031 53.50878524780273 3 47.5 3 M 47.5 0 C 73.7335205078125 0 95 21.2664794921875 95 47.5 C 95 73.7335205078125 73.7335205078125 95 47.5 95 C 21.2664794921875 95 0 73.7335205078125 0 47.5 C 0 21.2664794921875 21.2664794921875 0 47.5 0 Z" stroke="none" fill="#7b3289"/>
                    </g>
                  </g>
                </g>
              </g>
            </g>
          </g>
        </g>
      </g>
      <g id="target_7763790" transform="translate(300.51 2822)">
        <g id="s">
          <g id="Group_1202357" data-name="Group 1202357">
            <path id="Path_1042277" data-name="Path 1042277" d="M43,43.928V59H2V5H35l8,8V43.928Z" fill="#c2cfe8"/>
            <path id="Path_1042278" data-name="Path 1042278" d="M8.777,5A2.777,2.777,0,0,0,6,7.777v25.37A21.853,21.853,0,0,0,27.853,55H41.016A1.984,1.984,0,0,0,43,53.016V13L35,5Z" fill="#edf4fa"/>
            <path id="Path_1042279" data-name="Path 1042279" d="M43,45.906V32.094a13,13,0,1,0,0,13.812Z" fill="#c2cfe8"/>
            <path id="Path_1042280" data-name="Path 1042280" d="M43,13H35V5Z" fill="#fbfbfb"/>
            <path id="Path_1042281" data-name="Path 1042281" d="M6,19h6v6H6Z" fill="#e63a45"/>
            <path id="Path_1042282" data-name="Path 1042282" d="M6,29h6v6H6Z" fill="#e63a45"/>
            <path id="Path_1042283" data-name="Path 1042283" d="M6,39h6v6H6Z" fill="#c12b35"/>
            <path id="Path_1042284" data-name="Path 1042284" d="M6,49h6v6H6Z" fill="#c12b35"/>
            <g id="Group_1202356" data-name="Group 1202356">
              <path id="Path_1042285" data-name="Path 1042285" d="M6,9H18v2H6Z" fill="#355485"/>
              <path id="Path_1042286" data-name="Path 1042286" d="M6,13H18v2H6Z" fill="#355485"/>
              <path id="Path_1042287" data-name="Path 1042287" d="M15,18H33v2H15Z" fill="#355485"/>
              <path id="Path_1042288" data-name="Path 1042288" d="M15,22h6v2H15Z" fill="#355485"/>
              <path id="Path_1042289" data-name="Path 1042289" d="M15,28h9.6v2H15Z" fill="#355485"/>
              <path id="Path_1042290" data-name="Path 1042290" d="M15,32h7.475v2H15Z" fill="#355485"/>
              <path id="Path_1042291" data-name="Path 1042291" d="M15,38h7v2H15Z" fill="#355485"/>
              <path id="Path_1042292" data-name="Path 1042292" d="M15,42h8.312v2H15Z" fill="#355485"/>
              <path id="Path_1042293" data-name="Path 1042293" d="M15,48h6v2H15Z" fill="#355485"/>
              <path id="Path_1042294" data-name="Path 1042294" d="M15,52H32v2H15Z" fill="#355485"/>
              <path id="Path_1042295" data-name="Path 1042295" d="M20,9H31v2H20Z" fill="#355485"/>
            </g>
            <circle id="Ellipse_12579" data-name="Ellipse 12579" cx="13" cy="13" r="13" transform="translate(19 24)" fill="#c12b35"/>
            <path id="Path_1042296" data-name="Path 1042296" d="M22.2,34a2,2,0,0,1-1.777-2.913,12.991,12.991,0,0,1,20.49-3.542,2,2,0,0,1-2.744,2.911,8.992,8.992,0,0,0-14.188,2.458A2,2,0,0,1,22.2,34Z" fill="#e63a45"/>
            <path id="Path_1042297" data-name="Path 1042297" d="M24.458,47a2,2,0,0,1-1.372-.545A13.049,13.049,0,0,1,19,37a2,2,0,0,1,4,0,8.913,8.913,0,0,0,2.83,6.545A2,2,0,0,1,24.458,47Z" fill="#e63a45"/>
            <circle id="Ellipse_12580" data-name="Ellipse 12580" cx="5" cy="5" r="5" transform="translate(27 32)" fill="#c12b35"/>
            <path id="Path_1042298" data-name="Path 1042298" d="M29.767,41a2,2,0,0,1-1.491-.666A5,5,0,0,1,32,32a2,2,0,1,1,0,4,1,1,0,0,0-1,1,.984.984,0,0,0,.256.666A2,2,0,0,1,29.768,41Z" fill="#e63a45"/>
            <path id="Path_1042299" data-name="Path 1042299" d="M32,28a9,9,0,1,0,9,9A9,9,0,0,0,32,28Zm0,14a5,5,0,1,1,5-5A5,5,0,0,1,32,42Z" fill="#edf4fa"/>
            <path id="Path_1042300" data-name="Path 1042300" d="M32.682,39H44.11a.828.828,0,0,0,.819-.747A11.778,11.778,0,0,0,45,37H32v1.318A.682.682,0,0,0,32.682,39Z" fill="#912028"/>
            <path id="Path_1042301" data-name="Path 1042301" d="M36.578,39h4.191A9.03,9.03,0,0,0,41,37H37a4.979,4.979,0,0,1-.422,2Z" fill="#c2cfe8"/>
            <path id="Path_1042302" data-name="Path 1042302" d="M49,37l2-4h9l-2,4Z" fill="#c12b35"/>
            <path id="Path_1042303" data-name="Path 1042303" d="M49,37l2,4h9l-2-4Z" fill="#c12b35"/>
            <path id="Path_1042304" data-name="Path 1042304" d="M32,36H62v2H32Z" fill="#f1a141"/>
            <rect id="Rectangle_416945" data-name="Rectangle 416945" width="20" height="2" rx="1" transform="translate(34 36)" fill="#ffbe51"/>
            <path id="Path_1042305" data-name="Path 1042305" d="M52.63,35H59l1-2H51v.37A1.63,1.63,0,0,0,52.63,35Z" fill="#e63a45"/>
            <path id="Path_1042306" data-name="Path 1042306" d="M52.63,39H59l1,2H51v-.37A1.63,1.63,0,0,1,52.63,39Z" fill="#e63a45"/>
            <rect id="Rectangle_416946" data-name="Rectangle 416946" width="6" height="2" rx="1" transform="translate(55 36)" fill="#ffbe51"/>
            <path id="Path_1042307" data-name="Path 1042307" d="M9.5,45H12V39H6.8a21.713,21.713,0,0,0,2.7,6Z" fill="#e63a45"/>
            <path id="Path_1042308" data-name="Path 1042308" d="M35,13V5H34v9h9V13Z" fill="#c2cfe8"/>
          </g>
        </g>
        <g id="af">
          <g id="Group_1202358" data-name="Group 1202358">
            <path id="Path_1042309" data-name="Path 1042309" d="M2,60H43a1,1,0,0,0,1-1V44.174A13.882,13.882,0,0,0,45.949,38h2.432L50.1,41.447A1,1,0,0,0,51,42h9a1,1,0,0,0,.9-1.447L59.619,38H62V36H59.619L60.9,33.447A1,1,0,0,0,60,32H51a1,1,0,0,0-.9.553L48.381,36H45.949A13.9,13.9,0,0,0,44,29.826V13a1,1,0,0,0-.293-.707l-8-8A1,1,0,0,0,35,4H2A1,1,0,0,0,1,5V59a1,1,0,0,0,1,1ZM58.382,40H51.618l-1-2h6.764Zm-6.764-6h6.764l-1,2H50.618Zm-9.669,2a10,10,0,1,0,0,2h2a12,12,0,1,1,0-2Zm-4.04,0a6,6,0,1,0,0,2H39.93a8,8,0,1,1,0-2Zm-2.052,2a4,4,0,1,1,0-2H32v2ZM36,7.414,40.585,12H36ZM3,6H34v7a1,1,0,0,0,1,1h7V27.221A13.961,13.961,0,0,0,21.292,28H15v2h4.894a13.9,13.9,0,0,0-.955,2H15v2h3.332A14,14,0,0,0,18,37c0,.338.027.668.051,1H15v2h3.332a13.885,13.885,0,0,0,.607,2H15v2h4.894A13.963,13.963,0,0,0,42,46.779V58H3Z"/>
            <path id="Path_1042310" data-name="Path 1042310" d="M6,9H18v2H6Z"/>
            <path id="Path_1042311" data-name="Path 1042311" d="M6,13H18v2H6Z"/>
            <path id="Path_1042312" data-name="Path 1042312" d="M12,18H6a1,1,0,0,0-1,1v6a1,1,0,0,0,1,1h6a1,1,0,0,0,1-1V19A1,1,0,0,0,12,18Zm-1,6H7V20h4Z"/>
            <path id="Path_1042313" data-name="Path 1042313" d="M12,28H6a1,1,0,0,0-1,1v6a1,1,0,0,0,1,1h6a1,1,0,0,0,1-1V29A1,1,0,0,0,12,28Zm-1,6H7V30h4Z"/>
            <path id="Path_1042314" data-name="Path 1042314" d="M12,38H6a1,1,0,0,0-1,1v6a1,1,0,0,0,1,1h6a1,1,0,0,0,1-1V39A1,1,0,0,0,12,38Zm-1,6H7V40h4Z"/>
            <path id="Path_1042315" data-name="Path 1042315" d="M12,48H6a1,1,0,0,0-1,1v6a1,1,0,0,0,1,1h6a1,1,0,0,0,1-1V49A1,1,0,0,0,12,48Zm-1,6H7V50h4Z"/>
            <path id="Path_1042316" data-name="Path 1042316" d="M15,18H33v2H15Z"/>
            <path id="Path_1042317" data-name="Path 1042317" d="M15,22h6v2H15Z"/>
            <path id="Path_1042318" data-name="Path 1042318" d="M15,48h6v2H15Z"/>
            <path id="Path_1042319" data-name="Path 1042319" d="M15,52H32v2H15Z"/>
            <path id="Path_1042320" data-name="Path 1042320" d="M20,9H31v2H20Z"/>
          </g>
        </g>
      </g>
    </g>
  </g>
</svg>
