<svg xmlns="http://www.w3.org/2000/svg" xmlns:xlink="http://www.w3.org/1999/xlink" width="113" height="113" viewBox="0 0 113 113">
  <defs>
    <filter id="Path_982547" x="0" y="0" width="113" height="113" filterUnits="userSpaceOnUse">
      <feOffset dy="3" input="SourceAlpha"/>
      <feGaussianBlur stdDeviation="3" result="blur"/>
      <feFlood flood-opacity="0.161"/>
      <feComposite operator="in" in2="blur"/>
      <feComposite in="SourceGraphic"/>
    </filter>
  </defs>
  <g id="Group_1202728" data-name="Group 1202728" transform="translate(-4348.49 -3560.023)">
    <g id="Group_1202350" data-name="Group 1202350">
      <g id="Group_1202078" data-name="Group 1202078" transform="translate(3555 1184.215)">
        <g id="Group_1178713" data-name="Group 1178713" transform="translate(0 886.374)">
          <g id="Group_1176922" data-name="Group 1176922" transform="translate(802.49 1495.435)">
            <g id="Group_1172322" data-name="Group 1172322" transform="translate(0 0)">
              <g id="Group_1164700" data-name="Group 1164700">
                <g id="Group_1160931" data-name="Group 1160931">
                  <g id="Group_1160749" data-name="Group 1160749">
                    <g id="Group_1158891" data-name="Group 1158891">
                      <g id="Group_1157406" data-name="Group 1157406">
                        <g id="Group_1155793" data-name="Group 1155793">
                          <g id="Group_1154704" data-name="Group 1154704">
                            <g id="Group_1150790" data-name="Group 1150790">
                              <g id="Group_1154214" data-name="Group 1154214">
                                <g id="Group_1152583" data-name="Group 1152583">
                                  <g id="Group_1146973" data-name="Group 1146973">
                                    <g id="Group_1146954" data-name="Group 1146954">
                                      <g transform="matrix(1, 0, 0, 1, -9, -6)" filter="url(#Path_982547)">
                                        <g id="Path_982547-2" data-name="Path 982547" transform="translate(9 6)" fill="#fbedfe">
                                          <path d="M 47.5000114440918 93.49987030029297 C 41.28938293457031 93.49987030029297 35.26534652709961 92.28384399414062 29.5951976776123 89.88558959960938 C 24.11773109436035 87.56881713867188 19.19814491271973 84.25183868408203 14.97310447692871 80.02680206298828 C 10.74805164337158 75.80176544189453 7.43107795715332 70.88218688964844 5.114304542541504 65.40472412109375 C 2.716038227081299 59.73458862304688 1.500011444091797 53.71054840087891 1.500011444091797 47.49993515014648 C 1.500011444091797 41.28932189941406 2.716038227081299 35.26528167724609 5.114304542541504 29.59514808654785 C 7.43107795715332 24.1176815032959 10.74805164337158 19.1981086730957 14.97310447692871 14.97306823730469 C 19.19814491271973 10.74802875518799 24.11773109436035 7.431055068969727 29.5951976776123 5.11428165435791 C 35.26534652709961 2.716028451919556 41.28938293457031 1.500001788139343 47.5000114440918 1.500001788139343 C 53.71063995361328 1.500001788139343 59.73467636108398 2.716028451919556 65.40482330322266 5.11428165435791 C 70.88229370117188 7.431055068969727 75.8018798828125 10.74802875518799 80.02691650390625 14.97306823730469 C 84.25196838378906 19.1981086730957 87.56894683837891 24.1176815032959 89.88571929931641 29.59514808654785 C 92.28398132324219 35.26528167724609 93.50001525878906 41.28932189941406 93.50001525878906 47.49993515014648 C 93.50001525878906 53.71054840087891 92.28398132324219 59.73458862304688 89.88571929931641 65.40472412109375 C 87.56894683837891 70.88218688964844 84.25196838378906 75.80176544189453 80.02691650390625 80.02680206298828 C 75.8018798828125 84.25183868408203 70.88229370117188 87.56881713867188 65.40482330322266 89.88558959960938 C 59.73467636108398 92.28384399414062 53.71063995361328 93.49987030029297 47.5000114440918 93.49987030029297 Z" stroke="none"/>
                                          <path d="M 47.5000114440918 3 C 41.49122619628906 3 35.66378021240234 4.1761474609375 30.17951965332031 6.495796203613281 C 24.880859375 8.7369384765625 20.12153625488281 11.94596862792969 16.03376770019531 16.03373718261719 C 11.94598388671875 20.12149047851562 8.736968994140625 24.88081359863281 6.495811462402344 30.17947387695312 C 4.176162719726562 35.66371917724609 3.000007629394531 41.49116516113281 3.000007629394531 47.49993515014648 C 3.000007629394531 53.50870513916016 4.176162719726562 59.33615112304688 6.495811462402344 64.82039642333984 C 8.736968994140625 70.11905670166016 11.94598388671875 74.87837982177734 16.03376770019531 78.96613311767578 C 20.12153625488281 83.05390167236328 24.880859375 86.26293182373047 30.17951965332031 88.50407409667969 C 35.66378021240234 90.82372283935547 41.49122619628906 91.99987030029297 47.5000114440918 91.99987030029297 C 53.50879669189453 91.99987030029297 59.33624267578125 90.82372283935547 64.82050323486328 88.50407409667969 C 70.11916351318359 86.26293182373047 74.87848663330078 83.05390167236328 78.96625518798828 78.96613311767578 C 83.05403900146484 74.87837982177734 86.2630615234375 70.11905670166016 88.50421142578125 64.82039642333984 C 90.82386016845703 59.33615112304688 92.00001525878906 53.50870513916016 92.00001525878906 47.49993515014648 C 92.00001525878906 41.49116516113281 90.82386016845703 35.66371917724609 88.50421142578125 30.17947387695312 C 86.2630615234375 24.88081359863281 83.05403900146484 20.12149047851562 78.96625518798828 16.03373718261719 C 74.87848663330078 11.94596862792969 70.11916351318359 8.7369384765625 64.82050323486328 6.495796203613281 C 59.33624267578125 4.1761474609375 53.50879669189453 3 47.5000114440918 3 M 47.5000114440918 0 C 73.73353576660156 0 95.00001525878906 21.26644134521484 95.00001525878906 47.49993515014648 C 95.00001525878906 73.73342895507812 73.73353576660156 94.99987030029297 47.5000114440918 94.99987030029297 C 21.26648712158203 94.99987030029297 7.62939453125e-06 73.73342895507812 7.62939453125e-06 47.49993515014648 C 7.62939453125e-06 21.26644134521484 21.26648712158203 0 47.5000114440918 0 Z" stroke="none" fill="#7b3289"/>
                                        </g>
                                      </g>
                                    </g>
                                  </g>
                                </g>
                              </g>
                            </g>
                          </g>
                        </g>
                      </g>
                    </g>
                  </g>
                </g>
              </g>
            </g>
          </g>
        </g>
      </g>
      <g id="competitive-analysis_18478958" transform="translate(4375.043 3583.121)">
        <g id="Group_1202349" data-name="Group 1202349" transform="translate(1.853 2.367)">
          <g id="Group_1202346" data-name="Group 1202346" transform="translate(0 4.186)">
            <path id="Path_1042233" data-name="Path 1042233" d="M184.678,393.559l-21.212-.417,5.258-10.693L179,382.017Z" transform="translate(-145.876 -343.864)" fill="#e0dfe1" fill-rule="evenodd"/>
            <path id="Path_1042234" data-name="Path 1042234" d="M114.952,469.6h28.661a1.9,1.9,0,0,1,1.895,1.895h0a1.9,1.9,0,0,1-1.895,1.895H114.952a1.9,1.9,0,0,1-1.895-1.895h0A1.9,1.9,0,0,1,114.952,469.6Z" transform="translate(-101.189 -421.502)" fill="#f0f0f0" fill-rule="evenodd"/>
            <path id="Path_1042235" data-name="Path 1042235" d="M11.111,45.9H62.078a2.618,2.618,0,0,1,2.61,2.61v35.2a2.618,2.618,0,0,1-2.61,2.61H11.111a2.618,2.618,0,0,1-2.61-2.61v-35.2A2.618,2.618,0,0,1,11.111,45.9Z" transform="translate(-8.501 -45.895)" fill="#f0f0f0" fill-rule="evenodd"/>
            <path id="Path_1042236" data-name="Path 1042236" d="M39.261,76.2h48.4a.455.455,0,0,1,.454.454V109.29a.455.455,0,0,1-.454.454h-48.4a.455.455,0,0,1-.454-.454V76.655a.455.455,0,0,1,.454-.454Z" transform="translate(-35.367 -72.761)" fill="#c9f0ff" fill-rule="evenodd"/>
          </g>
          <g id="Group_1202347" data-name="Group 1202347" transform="translate(19.751 16.856)">
            <path id="Path_1042237" data-name="Path 1042237" d="M182.837,288.018h3.084a.333.333,0,0,1,.333.333v5.894a.333.333,0,0,1-.333.333h-3.084a.333.333,0,0,1-.333-.333v-5.894A.333.333,0,0,1,182.837,288.018Z" transform="translate(-182.504 -273.205)" fill="#ff6372" fill-rule="evenodd"/>
            <path id="Path_1042238" data-name="Path 1042238" d="M236.235,255.392h3.084a.333.333,0,0,1,.333.333v9.6a.333.333,0,0,1-.333.333h-3.084a.333.333,0,0,1-.333-.333v-9.6A.333.333,0,0,1,236.235,255.392Z" transform="translate(-229.841 -244.282)" fill="#ffd54f" fill-rule="evenodd"/>
            <path id="Path_1042239" data-name="Path 1042239" d="M289.633,222.767h3.084a.333.333,0,0,1,.333.333v13.3a.333.333,0,0,1-.333.333h-3.084a.333.333,0,0,1-.333-.333V223.1A.333.333,0,0,1,289.633,222.767Z" transform="translate(-277.178 -215.36)" fill="#6ce75a" fill-rule="evenodd"/>
            <path id="Path_1042240" data-name="Path 1042240" d="M343.031,190.141h3.084a.333.333,0,0,1,.333.333v17a.333.333,0,0,1-.333.333h-3.084a.333.333,0,0,1-.333-.333v-17A.333.333,0,0,1,343.031,190.141Z" transform="translate(-324.514 -186.438)" fill="#f1cb86" fill-rule="evenodd"/>
            <path id="Path_1042241" data-name="Path 1042241" d="M396.429,157.515h3.084a.333.333,0,0,1,.333.333v20.707a.333.333,0,0,1-.333.333h-3.084a.333.333,0,0,1-.333-.333V157.848A.333.333,0,0,1,396.429,157.515Z" transform="translate(-371.851 -157.515)" fill="#43a2ff" fill-rule="evenodd"/>
          </g>
          <g id="Group_1202348" data-name="Group 1202348" transform="translate(0 0)">
            <path id="Path_1042242" data-name="Path 1042242" d="M18.192,44.988V32.637a11.914,11.914,0,1,1,4.446,0V45.018a2.223,2.223,0,0,1-4.445-.03Z" transform="translate(-8.5 -9.016)" fill="#43a2ff" fill-rule="evenodd"/>
            <circle id="Ellipse_12576" data-name="Ellipse 12576" cx="9.061" cy="9.061" r="9.061" transform="translate(2.854 2.854)" fill="#c9f0ff"/>
            <path id="Path_1042243" data-name="Path 1042243" d="M69.719,82.976a1.259,1.259,0,1,1,1.871-1.684l1.744,1.942,3.854-4.5A1.257,1.257,0,1,1,79.1,80.373l-4.747,5.538a1.261,1.261,0,0,1-1.932.073Z" transform="translate(-62.484 -70.434)" fill="#43a2ff" fill-rule="evenodd"/>
          </g>
        </g>
        <path id="Path_1042244" data-name="Path 1042244" d="M9.751,13.764a.41.41,0,0,1,.274-.1.4.4,0,0,1,.3.134l1.744,1.942a.853.853,0,0,0,1.281-.015l3.854-4.5a.406.406,0,0,1,.617.527L13.075,17.29c-.009.011-.018.021-.026.033a.406.406,0,0,1-.31.158.4.4,0,0,1-.315-.133l-2.7-3.008h0a.407.407,0,0,1,.029-.575Zm-1.3,1.715,2.7,3.008a2.1,2.1,0,0,0,1.567.7l.079,0a2.108,2.108,0,0,0,1.578-.8l4.735-5.524a2.108,2.108,0,0,0-3.2-2.742l-3.222,3.759-1.1-1.221a2.11,2.11,0,1,0-3.137,2.824Zm5.312-9.406a8.209,8.209,0,1,0,8.209,8.21,8.22,8.22,0,0,0-8.209-8.21Zm0,18.122a9.912,9.912,0,1,0-9.913-9.912A9.923,9.923,0,0,0,13.768,24.194Zm9.419,3.886A93.148,93.148,0,0,0,45.5,13.841l-1.232-.023a.851.851,0,0,1,.032-1.7l3.3.062a.852.852,0,0,1,.836.867l-.063,3.3a.851.851,0,0,1-.85.835h-.017a.85.85,0,0,1-.834-.867l.022-1.257A93.453,93.453,0,0,1,23.85,29.648a.851.851,0,1,1-.663-1.568ZM24.54,39.712H22.5V34.866H24.54Zm.851-6.548H21.647a.851.851,0,0,0-.851.851v6.548a.851.851,0,0,0,.851.851H25.39a.851.851,0,0,0,.852-.851V34.015A.851.851,0,0,0,25.39,33.163Zm5.2,6.548h-2.04V31.168h2.04v8.544Zm.851-10.246H27.7a.851.851,0,0,0-.851.851V40.563a.85.85,0,0,0,.851.851h3.742a.85.85,0,0,0,.852-.851V30.317A.851.851,0,0,0,31.441,29.465Zm5.2,10.246V27.47H34.6V39.712Zm.852-13.944H33.75a.851.851,0,0,0-.851.851V40.563a.851.851,0,0,0,.851.851h3.744a.851.851,0,0,0,.851-.851V26.619A.852.852,0,0,0,37.494,25.768Zm5.2,13.944V23.773H40.654V39.712Zm.851-17.642H39.8a.851.851,0,0,0-.851.851V40.563a.851.851,0,0,0,.851.851h3.744a.851.851,0,0,0,.851-.851V22.921A.851.851,0,0,0,43.546,22.07Zm3.16-2V39.712h2.04V20.075ZM45,19.224V40.563a.85.85,0,0,0,.852.851H49.6a.85.85,0,0,0,.851-.851V19.224a.851.851,0,0,0-.851-.851H45.856a.851.851,0,0,0-.852.851ZM57.189,44.367V9.164a1.761,1.761,0,0,0-1.758-1.759H24.519a12.822,12.822,0,0,1,.933,1.737H54.6a.851.851,0,0,1,.851.852V43.537a.851.851,0,0,1-.851.851H5.294a.852.852,0,0,1-.852-.851V23A12.868,12.868,0,0,1,2.7,20.647v23.72a1.761,1.761,0,0,0,1.76,1.758H55.431a1.76,1.76,0,0,0,1.758-1.758ZM38.5,53.8H21.393l2.934-5.969h11.24Zm6.82,2.747a1.044,1.044,0,0,1-1.043,1.043H15.616a1.044,1.044,0,0,1,0-2.087H44.277A1.045,1.045,0,0,1,45.321,56.543Zm-19.258-45.7a12.768,12.768,0,0,1-9.221,15.828V38.392a3.074,3.074,0,0,1-6.147-.05V26.674a12.678,12.678,0,0,1-4.548-2.153V42.686h47.6V10.845Zm-12.3-7.626A11.064,11.064,0,0,0,11.7,25.152a.852.852,0,0,1,.694.836v12.35a1.375,1.375,0,0,0,1.372,1.374,1.393,1.393,0,0,0,1.37-1.355l0-12.369a.852.852,0,0,1,.693-.836A11.064,11.064,0,0,0,13.767,3.219ZM55.431,5.7H23.212a12.747,12.747,0,0,0-18.893,0A3.465,3.465,0,0,0,1,9.164v35.2a3.465,3.465,0,0,0,3.462,3.461H22.43L19.5,53.8h-3.88a2.746,2.746,0,0,0,0,5.493H44.277a2.746,2.746,0,0,0,0-5.493H40.4l-2.935-5.969H55.431a3.465,3.465,0,0,0,3.461-3.461V9.164A3.465,3.465,0,0,0,55.431,5.7Z" transform="translate(0 0)" fill-rule="evenodd"/>
      </g>
    </g>
  </g>
</svg>
