<svg xmlns="http://www.w3.org/2000/svg" xmlns:xlink="http://www.w3.org/1999/xlink" width="113" height="113" viewBox="0 0 113 113">
  <defs>
    <filter id="Path_982547" x="0" y="0" width="113" height="113" filterUnits="userSpaceOnUse">
      <feOffset dy="3" input="SourceAlpha"/>
      <feGaussianBlur stdDeviation="3" result="blur"/>
      <feFlood flood-opacity="0.161"/>
      <feComposite operator="in" in2="blur"/>
      <feComposite in="SourceGraphic"/>
    </filter>
  </defs>
  <g id="Group_1202722" data-name="Group 1202722" transform="translate(-793.49 -2700.023)">
    <g id="Group_1202277" data-name="Group 1202277">
      <g id="Group_1202072" data-name="Group 1202072" transform="translate(0 324.215)">
        <g id="Group_1178713" data-name="Group 1178713" transform="translate(0 886.374)">
          <g id="Group_1176922" data-name="Group 1176922" transform="translate(802.49 1495.435)">
            <g id="Group_1172322" data-name="Group 1172322" transform="translate(0 0)">
              <g id="Group_1164700" data-name="Group 1164700">
                <g id="Group_1160931" data-name="Group 1160931">
                  <g id="Group_1160749" data-name="Group 1160749">
                    <g id="Group_1158891" data-name="Group 1158891">
                      <g id="Group_1157406" data-name="Group 1157406">
                        <g id="Group_1155793" data-name="Group 1155793">
                          <g id="Group_1154704" data-name="Group 1154704">
                            <g id="Group_1150790" data-name="Group 1150790">
                              <g id="Group_1154214" data-name="Group 1154214">
                                <g id="Group_1152583" data-name="Group 1152583">
                                  <g id="Group_1146973" data-name="Group 1146973">
                                    <g id="Group_1146954" data-name="Group 1146954">
                                      <g transform="matrix(1, 0, 0, 1, -9, -6)" filter="url(#Path_982547)">
                                        <g id="Path_982547-2" data-name="Path 982547" transform="translate(9 6)" fill="#fbedfe">
                                          <path d="M 47.5000114440918 93.49987030029297 C 41.28938293457031 93.49987030029297 35.26534652709961 92.28384399414062 29.5951976776123 89.88558959960938 C 24.11773109436035 87.56881713867188 19.19814491271973 84.25183868408203 14.97310447692871 80.02680206298828 C 10.74805164337158 75.80176544189453 7.43107795715332 70.88218688964844 5.114304542541504 65.40472412109375 C 2.716038227081299 59.73458862304688 1.500011444091797 53.71054840087891 1.500011444091797 47.49993515014648 C 1.500011444091797 41.28932189941406 2.716038227081299 35.26528167724609 5.114304542541504 29.59514808654785 C 7.43107795715332 24.1176815032959 10.74805164337158 19.1981086730957 14.97310447692871 14.97306823730469 C 19.19814491271973 10.74802875518799 24.11773109436035 7.431055068969727 29.5951976776123 5.11428165435791 C 35.26534652709961 2.716028451919556 41.28938293457031 1.500001788139343 47.5000114440918 1.500001788139343 C 53.71063995361328 1.500001788139343 59.73467636108398 2.716028451919556 65.40482330322266 5.11428165435791 C 70.88229370117188 7.431055068969727 75.8018798828125 10.74802875518799 80.02691650390625 14.97306823730469 C 84.25196838378906 19.1981086730957 87.56894683837891 24.1176815032959 89.88571929931641 29.59514808654785 C 92.28398132324219 35.26528167724609 93.50001525878906 41.28932189941406 93.50001525878906 47.49993515014648 C 93.50001525878906 53.71054840087891 92.28398132324219 59.73458862304688 89.88571929931641 65.40472412109375 C 87.56894683837891 70.88218688964844 84.25196838378906 75.80176544189453 80.02691650390625 80.02680206298828 C 75.8018798828125 84.25183868408203 70.88229370117188 87.56881713867188 65.40482330322266 89.88558959960938 C 59.73467636108398 92.28384399414062 53.71063995361328 93.49987030029297 47.5000114440918 93.49987030029297 Z" stroke="none"/>
                                          <path d="M 47.5000114440918 3 C 41.49122619628906 3 35.66378021240234 4.1761474609375 30.17951965332031 6.495796203613281 C 24.880859375 8.7369384765625 20.12153625488281 11.94596862792969 16.03376770019531 16.03373718261719 C 11.94598388671875 20.12149047851562 8.736968994140625 24.88081359863281 6.495811462402344 30.17947387695312 C 4.176162719726562 35.66371917724609 3.000007629394531 41.49116516113281 3.000007629394531 47.49993515014648 C 3.000007629394531 53.50870513916016 4.176162719726562 59.33615112304688 6.495811462402344 64.82039642333984 C 8.736968994140625 70.11905670166016 11.94598388671875 74.87837982177734 16.03376770019531 78.96613311767578 C 20.12153625488281 83.05390167236328 24.880859375 86.26293182373047 30.17951965332031 88.50407409667969 C 35.66378021240234 90.82372283935547 41.49122619628906 91.99987030029297 47.5000114440918 91.99987030029297 C 53.50879669189453 91.99987030029297 59.33624267578125 90.82372283935547 64.82050323486328 88.50407409667969 C 70.11916351318359 86.26293182373047 74.87848663330078 83.05390167236328 78.96625518798828 78.96613311767578 C 83.05403900146484 74.87837982177734 86.2630615234375 70.11905670166016 88.50421142578125 64.82039642333984 C 90.82386016845703 59.33615112304688 92.00001525878906 53.50870513916016 92.00001525878906 47.49993515014648 C 92.00001525878906 41.49116516113281 90.82386016845703 35.66371917724609 88.50421142578125 30.17947387695312 C 86.2630615234375 24.88081359863281 83.05403900146484 20.12149047851562 78.96625518798828 16.03373718261719 C 74.87848663330078 11.94596862792969 70.11916351318359 8.7369384765625 64.82050323486328 6.495796203613281 C 59.33624267578125 4.1761474609375 53.50879669189453 3 47.5000114440918 3 M 47.5000114440918 0 C 73.73353576660156 0 95.00001525878906 21.26644134521484 95.00001525878906 47.49993515014648 C 95.00001525878906 73.73342895507812 73.73353576660156 94.99987030029297 47.5000114440918 94.99987030029297 C 21.26648712158203 94.99987030029297 7.62939453125e-06 73.73342895507812 7.62939453125e-06 47.49993515014648 C 7.62939453125e-06 21.26644134521484 21.26648712158203 0 47.5000114440918 0 Z" stroke="none" fill="#7b3289"/>
                                        </g>
                                      </g>
                                    </g>
                                  </g>
                                </g>
                              </g>
                            </g>
                          </g>
                        </g>
                      </g>
                    </g>
                  </g>
                </g>
              </g>
            </g>
          </g>
        </g>
      </g>
      <g id="developer_3597892" transform="translate(817 2722)">
        <g id="Group_1202275" data-name="Group 1202275">
          <g id="Group_1202258" data-name="Group 1202258">
            <path id="Path_1042091" data-name="Path 1042091" d="M20.88,7.12A3,3,0,0,1,23,2h8.17A10.328,10.328,0,0,1,40,7h.08a5.9,5.9,0,0,1,4.19,1.73A5.66,5.66,0,0,1,45.23,10a5.918,5.918,0,0,1-.53,6.62L42,20V15.21a2,2,0,0,0-2.2-1.99L32,14V11l-8.89,4.45A2,2,0,0,0,22,17.24V20H21l-1.97-3.28a7.239,7.239,0,0,1,1.09-8.84Z" fill="#b27946"/>
          </g>
          <g id="Group_1202259" data-name="Group 1202259">
            <circle id="Ellipse_12560" data-name="Ellipse 12560" cx="2" cy="2" r="2" transform="translate(52 8)" fill="#ef7385"/>
          </g>
          <g id="Group_1202260" data-name="Group 1202260">
            <circle id="Ellipse_12561" data-name="Ellipse 12561" cx="2" cy="2" r="2" transform="translate(8 8)" fill="#ef7385"/>
          </g>
          <g id="Group_1202261" data-name="Group 1202261">
            <path id="Path_1042092" data-name="Path 1042092" d="M47.84,43.46a18.379,18.379,0,0,0-1.6-1.7,17.964,17.964,0,0,0-8.3-4.38L37,43l-5-3-5,3-.94-5.62A18.058,18.058,0,0,0,12,55a7,7,0,0,0,7,7h3a2.006,2.006,0,0,1-2-2V46a2.006,2.006,0,0,1,2-2H42a2.006,2.006,0,0,1,2,2V60a2.006,2.006,0,0,1-2,2h3a7.008,7.008,0,0,0,7-7,18.057,18.057,0,0,0-4.16-11.54Z" fill="#ef7385"/>
          </g>
          <g id="Group_1202262" data-name="Group 1202262">
            <path id="Path_1042093" data-name="Path 1042093" d="M44,58v2a2.006,2.006,0,0,1-2,2H22a2.006,2.006,0,0,1-2-2V58Z" fill="#aab2bd"/>
          </g>
          <g id="Group_1202263" data-name="Group 1202263">
            <path id="Path_1042094" data-name="Path 1042094" d="M44,56v2H20V46a2.006,2.006,0,0,1,2-2H42a2.006,2.006,0,0,1,2,2Z" fill="#ccd1d9"/>
          </g>
          <g id="Group_1202264" data-name="Group 1202264">
            <path id="Path_1042095" data-name="Path 1042095" d="M62,26V41a1,1,0,0,1-1,1H47a.99.99,0,0,1-1-1V26Z" fill="#e6e9ed"/>
          </g>
          <g id="Group_1202265" data-name="Group 1202265">
            <path id="Path_1042096" data-name="Path 1042096" d="M62,23v3H46V23a1,1,0,0,1,1-1H61A1,1,0,0,1,62,23Z" fill="#b4dd7f"/>
          </g>
          <g id="Group_1202266" data-name="Group 1202266">
            <path id="Path_1042097" data-name="Path 1042097" d="M46,22a1.871,1.871,0,0,1-.09.59,1.977,1.977,0,0,1-.5.82A1.955,1.955,0,0,1,44,24H42V20h2A2.006,2.006,0,0,1,46,22Z" fill="#f0d0b4"/>
          </g>
          <g id="Group_1202267" data-name="Group 1202267">
            <path id="Path_1042098" data-name="Path 1042098" d="M39.8,13.22,32,14V11l-8.89,4.45A2,2,0,0,0,22,17.24V24a9.969,9.969,0,0,0,2.93,7.07A10,10,0,0,0,42,24V15.21A2,2,0,0,0,39.8,13.22Z" fill="#f0d0b4"/>
          </g>
          <g id="Group_1202268" data-name="Group 1202268">
            <circle id="Ellipse_12562" data-name="Ellipse 12562" cx="4" cy="4" r="4" transform="translate(34 18)" fill="#69d6f4"/>
          </g>
          <g id="Group_1202269" data-name="Group 1202269">
            <path id="Path_1042099" data-name="Path 1042099" d="M37.94,37.38,37,43l-5-3-5,3-.94-5.62c.23-.05.45-.1.68-.14a1.985,1.985,0,0,0,1.43-1.11h.01L32,39l3.82-2.87h.01a1.985,1.985,0,0,0,1.43,1.11C37.49,37.28,37.71,37.33,37.94,37.38Z" fill="#ed5565"/>
          </g>
          <g id="Group_1202270" data-name="Group 1202270">
            <path id="Path_1042100" data-name="Path 1042100" d="M35.83,36.13h-.01L32,39l-3.82-2.87h-.01a1.657,1.657,0,0,0,.14-.37l.56-2.26a10.047,10.047,0,0,0,6.26,0l.56,2.26a1.657,1.657,0,0,0,.14.37Z" fill="#f0d0b4"/>
          </g>
          <g id="Group_1202271" data-name="Group 1202271">
            <circle id="Ellipse_12563" data-name="Ellipse 12563" cx="2" cy="2" r="2" transform="translate(30 48)" fill="#69d6f4"/>
          </g>
          <g id="Group_1202272" data-name="Group 1202272">
            <circle id="Ellipse_12564" data-name="Ellipse 12564" cx="4" cy="4" r="4" transform="translate(22 18)" fill="#69d6f4"/>
          </g>
          <g id="Group_1202273" data-name="Group 1202273">
            <path id="Path_1042101" data-name="Path 1042101" d="M22,22v2H20a2.015,2.015,0,0,1-2-2,2.006,2.006,0,0,1,2-2h2Z" fill="#f0d0b4"/>
          </g>
          <g id="Group_1202274" data-name="Group 1202274">
            <path id="Path_1042102" data-name="Path 1042102" d="M18,28v4h-.76a1,1,0,0,0-.7,1.71l.53.53-2.83,2.83-.53-.53a1,1,0,0,0-1.71.7V38H8v-.76a1,1,0,0,0-1.71-.7l-.53.53L2.93,34.24l.53-.53A1,1,0,0,0,2.76,32H2V28h.76a1,1,0,0,0,.7-1.71l-.53-.53,2.83-2.83.53.53A1,1,0,0,0,8,22.76V22h4v.76a1,1,0,0,0,1.71.7l.53-.53,2.83,2.83-.53.53a1,1,0,0,0,.7,1.71Zm-4,2a4,4,0,1,0-4,4A4,4,0,0,0,14,30Z" fill="#fcd770"/>
          </g>
        </g>
        <g id="Group_1202276" data-name="Group 1202276">
          <path id="Path_1042103" data-name="Path 1042103" d="M35.789,28.658l.1-.211-1.789-.9-.1.212a2.236,2.236,0,0,1-4,0l-.1-.211-1.789.9.1.211a4.236,4.236,0,0,0,7.578,0Z"/>
          <circle id="Ellipse_12565" data-name="Ellipse 12565" cx="1" cy="1" r="1" transform="translate(25 21)"/>
          <circle id="Ellipse_12566" data-name="Ellipse 12566" cx="1" cy="1" r="1" transform="translate(37 21)"/>
          <path id="Path_1042104" data-name="Path 1042104" d="M32,51a1,1,0,0,1,0-2V47a3,3,0,1,0,3,3H33A1,1,0,0,1,32,51Z"/>
          <path id="Path_1042105" data-name="Path 1042105" d="M61,21H55V12.816A2.993,2.993,0,1,0,51.184,9H45.766a6.981,6.981,0,0,0-5.2-2.978A11.364,11.364,0,0,0,31.169,1H23a4,4,0,0,0-4,4,3.947,3.947,0,0,0,.567,2.019l-.155.155A8.272,8.272,0,0,0,18.037,9H12.816A2.993,2.993,0,1,0,9,12.816V21H7v1.757L5.757,21.514,1.514,25.757,2.757,27H1v6H2.758L1.514,34.243l4.244,4.244L7,37.242V39h6V37.242l1.243,1.244,4.244-4.244L17.243,33H19V27H17.243l1.243-1.243-4.243-4.243L13,22.757V21H11V12.816A3,3,0,0,0,12.816,11h4.437a8.164,8.164,0,0,0,.92,6.233l1.117,1.861A3,3,0,0,0,20,25h1.051a11.022,11.022,0,0,0,6.639,9.118l-.349,1.4a1,1,0,0,1-.786.74A19.08,19.08,0,0,0,11,55a8.013,8.013,0,0,0,8,8H45a8.013,8.013,0,0,0,8-8,19.018,19.018,0,0,0-4.261-12H61a2,2,0,0,0,2-2V23A2,2,0,0,0,61,21ZM12.234,24.6a2,2,0,0,0,2-.272l1.435,1.435A2,2,0,0,0,17,28.986v2.029a2,2,0,0,0-1.333,3.218l-1.435,1.435A2,2,0,0,0,11.015,37H8.985a2,2,0,0,0-3.218-1.333L4.332,34.232A2,2,0,0,0,3,31.015V28.986a2,2,0,0,0,1.333-3.218l1.435-1.435A2,2,0,0,0,8.985,23h2.029a2,2,0,0,0,1.22,1.6ZM10,11a1,1,0,1,1,1-1A1,1,0,0,1,10,11ZM61,25H47V23H61ZM37.444,36.253a1,1,0,0,1-.785-.739l-.349-1.4A11.022,11.022,0,0,0,42.949,25H44a2.966,2.966,0,0,0,1-.184V39.473A19,19,0,0,0,37.444,36.253ZM43,57H21V46a1,1,0,0,1,1-1H42a1,1,0,0,1,1,1ZM35.648,37.514a2.974,2.974,0,0,0,1.148.63l-.54,3.242L33.05,39.463ZM31,43H28.944L31,41.766Zm2,0V41.766L35.056,43ZM29,22a3,3,0,1,1-3-3A3,3,0,0,1,29,22Zm-3-5a4.948,4.948,0,0,0-3,1.026v-.79a.994.994,0,0,1,.553-.894L31,12.618v2.487l8.9-.89a1,1,0,0,1,1.1.995v2.816A4.948,4.948,0,0,0,38,17Zm18,6H43V21h1a1,1,0,0,1,0,2Zm-6-4a3,3,0,1,1-3,3A3,3,0,0,1,38,19ZM54,9a1,1,0,1,1-1,1A1,1,0,0,1,54,9Zm-8.517,8.247A6.946,6.946,0,0,0,47,12.922,6.852,6.852,0,0,0,46.726,11h4.458A3,3,0,0,0,53,12.816V21H47c-.061,0-.119.013-.179.018a2.991,2.991,0,0,0-2.747-2.011ZM20.826,8.588l.155-.155A3.947,3.947,0,0,0,23,9h2V7H23a2,2,0,0,1,0-4h8.169a9.346,9.346,0,0,1,7.974,4.515L39.511,8h.566a4.922,4.922,0,0,1,3.844,8L43,17.149V15.21a3,3,0,0,0-3.3-2.985L33,12.9V9.382L22.658,14.553A2.983,2.983,0,0,0,21,17.236v.821L19.888,16.2a6.236,6.236,0,0,1,.938-7.616ZM19,22a1,1,0,0,1,1-1h1v2H20A1,1,0,0,1,19,22Zm4.279,4.185A4.98,4.98,0,0,0,29.974,19h4.051A4.954,4.954,0,0,0,33,22a4.988,4.988,0,0,0,7.721,4.185,8.988,8.988,0,0,1-17.442,0ZM32,35a10.981,10.981,0,0,0,2.4-.272l.257,1.029L32,37.75l-2.658-1.994.257-1.028A10.981,10.981,0,0,0,32,35Zm-3.647,2.514,2.6,1.949-3.206,1.923-.54-3.241a2.992,2.992,0,0,0,1.147-.631ZM13,55a17.075,17.075,0,0,1,12.258-16.37L25.986,43H22a3,3,0,0,0-3,3v7.509A4.213,4.213,0,0,0,17,53v2a2.224,2.224,0,0,1,2,1.236V60a2.966,2.966,0,0,0,.184,1H19a6.01,6.01,0,0,1-6-6Zm9,6a1,1,0,0,1-1-1V59H43v1a1,1,0,0,1-1,1Zm23,0h-.18A2.966,2.966,0,0,0,45,60V56.236A2.224,2.224,0,0,1,47,55V53a4.214,4.214,0,0,0-2,.509V46a3,3,0,0,0-3-3H38.014l.729-4.374A17.078,17.078,0,0,1,51,55a6.01,6.01,0,0,1-6,6Zm2-20V27H61V41Z"/>
          <path id="Path_1042106" data-name="Path 1042106" d="M49,29h2v2H49Z"/>
          <path id="Path_1042107" data-name="Path 1042107" d="M53,29h6v2H53Z"/>
          <path id="Path_1042108" data-name="Path 1042108" d="M49,33h8v2H49Z"/>
          <path id="Path_1042109" data-name="Path 1042109" d="M49,37H59v2H49Z"/>
          <path id="Path_1042110" data-name="Path 1042110" d="M5,30a5,5,0,1,0,5-5A5.006,5.006,0,0,0,5,30Zm5-3a3,3,0,1,1-3,3A3,3,0,0,1,10,27Z"/>
        </g>
      </g>
    </g>
  </g>
</svg>
